<mxfile host="Electron" modified="2023-07-12T22:45:37.517Z" agent="Mozilla/5.0 (Macintosh; Intel Mac OS X 10_15_7) AppleWebKit/537.36 (KHTML, like Gecko) draw.io/21.5.0 Chrome/112.0.5615.204 Electron/24.5.1 Safari/537.36" etag="NxVDZJXkRomS7c3TUTFW" version="21.5.0" type="device">
  <diagram name="Page-1" id="U_WqwhbCU1O8A3oIfgOX">
    <mxGraphModel dx="1114" dy="674" grid="1" gridSize="10" guides="1" tooltips="1" connect="1" arrows="1" fold="1" page="1" pageScale="1" pageWidth="850" pageHeight="1100" math="0" shadow="0">
      <root>
        <mxCell id="0" />
        <mxCell id="1" parent="0" />
        <mxCell id="LyHkT1nH7egu0SJi4p9X-1" value="" style="shape=image;aspect=fixed;image=data:image/png,iVBORw0KGgoAAAANSUhEUgAABJYAAAMOCAYAAABMBYzTAAAMP2lDQ1BJQ0MgUHJvZmlsZQAASImVVwdYU8kWnluSkEBooUsJvQkiNYCUEFroHcFGSAKEEmIgqNjRRQXXLhawoasiClZA7IhiYVFs2BcLKsq6WLArb1JA133le/N9c+e//5z5z5lzZ+69A4DaSY5IlIuqA5AnLBTHhQTQx6ak0klPAQbUgSawBS4cboGIGRMTAWAZav9e3t0AiLS96iDV+mf/fy0aPH4BFwAkBuJ0XgE3D+KDAOBVXJG4EACilDefUiiSYliBlhgGCPFCKc6U4yopTpfjvTKbhDgWxK0AKKlwOOJMAFQvQ55exM2EGqr9EDsJeQIhAGp0iH3z8vJ5EKdBbANtRBBL9RnpP+hk/k0zfViTw8kcxvK5yIpSoKBAlMuZ9n+m43+XvFzJkA8rWFWyxKFx0jnDvN3MyQ+XYhWI+4TpUdEQa0L8QcCT2UOMUrIkoYlye9SQW8CCOQM6EDvxOIHhEBtCHCzMjYpQ8OkZgmA2xHCFoFMFhewEiPUgXsgvCIpX2GwW58cpfKENGWIWU8Gf44hlfqW+7ktyEpkK/ddZfLZCH1MtzkpIhpgCsUWRICkKYlWIHQty4sMVNmOKs1hRQzZiSZw0fguI4/jCkAC5PlaUIQ6OU9iX5RUMzRfbnCVgRynw/sKshFB5frBWLkcWP5wLdpkvZCYO6fALxkYMzYXHDwySzx17xhcmxit0PogKA+LkY3GKKDdGYY+b8XNDpLwZxK4FRfGKsXhSIVyQcn08Q1QYkyCPEy/O5oTFyOPBl4EIwAKBgA4ksKaDfJANBB19jX3wTt4TDDhADDIBHzgomKERybIeIbzGg2LwJ0R8UDA8LkDWywdFkP86zMqvDiBD1lskG5EDnkCcB8JBLryXyEYJh70lgceQEfzDOwdWLow3F1Zp/7/nh9jvDBMyEQpGMuSRrjZkSQwiBhJDicFEW9wA98W98Qh49YfVGWfgnkPz+G5PeELoJDwkXCd0E25NEpSIf4oyEnRD/WBFLtJ/zAVuBTXd8ADcB6pDZVwHNwAOuCv0w8T9oGc3yLIUcUuzQv9J+28z+OFpKOzITmSUrEv2J9v8PFLVTtVtWEWa6x/zI481fTjfrOGen/2zfsg+D7bhP1tiC7EDWBt2CjuPHcUaAR07gTVh7dgxKR5eXY9lq2vIW5wsnhyoI/iHv6EnK81kgVOtU6/TF3lfIX+q9B0NWPmiaWJBZlYhnQm/CHw6W8h1HEl3dnJ2AUD6fZG/vt7Eyr4biE77d27eHwD4nBgcHDzynQs7AcA+D7j9D3/nbBjw06EMwLnDXIm4SM7h0gsBviXU4E7TB8bAHNjA+TgDd+AN/EEQCAPRIAGkgIkw+iy4zsVgCpgB5oJSUA6WgdVgPdgEtoKdYA/YDxrBUXAKnAUXwWVwHdyBq6cHvAD94B34jCAICaEiNEQfMUEsEXvEGWEgvkgQEoHEISlIGpKJCBEJMgOZh5QjK5D1yBakBtmHHEZOIeeRTuQW8gDpRV4jn1AMVUG1UCPUCh2FMlAmGo4moBPQTHQyWozOR5ega9FqdDfagJ5CL6LX0W70BTqAAUwZ08FMMQeMgbGwaCwVy8DE2CysDKvAqrE6rBk+56tYN9aHfcSJOA2n4w5wBYfiiTgXn4zPwhfj6/GdeAPeil/FH+D9+DcClWBIsCd4EdiEsYRMwhRCKaGCsJ1wiHAG7qUewjsikahDtCZ6wL2YQswmTicuJm4g1hNPEjuJj4gDJBJJn2RP8iFFkzikQlIpaR1pN+kE6Qqph/RBSVnJRMlZKVgpVUmoVKJUobRL6bjSFaWnSp/J6mRLshc5mswjTyMvJW8jN5MvkXvInykaFGuKDyWBkk2ZS1lLqaOcodylvFFWVjZT9lSOVRYoz1Feq7xX+ZzyA+WPKpoqdioslfEqEpUlKjtUTqrcUnlDpVKtqP7UVGohdQm1hnqaep/6QZWm6qjKVuWpzlatVG1QvaL6Uo2sZqnGVJuoVqxWoXZA7ZJanzpZ3Uqdpc5Rn6VeqX5YvUt9QIOmMVojWiNPY7HGLo3zGs80SZpWmkGaPM35mls1T2s+omE0cxqLxqXNo22jnaH1aBG1rLXYWtla5Vp7tDq0+rU1tV21k7SnaldqH9Pu1sF0rHTYOrk6S3X269zQ+aRrpMvU5esu0q3TvaL7Xm+Enr8eX69Mr17vut4nfbp+kH6O/nL9Rv17BriBnUGswRSDjQZnDPpGaI3wHsEdUTZi/4jbhqihnWGc4XTDrYbthgNGxkYhRiKjdUanjfqMdYz9jbONVxkfN+41oZn4mghMVpmcMHlO16Yz6bn0tfRWer+poWmoqcR0i2mH6Wcza7NEsxKzerN75hRzhnmG+SrzFvN+CxOLSIsZFrUWty3JlgzLLMs1lm2W762srZKtFlg1Wj2z1rNmWxdb11rftaHa+NlMtqm2uWZLtGXY5thusL1sh9q52WXZVdpdskft3e0F9hvsO0cSRnqOFI6sHtnloOLAdChyqHV44KjjGOFY4tjo+HKUxajUUctHtY365uTmlOu0zenOaM3RYaNLRjePfu1s58x1rnS+5kJ1CXaZ7dLk8srV3pXvutH1phvNLdJtgVuL21d3D3exe517r4eFR5pHlUcXQ4sRw1jMOOdJ8AzwnO151POjl7tXodd+r7+8HbxzvHd5PxtjPYY/ZtuYRz5mPhyfLT7dvnTfNN/Nvt1+pn4cv2q/h/7m/jz/7f5PmbbMbOZu5ssApwBxwKGA9ywv1kzWyUAsMCSwLLAjSDMoMWh90P1gs+DM4Nrg/hC3kOkhJ0MJoeGhy0O72EZsLruG3R/mETYzrDVcJTw+fH34wwi7CHFEcyQaGRa5MvJulGWUMKoxGkSzo1dG34uxjpkccySWGBsTWxn7JG503Iy4tnha/KT4XfHvEgISlibcSbRJlCS2JKkljU+qSXqfHJi8Irl77KixM8deTDFIEaQ0pZJSk1K3pw6MCxq3elzPeLfxpeNvTLCeMHXC+YkGE3MnHpukNokz6UAaIS05bVfaF040p5ozkM5Or0rv57K4a7gveP68Vbxevg9/Bf9phk/GioxnmT6ZKzN7s/yyKrL6BCzBesGr7NDsTdnvc6JzduQM5ibn1ucp5aXlHRZqCnOErfnG+VPzO0X2olJR92Svyasn94vDxdsLkIIJBU2FWvBHvl1iI/lF8qDIt6iy6MOUpCkHpmpMFU5tn2Y3bdG0p8XBxb9Nx6dzp7fMMJ0xd8aDmcyZW2Yhs9Jntcw2nz1/ds+ckDk751Lm5sz9vcSpZEXJ23nJ85rnG82fM//RLyG/1JaqlopLuxZ4L9i0EF8oWNixyGXRukXfynhlF8qdyivKvyzmLr7w6+hf1/46uCRjScdS96UblxGXCZfdWO63fOcKjRXFKx6tjFzZsIq+qmzV29WTVp+vcK3YtIayRrKme23E2qZ1FuuWrfuyPmv99cqAyvoqw6pFVe838DZc2ei/sW6T0abyTZ82Czbf3BKypaHaqrpiK3Fr0dYn25K2tf3G+K1mu8H28u1fdwh3dO+M29la41FTs8tw19JatFZS27t7/O7LewL3NNU51G2p16kv3wv2SvY+35e278b+8P0tBxgH6g5aHqw6RDtU1oA0TGvob8xq7G5Kaeo8HHa4pdm7+dARxyM7jpoerTymfWzpccrx+ccHTxSfGDgpOtl3KvPUo5ZJLXdOjz19rTW2teNM+JlzZ4PPnm5jtp0453Pu6Hmv84cvMC40XnS/2NDu1n7od7ffD3W4dzRc8rjUdNnzcnPnmM7jV/yunLoaePXsNfa1i9ejrnfeSLxxs2t8V/dN3s1nt3JvvbpddPvznTl3CXfL7qnfq7hveL/6D9s/6rvdu489CHzQ/jD+4Z1H3EcvHhc8/tIz/wn1ScVTk6c1z5yfHe0N7r38fNzznheiF5/7Sv/U+LPqpc3Lg3/5/9XeP7a/55X41eDrxW/03+x46/q2ZSBm4P67vHef35d90P+w8yPjY9un5E9PP0/5Qvqy9qvt1+Zv4d/uDuYNDoo4Yo7sVwCDFc3IAOD1DgCoKQDQ4PmMMk5+/pMVRH5mlSHwn7D8jCgr7gDUwf/32D74d9MFwN5t8PgF9dXGAxBDBSDBE6AuLsN16KwmO1dKCxGeAzazv6bnpYN/U+Rnzh/i/rkFUlVX8HP7L1EefISOQp+/AAAAimVYSWZNTQAqAAAACAAEARoABQAAAAEAAAA+ARsABQAAAAEAAABGASgAAwAAAAEAAgAAh2kABAAAAAEAAABOAAAAAAAAAJAAAAABAAAAkAAAAAEAA5KGAAcAAAASAAAAeKACAAQAAAABAAAElqADAAQAAAABAAADDgAAAABBU0NJSQAAAFNjcmVlbnNob3TBPw7yAAAACXBIWXMAABYlAAAWJQFJUiTwAAAB12lUWHRYTUw6Y29tLmFkb2JlLnhtcAAAAAAAPHg6eG1wbWV0YSB4bWxuczp4PSJhZG9iZTpuczptZXRhLyIgeDp4bXB0az0iWE1QIENvcmUgNi4wLjAiPgogICA8cmRmOlJERiB4bWxuczpyZGY9Imh0dHA6Ly93d3cudzMub3JnLzE5OTkvMDIvMjItcmRmLXN5bnRheC1ucyMiPgogICAgICA8cmRmOkRlc2NyaXB0aW9uIHJkZjphYm91dD0iIgogICAgICAgICAgICB4bWxuczpleGlmPSJodHRwOi8vbnMuYWRvYmUuY29tL2V4aWYvMS4wLyI+CiAgICAgICAgIDxleGlmOlBpeGVsWURpbWVuc2lvbj43ODI8L2V4aWY6UGl4ZWxZRGltZW5zaW9uPgogICAgICAgICA8ZXhpZjpQaXhlbFhEaW1lbnNpb24+MTE3NDwvZXhpZjpQaXhlbFhEaW1lbnNpb24+CiAgICAgICAgIDxleGlmOlVzZXJDb21tZW50PlNjcmVlbnNob3Q8L2V4aWY6VXNlckNvbW1lbnQ+CiAgICAgIDwvcmRmOkRlc2NyaXB0aW9uPgogICA8L3JkZjpSREY+CjwveDp4bXBtZXRhPgoVRH18AAAAHGlET1QAAAACAAAAAAAAAYcAAAAoAAABhwAAAYcAAQYMNQOOUgAAQABJREFUeAHsnQW8FUUbxl8aVELFIkTFVgwMDD5FRUJaWrq7G5RUGglJ6VQQEEQEFBQTE0HsJgXBQAxSv3nmMsvsnj1177n33MN95vt9d3dnZ2Zn/hs4z3nfdzL9p5IwkQAJkAAJkAAJkAAJkAAJkAAJkAAJkAAJkECUBDJRWIqSGIuTAAmQAAmQAAmQAAmQAAmQAAmQAAmQAAloAhSW+CCQAAmQAAmQAAmQAAmQAAmQAAmQAAmQAAkkiwCFpWRhYyUSIAESIAESIAESIAESIAESIAESIAESIAEKS3wGSIAESIAESIAESIAESIAESIAESIAESIAEkkWAwlKysLESCZAACZAACZAACZAACZAACZAACZAACZAAhSU+AyRAAiRAAiRAAiRAAiRAAiRAAiRAAiRAAskiQGEpWdhYiQRIgARIgARIgARIgARIgARIgARIgARIgMISnwESIAESIAESIAESIAESIAESIAESIAESIIFkEaCwlCxsrEQCJEACJEACJEACJEACJEACJEACJEACJEBhic8ACZAACZAACZAACZAACZAACZAACZAACZBAsghQWEoWNlYiARIgARIgARIgARIgARIgARIgARIgARKgsMRngARIgARIgARIgARIgARIgARIgARIgARIIFkE0lRYOnFwm2TJWyxZHWUlEiABEiABEiABEiABEiABEiABEiABEiCB9EUgTYWlI9sXSY4ij6QvAuwNCZAACZAACZAACZAACZAACZAACZAACZBAsgikmbAEUQmJwlKy7hMrkQAJkAAJkAAJkAAJkAAJkAAJkAAJkEC6I5BmwtKhNypKdmWtRGEp6Rno0LWffPfDj84DUeLW4jKgXzfnONqdmXMWybKVq51q2bNllxVLZjvH3Dk9CWx47U15dulK2bFjl1SuWFbq160hefPkPj0Hy1ElLIHjx4/Ls8+tkOdfWCNZs2aVh6s8JLWqV5ZMmTIl7JiS2/F6TdrJb7//7lQv9+D90rFtM+eYOyRAAiRAAiRAAiRAAiSQaATSRFiCtdJR9X8KS6cej4eq1ZMvv/rWyXjgvv/J9EmjneNod4aPfkqenrXAVe37z99zHaeHg7///kd2/7RX9qj///HHn5L/3HOkwEUXyEUXni/Zs2dPD11MmD78tHef3H1/ZVd/O7dvyUmqiwgP0gOBl9ZtkPZd+rq6smjOFLnj9uKuvIxwUOy2++Svv/52hlq3VlV5YmAf55g7JEACJEACJEACJEACJJBoBNJEWIK1ElI8hKUPN2+VWvVbpvi+3HD9tTG1AMpowhLuw9wFS2T12vVB70WjerWkXt3qcvlllwQtwxOnCCx4Zqn0HzLqVIbau7hwQdm4brkr73Q7mDpjnox8clLAsN574yU5L/+5AfnMiD8BiEoQl+wE67rBj/WwszLEPoWlDHGbOUgSIAESIAESIAESyFAEUl1YMtZKoBoPYen9Dz+WOg1bp/imnnnmGbLtg9dS3I5pIKMIS3//84906zVQ1q3faIYedtu2ZWPp2rGVZM6cOWzZ061AszZd5ZNtnzvDenH5Arng/PzOsb3z6edfSeUaDe0s7Q43buRgV97pdlC2Uh355rsfAoY1bHBfqV2jSkA+M+JPYPb8xTJk2JOujgwd1Efq1KzqyssIBxSWMsJd5hhJgARIgARIgARIIGMRSHVhyVgrASuFpVMPV0YQlvb9fEBatO0qEECiTQ+VfUBGDxsgOXPmiLZqQpe/675Ksnffz84Y3nltlVx4wfnOsXen74BhOnYN8q8oeqmMGz1ErrnqCm+x0+b4x+075f7yNXzHc0/JO2TO0+N9zzEzvgR+++13adelj7z7/mbdEdyryeOGyxln5Ipvx+JwdQpLcYDOS5IACZAACZAACZAACaQqgVQVlmxrJYwiHsLSBx9tkdoNWqUY4rnnnC0fvLU2xe2YBk53Yenff/+VBs06yKb3PjRDdm3B84rLL5Vtn33pijdiF2rdvKH07NrOzjqt90+c+FeuKHana4zhhCUU/uPQITlw4Fe57NIirrqn4wHiiCGeWLD00Tsvy9n58gY7zfw4E4BoCkvE88/zt8KLc/fS5PIUltIEMy9CAiRAAiRAAiRAAiSQhgRSVViyrZUwpngIS6FY+rlnvPPai8pC5LxQ1WJy7nQXlharlcr69B8awApBygc92l0F7L5Qn4OY8sVX30in7o/KDz/uCCj//OJZcmOx6wLyT8eM/Qd+kRL3POQaWiTCkqvCaX4A1z/bAu7SSy52PTewcsOKY0wkkF4JUFhKr3eG/SIBEiABEiABEiABEkgugVQTlrzWSujg6SYswSpn95698t0PP8p33/2oVzUrelkRKXrZpUHj4pgb5RWWypYuJVMmjNCnf95/QD759Av59tvv5eKLC8l111ylgzKHWpo7uavCHTlyVD76eKts37FbL4ENS4KCBS6UW26+IdmrtB09elRuubtsgCUSgvUO6NtVsmTJYjA4298P/iEt2nWXj1SQbzvddstNsnj+NDtLsHT5oUN/nspTS5YHs1L55/BhOfzP4VNl1V7evHnCxm/69dffZMsnn8n2nbsF4ylw4QVSpEghQRD3SNNXX38nO3btlp2qjUzKSuPqKy+Xq6+63LevENi2bN0mNT2B5lctmycXWa5wOXLkEMT7Qvrvv//k998PurqTM1dOyZUzpyvP7wArEiJOEVbnw2p8uOfXX3uVI/j51TF5B/84JP+eOGEO5eyz8zn7v6n+wEptj3ovsqhl5a+64jI97nOUhVpK085de+TeMtWcZmD11rlDS3lsUNJ7gxPhVlc8duyY/PnnX04bNi/wxD3/+pvv5Bd1/wsXLCBXXlFULi96ie8z6zRycgfPCUTSHTv3qO/CT/o+X3P1Fcoy77KAe4Ky9spgaCJ37rMkq2LmTYhTduTwEScb98s8A06m2vE+D3jm8qlnPVhK7jMe6v7judqsnmO4vkE8/t/dJfTKj17u6FOePLkDuIZqOxbPFr4H6OOnylISXBG/DO+03/cjS9Yskid37mD4Qubv2v2T+oZ/rp6F3XKOej+uVd9wuKrmyJFdvO6ukawKh3uL9r7/YYdgNUh8w/BNuunG6337bjrn5W4/7zj39rsfKGF2p/ONu6X4Db7fgL379ssHKl4hnuv8KkD+Veq9wHMdjavyCfXN2Lxlm/q3Zpfg37h8yrIQ353iNxbTz77pM7ckQAIkQAIkQAIkQAKJRyDVhCWvtRLQnC7C0tZtn8nU6fNCBqSuXLGsXvEo2MTEKyyhfDsVtLrvwOEB4grYYRL99KTRcrOaSPilaIUlTGynz14oWGHLO8E112uj+tOkQW0JJWj59WXjm+9I01ZdXKewWtmGl54LmEjahSDS/a90YPDlTRtXu4Q6iE9eAWbZMzN92cxftFQGPO5eOe1D5dIYTOhAXKjxk6Y7cYvs/mEfwlCvbu3l3pJulzW73MdbP5Whoyb43keUg5UNXPwgJiJ5LRh0ZpA/9Wo/LEMG9NJnMQm/+Y7SrpKP9uosTRvVdeXZB+teeU0mTZvtsvqxz0OY6dy+hRYz7Xx73/vsfvzueiWc5JDR46fKDPVM+aVYWBLNXbhEBj0xxmm+RrWK0rJZAylTsbaTh50t760PKgi8uvEtad62m1O+ZdP60rt7B8E96/3o475BwSFuTh4/XL+DTkVrBwLz6rUbZJi653Z8LKuI3FniVunbs6PDddN7H0m9Jm3tIjJ+1BCpVKGMKw8HHbr2c62miG8Anndv+v6H7VK6Qi1X9mtrl0kRJU7bKaXPuPf+Y1EDCB+9H3siYOU3c9+93NGflUvmSLHrr7G7Jt62Y/VsQZTs3meQwDU6mvT+m2u0MBZpHQgwWLFwxao1AVUgBo54/FEZP3G66zkLJyyteukVmThlpquO3XjDejWlR+e2vmKjl3sr9b7g+/Xa629Lz35DtIBqt4X9zu1bSse2zXQ2xKcRYybKrHnPeovpHzumTx6jBbOAk1YGfghA/enKjRWCrV/Cjw64Zv5zz/E7zTwSIAESIAESIAESIIF0TiBVhCU/ayVwyJKvmGTJWywokhxFHgl6LjVOROsK99kXX8mosZPljbfejag7CLr8/OLZLlHEVPROoEx+uO2TIwZK1UrlA4pFIyzh1+J2avlvr3VQQKMqA5N3rLblZ2XkVx55mGAuWfaC6/TwIf2kVvXKrjy/gx59B8uyFatdp4b07yn16lR38vyEpfkzn5K777zdKWN2ohGWIC60VFZTwSY/pk1sg61o5Seq2fXs/TtuLy5PTxwtN9x+v50dch8cwAMpGmEJE8QnRo6XeQufC9m+ORlqhTXvsztt4iiZNHW2tqgw9f22mFTXfLiS36mI8iAm2s/smOF4F8rJ7f8r77pn40c/LpUeetC3Te9Eu1yZ+6TEbcVdgpVfRbzLEGlgceJNo8ZNlilPz/Vm+x43a/yI9OvZSVvLXH9LKVcZTK4HP9bDlQfR6sYSDwSIv1vf2xBg5fH8C2ukW++BTn0IGVuU6Ge/u7F4xr33f/XzC6SXEilsF0XTCZxDMHkvd5yPRFiKxbP1oRKim7TqHMDQ9DHU9s31K7VVTagy5hwsoRo0a+96Fs25UNtgwhLe2cHDxsrCZ5eFqq7Pwdpwtgpcjx8g7OTljkURbih2bcg4ZaiPwOp33nGrtO3UO2icPHOdjeuWa5HJHNtb/FsDYTQSQS/cjyd2u9wnARIgARIgARIgARJIXwRSRVjys1YKN+x4WDNFKywtff5F/StvuLHY5xvXry39lfuXN3knZ97zoY5fXbNULilS2FUkUmEJrm/V6jTR7iCuBkIceIWdEEX1Ka+rBya4H7y5NiK3iW3KBbBKrcauS1QoV1qeevIJJy81hCW4Z9xX7pR45VwsxI6ZNJsiCKJ99/2VI57Alrzrdpk9bZwK2H2XaSLsNrnC0sAnRkcsKplOBBNokvvsJlmtLVVCR2ZziYi3sAS5676KrvImHpq9Mh4KQCzCxNgveSfafmWC5fmJuu99sFnqNmoTrEpAfhflutehTZI1SL0m7VyTdrhKrVvltgyBO2X5qoGC+6xpY6XU/9zPTb+Bw+SZJSucaz54/z0CYcakWDzjaMt7/71xrsz1sP1q61uSLVu2ZAtLdluh9oM9W37fCrSD8khwVQuVIhWWIPKWfqhm1KISrh1MWOo/ZJQseGZpqO65zkE0mjh2qCsvJc87xNRgFnj2RZo2rCOP9nZbqOI8/q2pWa+5r+Bo1/fur1+9JEMsROAdN49JgARIgARIgARIIJEJxFxYCmatFA5S7nteDFck5uejFZYQI6JMpTpOsGBMTkor1yHEzzhTLZu96f2PfCfvfgGYvZMzMzj8altFucUhfgVi4Mya+4w55Wzr1KyqLWacDLUTqbD0+IhxAW3i1+5O7VpI4UIFBC4jcOXAtU2CMPTOq6sCLCTMeXsLl5ii191hZ+kYJiuWzHblBTtADJTrit/rOn1L8RvluQVPO3l+k8WUWCzBVePhOk0DJkCwenlEuZ7lzZNHW+MMGT7WJRrBvWnh7ElOv15at0HaK0swO+FeIZj0eSouyZdff6ufD8Qgwn1es3KRdv2YOn2uHPjlV1n/2psBE11Y+OQ+60ynyRtvuN6xxonUYgnub22U5YE3YXyw8vrzr79l9ZpXtDuYt4yfK1WwZxd14aYFCyAEYl+3fqO3OQl2nwIKejIWLl7uiqUEl8SXnk9yu/Mb36cfbvRdyj7URBvPeZkH7pVzlTvO8ytfChAJ/FzQ/AS7vj06Ssm7SmgXUsTFgeshBIwkIXG8I6zBDRXvmp02b3rFFRcJ1iqPDR5pF9H7fismPqCEDTsA/sB+3QVuUkixesbRVqj7j+f6/lIl9fWOHj3mCMJ+3COxWML1TErOs9W4ZacAC9O50yfo2E9oFy5hzdq4hX9Yld1wXZKL3gP3/0/OyJXLdCHo1s9KE4Xxjt1x+6165Ua837bFnWnMT1h65dU3pFX7HqaI3uL5fEwJOIgJhZh08xYtkbUvv+Yqg3h0cN00yY+7OYd7VaF8afn7738EP5qESrCuxCIKr7+1yfdHic82vx4QR2zw0CdlzoLFAc2C73XXXKneiT3a5dgrXuHdxrMBQZKJBEiABEiABEiABEggMQjEXFhKFGsl3J5ohSXUwUQE4gziQVQs/6DLzQTnRypXOQgFdsKvyPg12U5+kzNYWgwb3E8JGbmdonBdqV43ycLByVQ7XrEqEmEJLl63lSxnNyP33Xu3THtqpCtoMCYaiNVi/wc/LEDQv3AJE57idz7oKub3S7qrgOfAG3MIv5xjvCbFWljaoCZ8CBxup55d2krrFo3sLB2YuUK1+q68d19f7SydDpEAYoFJmAh+9Pa6gCDomDSef965AavdRfs8Rios+T1rtuiA/iLmVrfeg1yxfJDvZ3Hn1x4mqbC+uv66q1FNpwmTZ8q4iacEQWTC1QsuX9GmRxq3kXff3+xUg9UPrH+Q/DgEe16DTbQb1asl/Xp1ct4DBLa+t+zDLiER9xPxhOzkXaXOayWEsrDcWLriRSn34H0uVyUECoegaafZT49zxe+CUAnB0psgBr+w9NSzhv7e6nm3bYu6WD3j6Iff/Uc+nhXEDvML6OzHPVJhKbnPFlzJrrqxJLrmJMQXQpwhO42fNEPHVTN5cNmF626kCaIw3DG9aeQTj2lXYpMPt0a4+fZSsbzs5CcseRmDgRGiTV2I+HAzs58PPMcD+p2KIebHHfURW6xHl3aOyBnMGhfP/LwZTznx64JZIXmtjPyYoK056huBHwpMQryvhsp90P4hA+emqJhmZdX7wkQCJEACJEACJEACJJAYBGIqLCWStRJuT7QT+UhuKVYbqlzTLUggODD+Q95O3okDfmV+dt5U30DZflYRU5UYBOsKkyIRlrzBj1E3WHBaxOLBdU3ys5Iy5+ytXwDh5k3qCaw4Ik3eyTrqff/5e071WAtLsAyA2GMSLCOWLJjuTLpMPrZtOvZyWeKMHTlIWZgliXUIho4Aznbyc1u0z9v70T6PfoKKN3i3n2uh19LK9AGrpd2p3M3sYO6YDOIZsVea8z67sNxboizKsKKgnfYf+EVK3POQnSVtWjbSgYZdmWEO/CapuN6t1gS1doNWrjgusBSBK583+U208WziGfUmBArHO2MnCEtgYhKC1COulkkQfJ6ZO9VVxpzzbmEBeZMKvm7z7tSuubYeRFlvfCVc1y5rWzd5LW9Qdsu7G5xnOFbPOPrlvf/IQ9y3McMH+H6/cN6PeyTCUkqeLViJlVLioJ1eeG6uS/zEOe/3xLaGs+sG2/da06EceMB10i95hXOvsIRYfpWqN3RV9QqO5qS3rFeE9+Pu/UagLYhwxe8q43q+IGYhRmChgheZy+nt4qUrpU9/t8vdwtmTVYD6W5xysLTFDzB26taptbRr1cTO0vuIv4T3105w84S7JxMJkAAJkAAJkAAJkEBiEIipsJRI1kq4PdFO5IPdUiytvVW5vHz55Tfyo4rV4w1c7ReU1zs5C7VMOoLP1vIsQ/9Yn656xTbTp0iEJbh8YAJqUqhYNN7JFtx48Mt1uOQXxwWrlGEyE2nyssEk2bYU8fYN7QZzsQoXvBuT98uvd6/wNujRHtLgEX+rGgRpRrBmk7AaE8QSJATvRd+9CRYSEOa8q3N5y0X7PEYiLGGVNqxQZyesLggXTr/k9xwtXThdit98g1Pce39CPbuXXVvCqYcdBIOHJUc06bnlq1xWHngePlYuY1mzZnWaeVqtOIW+28nPPcdvou0ncKAdv/vhdQ1EDBzEwrETJvctlJBcrXJ5l1ubXcbse4VKuBwtmjNFn/Y+T1ity7YAm67uI9gjjR43RSY/PUfv449tJRjLZ1y3rZ5x9M1OJt6VnWfvR8o9ls8WrGHuLFXB7oa28oL4Z6fNH38iNeq1cLIgZiEgdaSpU/dHBSu32QlumhCo/FI4Ycn7znpFQrtNiJPeGG3fbNvkCIqRckebXvZwufNzYfZd0dATMN/7bw3a/0Ctxgmxyi/5/Zhgj8OvDvNIgARIgARIgARIgATSD4GYCUuJZq2EW+A3cQw3QTK3bsfOXbLg2eUCFxM7rok5b2+9wadxzvsf8aEm536Bi71ijZ8gYFv54JplVXwor8sBJi1+ybaMwHm/wMJ+9fzEjrKlS8mUCSP8ivvmeSdeXrefWApLfi5E6FSkXOz7ANcUuBAGex7wK3yzxnXlrjtu87XsiPZ59GPttUbwi6kV6hn3ixM1adwwKV/mfudeRfPsegO5Q2zBam7RJG+cHLwrY0cMcjUByw1vEG1beDGFo5loY8n4rr0Gmqp663X52bX7J7nnwaquMvZBPRWjq2H9WkGXZPezdvlyy5vafdIrWr3+8vNyb5lqTvNmhTlkeFfMswPux/IZx7W89x/utDOnPIlTQVOk3L1th/ouRvJswWLJDtDtFeTRYa9YHMyiL9jgvOxR7ttPN0nmzJl9q3i/b16LJb93Ntj3CBfwfqs/VALOOScFnEi5o52GzTvIW++8j12dgglLX3z1jXhdgr2B7b3/1oQT6/yscm03Y9MnbkmABEiABEiABEiABNIngZgJS4lmrYTbEe1EHnVgnYRgunZcC+SHSikVlhDX4pqb3RYmtkUCrh2JsOSd0ITqs/ccVn7a8NJz3uyAYz/rCK8wFFDJykB8p+tvLWXlBK7yFUthyWsV4rpwBAfemCaYxCNeE2JjBUvgMUnFrEKwdDtF+zxGIiz5xej5Zts7yqIhi31pZ99rvYETiNmCcZoU68m/addv+9vvB+UW5aKTnFS9agUZNbS/q2o0E+2VL66VLj0HuOp7hSWchPsrlrNHDLNgCa5RTwzq7XIpRNlvv/9RylSs7ar2/OJZOv6Wfe9M4HDESDPXMWLv4cNH5Nri97jaWPfCM3oBAGTG+hmP5v6bTkXKPZq2IxGWvCurQaBBwH2IJkh+z7u9cp/pf6itV7wKJ6J4v8NeYcm+76GuG+zce2+8pBcLwPlIuaOsV8ANJiz5rVToFZa8Ywwn1vkFsl+1bJ4K8u22LkM/mUiABEiABEiABEiABNIfgZgIS4lorYRbEe1EHq4VtRu0dP0Cbm4p3F9uv+1m/R/CEybPcP2KnFJhyS/ottelKLWFJdtFx4w52NY70cJk7sO31kmOHNmDVXHy/WICeWM0xVJY8pskOZ2JYKdrx1bSvnVTV0msbDdn3mKZPH2O6zmwC4HJ/JkT5aYbrnOyo30ekyssff3J2y43MqcDasdvou11DYz15N++vnffz2rIWybYMRh7g6dHM9GOVFjC9X/au0+5os0VrOIWLGGiPn3yaGfSj3KwckPgZyMWIQ8BzrEa4Y0lHnCeH/MOeN2uYJ2ya89PUrXWqdg1GPfW9zY4FjOxfsajuf8YD1Kk3KNpOxJhCRZl5as+4nBM6o04AaTxLbET2MHdMb9aGTDS5P3exVtYsoXjSLljrKkpLIX79wMLXmDhCzvZweftfO6TAAmQAAmQAAmQAAmkPwIxE5aCDe3EwW1y4vdtAaezF3lEcqj/xzNFO5Hv3LO/vPDiOleXEXuoTYvGaknp4o57k3fZ75QKS94ArehA25aNpXvnNk5fIhGWvO4JWJ2nswoWHEmCa8U1V10RSVEdtBXBW+00etgAebjKQ3aW777fst1PDOwj+FXfJD9hKVhw23AxlmCBdsvdZU3TeouYWGVLnwqM7jrpOYAlV4GLLvTkJh1CYFq1+mW95LY3Jg1KGCsUUzna5zESYemJkeNl5pxF5hJ6+9aGlUH7/OKaV6Rjt0dd5b0rNMV68u+6mOcA1l9wN01u8j4X0Uy0oxGWTP9+3n9ALaG+UuYves4lFpnzECEhRtoJq4QhjpRJWJUMbm54X00ywfq9rnOIl4Vn2F5prHLFsjJu5GBTVZ+P5TMezf03nYiUezRtRyIs4fp+MYFMv+wt3uXZKmD0xYUL2dlh970B3FHB64ZsN+K15vFaLPm5wiGGXCQpc+YsriDakXJH27EUlrz30RtU3DsWWAF7RdlgC0t46/KYBEiABEiABEiABEgg/gRiIiyFGkYwa6bc97wYqlqanItmIu/nboLYQRPHDg1wK4q1sOQnjtgxVAArEmHJG1AVgVTxH++ZMmWKKW+skoXJlp3gtrNWueeEupbf6l9o4+N310vePLmd5vyWabdXZ3MKqh0/dnYMEliMFL3uDrtKsgJMuxrwOcAE79FBI2Tvvp9dZ+2++D2PiKvjdZkzDUQiLPmtzoRnFq6Ufskv1snyZ2e5LKu8k8aUxsHx6wfy/jh0SG4qUdp1GqsnXnn5Za48+wDCi528qxlGM9FOjrBkro1VtrCyIoQ9Oxn3NTsP4mOnHqcCmiPoc5MGdVxikZlkf/3Nd1KuyilBHoHh4So7Z8Fip8lhg/tK7RpVnONYP+PR3H/TiUi5R9N2JMLS8ePHpUPXfq6VHE2fzBbfwXtK3iH9+3ZzfWfM+XBbv3fGz2XStBNOWPIG70Y9b9B401a4baTc0U4shSU/Qfid11YJBCZvgvv0g8od1BubLlScKm8bPCYBEiABEiABEiABEogvgbgIS+nBWgnY/SbywQIb+8UpwXLICMjsTV7XiJRYLGFidM+D1QIECe9EIxJhCRNdTILsNHxIP4GFRCzT0aNH1TLf1QP63K9nJ22J4XctTMQRKHn12vWu03aAYnPCL2Byx7bNBKtm2QnL3ddp2DpgwmKLOSjvXZkLeaFWdcL5YOnvf/6RM3Ll8j3t52ZmWwMtff5F6dlviKtuKBEoEmHJzw0qWOwUv3hGcA3a/M7Lki1bNqdfsZ78Ow17dvysp15YOk+8q3rZ1R5p3EbefX+zk4X+2yvIRTPRjlRYCnXPsVIbVmyzkxGJTJ5fcH64uuJ5QLLjm2ESbrvI4V5my55NbJcuP1Ejls94NPffjDFS7tG0HYmw5L2HsPy6SIkbu/fs1a6511x9pRI7zjPdTNbWTwjy+26h8T///EvuvK+iyzXPa7HkZ6GKGF2IYxRtipQ72o2lsATrI1gh2clrZWvOvfn2e9KoRUdzqLfRLvjgqswDEiABEiABEiABEiCBNCcQF2EpPVgrgXQ0wpLff+xjmXksN28SJg39Bg4LWHo6EmEJE+AB6hdzuIuZ1YQg0PTpP1Sef2GNuYTe+gkDiE+BOBV2+vTDjXLGGadEDr9YTSiPYLYIrupNCET96utvawse77lwx1h+G/FgvKlDGwhALVyWS5iYt+/cV2Dp5E1+Fjt+wcxhdbBm5SInNsqen/ZKg2YdAkQltO8VluBqhV/Y7ZTkFjNOucUUtLP1PlbW27Vrj2A1LDthslquSl29glqvbu0Dltb2c8mZMXmM3F+qpG5m03sfSr0m7ewmxWtxY5+MRFhCecTf+eTTz+2qOi4UghQbCzKsLNWmUy/XqlCo0Lp5Q+nZ1d2nWE/+XR2zDrxBjHGPEZjYvB9WUWfXb5K/YNZEvRIfCkUz0faKEqjvFW3Wq2enpXp2wKhpwzp6NTeUM2n8pOkyftIMc6i3Xgs8ZHqtHO0KDevVlIH9Tj2fXi522WBWiLF6xnGtaO6/6Vuk3KNpOxJhycsqlBuo6Wu0Wz/xFm3Y7zaOd6pvRvM2XQNW5vQKSyjr5YC83t07SLNGjygL2cw4dBL+ncBiEqXuuVvy5c3j5GMnUu4oG0thye/bhGt4V2r8/oftUr9p+4AfIYL9aIM2mEiABEiABEiABEiABNIfgTQXltKLtRJuRTTCEsSP628pFXAHWzatL5crNy9MGhAnxevqhAqRCEumYVhjlLyrhGCygF9yIWJ4E5b29ooacxcukUFPjHEVxVLnD6uVsRDLx6QRYybKtJnzzaGzRVyW++65Sy668ALZt2+/XtXMuNf4Xc+pGGQHlhWYqNjLV5uixvXkgvPPk+/UqljvKEHFu2Q2ynbr1FratToVlNjUx9ZvIm7a/XH7zpCrsnmFpRMnTkit+i1960BYuUnxy33WWSpo+y59T8yKgPZy2GijTqM2juUIhMK6tappFzIw/XjLNoGbltfdwxYZIEz9r/QpFyYzXsTxqlyhrOz5aZ961i5x3Nj8Jm+P9uosTRvVNVX19u1N72uRzZWpDhAX7Oabisl///6nXYW8fcMY1q9+Ti44P7+rqnfSmxqucH6rA8KyDhZ2oZKfZaEtzEQz0Q4nLOFdhwuPeXYhRlapWE5uKHaN5MieQ8X2+VB9Y551zqPfwVZI9IurY8bptVrzswYxZatVLi9jhg80h842Fs+4aSya+2/qRMo9mrYjEZa8Fmx4l+BmeL56prNbVnjZs2dX7/iZcvbZ+Ryx1fQ9kq03qLqpA5fTq64sKhCfzHfDnDNbP2HJjxfK41uO9wBxoA79+adq91vtcokfDeAWCUHbTn7trFwyR4pdf41dTO/HUlhCg36iKvLxb81llxSR/Soe2Qq18qJ5f3AOCbH/np07JcDFPOks/5IACZAACZAACZAACaRHAmkuLKUXayXcjGiEJZSHNQkmi9GmaISlcG0Hmzj6xTVCW95rw+WsZr2WARYsoa6LuDAvrVgY9X/oY8IAZl5rmVDXMucgjkAkCZZCTa7tOhBHvBMXr7CE8sFWj7Lb8u7bgoVfLCNvee9xzYcryYjH3VZdfrFJ7Hq2iBOpsIT64yY+LRMmz7SbCrsfzGog1pN/v46sW79Ruyja52y3QTvf3vdbZQ3PwBYVpytLlixRWXCEE5bC3Su7X2Yfog/eYW96TVkGIgaaX9q0cbVL3PMTz0y9kU88FtTCMKXPuLlGNPff1IlU4Iim7UiEpWDihumXd4sYQFWU8FH2wftcccW85bzH3yqBvIwSGZOT/IQltOMXeD9c+2+uXykFC5xaTCBS7mg31sISxMwGzdq7XFPD9R/v6isvLvaNxRSuLs+TAAmQAAmQAAmQAAnEj0CaCkvpyVoJyKMVlrbv2CX3lase8m5hYnLfvXfJM0tWOOW84g5OeCdQ+BXXu+Kc08DJHfz6jdXVcubM4T0liMV0Z6mKAStR2fFZTCUIEj37DpZXXn3DZIXcQlhaoNzlzst/bshyfidxrSdGjHPixfiVsfMwsWjTopF2wQrl8gSxCNYifhZipj24sc2dPkHqKksiu5yfsIQ6CIzcplPvAKsi0553a8cBwcpck6bNllnznvUW8z2G5criBU9Lrpw5Xee3bvtMqtVu6sqzD5JEkg3aHSYaYQkWZFOUq+SY8VPt5nz3cY2xalWx0vf9z/e899m1xS5vhUgm/946OEa8rRWr3C6gtnWXXx2T57fC1OL50wSBv6OZaIcTlr759nsZNuopXxdO0xd7W69OdUHQfb/kF6gc5fyWrj9x4l+56Y4HAgRTlN+4blnIVc1S8oyjfaRo7n9SjchdsqJpO5JnC+/9w3Waud5/06dwW8Q0QmyjSBOeLQRh9wrZdn28W/eWvNNlvRRMWIIwM3HqrABXSrs9ex9tT580RlsimvxonvdYC0vow6FDf0qvxx6XtS+/ZroUdIt/q6ZNHCWXX3ZJ0DI8QQIkQAIkQAIkQAIkkD4JpKmwlJ6slXA7/ISlj1Sg4rPz5Q16t2At0LPfYPn0869cZfAf9bWVi0KXDq3kxx07pVL1hs55P8uUmsr1ygTcRd1P3n9V3nn3A+nRd0jAJAguXh3bNpdHlGubN76GcxG18/HWT3W8F7hF2OnLLW8GxH6BZQcmzlg1DfX8EmI5IY5U6fvuCXldv7rePARUnqtWroIlil8CA7ADQ+xHkiDmtFcrPvlZkUGEGzKgl76XXkszsD5Lub34JbhgzV2wROY/szTgPpjyEJQQiNbPnQSufRMmz9CxqfwmmBhbzy7tVOykKq6A2KZtbBHPq13nPsr1bredrfdR37in+blnDh3UR8dlCqh4MuPDzVu1KyRi7vgluE+2aFovpDhhP7tow7u8vd1uJJN/u7zZ966cBVEI4lAkyS+eUNeOrXRcKb84Vi8rCwm/yWw4Ycn0BS6rU2fM830OUQYTZljfed1XTX2zrV63WcC7iPuB59ibvLGDcB7fiQ/eWustGnCc0mc8mvtvLh4p92jajuTZwrewWeuuybKaRN8jFTPNOBEzqIcS7f2+qfgmDejXTbn/bhe46JkUzjoT7+ysec8EFWfwY0YL5ZJdu0blgIUDIuWOvkQqLMElGIsz2GnKhBGC76Jfwr81K1atlemzFwj+/fQmPLew/mzasG7E335vGzwmARIgARIgARIgARKIL4E0E5bSm7VSSrDjl+QfVByf71T8o8zKvabopUX05NEEQk5J26gLl5UvVewMxFkqVPAiufrKywOEoWDXQABx1P1Zxa+AZcPFhQsIBKJQfUN8qF279whWBUO5S4tcLEWKFAqwpgl2zWjyIYYgFhTiUdkJk+9Fc6a4XH7s86H29/18QFsb/X7wDzlLCS9Yrh1xjVKSwO5bdX9/2rdPr+SEld4uU/e5cKEC2qUqkrbRry+++lrXh1hZqGABKXDRBUEFJbtNXH/3np90DKoDv/yqY79cdOH5+lmAS1dKE/qGSfDvBw+q5+SEcp+5SIsruXOfldKmM2x93LPtO3bquGiwEIOFH9ySzj/vvBQLs6kBNRbPeGr0K1Zt/nP4sFSt2dgVpw4WY/+qmGL4DkHwUH8E79fX337vGw8u2MIG4foI8e7Lr76RvT/vlwtVLLnrr7s64m94sLaxmALix+1WsdayZc0qF6jV7PBNypsnd7Aq6S4f35wdu3YrS6a/9Kp8eD+uuqKoZFXjYSIBEiABEiABEiABEkhcAmkmLKU3a6XEvWWJ33O4cJV8oHKAywh+eZ80bpgSwq6JWLxJfBocAQmQQGoQ8C5oMPixHlK/bo2gl9ryyWfKbc7thhoqZlXQhniCBEiABEiABEiABEiABDIYgTQRlsA0R5FHMhhaDjcUAayQBHeeYAkrA115+aXyxx9/yrbPvpCpE0ZqS6Rg5ZlPAiRAAjYBr7vg0oXTpfjNN9hFXPt+QdGXqDhot6pvERMJkAAJkAAJkAAJkAAJkEBwAmkiLFFUCn4DMvIZBGdGkOZIUjhrg0jaYBkSIIGMQ6BV+x6uBQrKlblPxo4YrF2wvBT2/LRXmrTs7HKbQ+yf1195PiBukbcuj0mABEiABEiABEiABEggoxNIdWHpxMFtkiVvsYzOmeMPQmDjm+9I3/7DggbKNtUQ+Hbi2KHmkFsSIAESCEkAqzR6V0GEWITFFBCbCLHK/v77b/no420BKxCi4WhXhQvZGZ4kARIgARIgARIgARIggdOYQKoLS6cxOw4tRgSOHz8uL655RebMXxJ09aZgq2PFqAtshgRI4DQj8MehQ1Ku8iNhRWvvsLHy4uDHekq1yuW9p3hMAiRAAiRAAiRAAiRAAiTgQ4DCkg8UZsWPAFbTwipNv6sV6o4eOy75zz1br64Vi5XQ4jcqXpkESCAeBLA629Oz5suEyTMjujzEpH49O8k5yrKJiQRIgARIgARIgARIgARIIDICFJYi48RSJEACJEACCUpg1+6f5IOPtsjOXXtk+46dasn7PZItaxY55+yzJX/+c+SWm26Q228rLhecnz9BR8hukwAJkAAJkAAJkAAJkED8CFBYih97XpkESIAESIAESIAESIAESIAESIAESIAEEpoAhaWEvn3sPAmQAAmQAAmQAAmQAAmQAAmQAAmQAAnEjwCFpfix55VJgARIgARIgARIgARIgARIgARIgARIIKEJUFhK6NvHzpMACZAACZAACZAACZAACZAACZAACZBA/AhQWIofe16ZBEiABEiABEiABEiABEiABEiABEiABBKaAIWlhL597DwJkAAJkAAJkAAJkAAJkAAJkAAJkAAJxI8AhaX4seeVSYAESIAESIAESIAESIAESIAESIAESCChCVBYSujbx86TAAmQAAmQAAmQAAmQAAmQAAmQAAmQQPwIUFiKH3temQRIgARIgARIgARIgARIgARIgARIgAQSmgCFpYS+few8CZAACZAACZAACZAACZAACZAACZAACcSPAIWl+LHnlUmABEiABEiABEiABEiABEiABEiABEggoQlQWEro28fOkwAJkAAJkAAJkAAJkAAJkAAJkAAJkED8CFBYih97XpkESIAESIAESIAESIAESIAESIAESIAEEpoAhaWEvn3sPAmQAAmQAAmQAAmQAAmQAAmQAAmQAAnEjwCFpfix55VJgARIgARIgARIgARIgARIgARIgARIIKEJUFhK6NvHzpMACZAACZAACZAACZAACZAACZAACZBA/AhQWIofe16ZBEiABEiABEiABEiABEiABEiABEiABBKaAIWlhL597DwJkAAJkAAJkAAJkAAJkAAJkAAJkAAJxI8AhaX4seeVSYAESIAESIAESIAESIAESIAESIAESCChCVBYSujbx86TAAmQAAmQAAmQAAmQAAmQAAmQAAmQQPwIUFiKH3temQRIgARIgARIgARIgARIgARIgARIgAQSmgCFpYS+few8CZAACZAACZAACZAACZAACZAACZAACcSPAIWl+LHnlUmABEiABEiABEiABEiABEiABEiABEggoQlQWEro28fOkwAJkAAJkAAJkAAJkAAJkAAJkAAJkED8CFBYih97XpkESIAESIAESIAESIAESIAESIAESIAEEpoAhaWEvn3sPAmQAAmQAAmQAAmQAAmQAAmQAAmQAAnEjwCFpfix55VJgARIgARIgARIgARIgARIgARIgARIIKEJUFhK6NvHzpMACZAACZAACZAACZAACZAACZAACZBA/AhQWIofe16ZBEiABEiABEiABEiABEiABEiABEiABBKaAIWlhL597DwJkAAJkAAJkAAJkAAJkAAJkAAJkAAJxI8AhaX4seeVSYAESIAESIAESIAESIAESIAESIAESCChCVBYSujbd3p0/uf9v8ixY8f0YM4/P79ky5o1TQb2z+HDcuTIUcmWLaucecYZaXLNjHaReN3bROT833//yedffCPf/7hDDvzyq+TLl1euubKoXKX+nylTpkQcEvt8kgC+b3gXkHLnPkvyqP8zkQAJkAAJkAAJkAAJkMDpQiAhhKXde/bKpvc/lsIFL5JbixeTLFmynC78OQ5FoFmbHvLFV99qFgtnT5BLixROEy5deg2W9z74WCpXeFB6d2ubJtfMaBeJ171NNM5//vW3DB01UTa+sSmg62tXzpd/T/wr6ze+pb99pUvdrcWJgILMSLcEvv3+R2nYvIvu33XXXinTJ45It31lx0iABEiABEiABEiABEggWgLpXlg6evSo9Og3XP799189thrVysu9JUtEO06WT8cE4iE+HDr0p5St0kBTGT64t9zDZypVnpB43NtUGUgqN/rUlNnyzHMvBFzlmqsul5lTRknPfkPlrU0f6PMVyt0v/Xp2CCjLjPRLwBaWrrriMpk9bUz67Sx7RgIkQAIkQAIkQAIkQAJREkj3wtKu3XtlxJNTnWHdWOwaad64tnPMncQnEA/x4dXX35FHB43S8Na/uEjOOCOXAxJuSDt3/aSPr7n6csmZI4dzjjvREYjHvY2uh/EvDWulMpXqOR2pUfUhqV2jkvzzz2E5oQR1CBGlKz4if//9jy5T4KILZOnCU99Ep2I62Plh+075/fc/JGvWLFLsuqvTQY/SRxcSRVjity99PC/sBQmQAAmQAAmQAAkkGoF0LywB6OBhE2T/gV812zYt6su1arLPdPoQiIf4MGjYOFn3yuty1x23yOihj7pgLl62SsZPmqXzlsyfLIWUCyZT8gjE494mr6fxq/XVN99Lk1bdnA688fJSLcw4GWpn5txn1f8X66z2rRvJI7Wq2qfTzb6xrDpbxYdavXxOuulXvDuSKMISv33xflJ4fRIgARIgARIgARJITAIJISwhqO3effslX948kitXzsQkzV4HJZDW4sOx48elfNWG2gKkT/d2Uumh0q6+zZjzjMyat0TnUVhyoYn6IK3vbdQdTAcV3nznfen16DDdkxK33SxjR/T37RWsSTKp/5177tm+59NDZuuOfeSTT78UCkvuu5EowhK/fe77xiMSIAESIAESIAESIIHICCSEsBTZUFgqUQmktfjw0cfbpEO3pMn7C8/NlPznnuNCN3r807J85RqdR2HJhSbqg7S+t1F3MB1UsN0yq1UqKz26tE4HvUpeF2rUay17ftpHYcmDL1GEJX77PDeOhyRAAiRAAiRAAiRAAhERiJuwdPToMdmvfoH/5Zff5Nxz8slFF54vmTNnjqjTkRaCpdOOnXt0rJKCBS+U3GedGWlVHSwccXYQ5Pnss/MK4pqk5pLfJ06cEMQnOXjwkBY6Li5cIKrrgedPe39WLoO/yFlqnOhvtEtaI0A6LMN+3n9Arz51wfnnyfnnnRsxM1Pw94N/yPc/bJcc2XMIxoHltUOlaMWHw0eOyG4Ve+u33w9KwQIXyoUXnBcVqwmTZ8uzS18QExjZ27fHBo+WDRvf1tnRCEuIlfODWioez/ElRQrJmWec4W06omPD7/zz8ksBNb7MUSw1j3uIif2+nw9oLpG+V3hXwPOnn36W4+pZvPSSwlE/P36Ds+/totlPaS4oh3v49Tc/qNhWOeWSiwsHuH75tWXy4jVGvFt7FJ9s2bLqlQtjZT2Z2sLSvp/3C1bWLFjgIv0+R/Mdi3bMJhZUvC2W8N3+5rsf9LcU34hoVhL9Q9UFryPqGcWzmS9fHvPohd2ab+jefT8rC9u8UuTigvra+C7Ua9pJ10/PwbuT8+2zx5w3Tx415kJRvc9hobIACZAACZAACZAACZBAuicQsbA0etx02bk7KaBxx7aNpeilFwcMDuJI195P6HxMvkYP7RtQBv/RvnzlWvno408DzmECUPPhhwLaHj5mqhZNUKFX11ZaNLErm/MXFyog3To112WXqWt88+2PzmpyKH9e/nOkXasGSsgK7kry4/ZdsnjZatl1cqzmOn6iV37lkvJY75StzvTtdz/KlOnzZdP7m82l9NYOJm1OXFH0UpkyPomvyUOg3IWLn5fnV61zgvuac4gf1KhejbBBdHHflr+wVhYvXaVFCVMf28svu0Tq1a4qZR+8184O2EcbcxYslVc2vCE7du1xnfcbS49OrZw2bfFh4ewJetLuauDkAQSX+YuWBayehfYfKnOftG3VMGygbQgo1eq0UOLZL9K2RQOpX/dh3TqEmL4DRsjBPw65GHj7PqhfV7n7zlud7n3x1bfy3PLVyv3nC1c9FAC7gf26yGU+7woCM1eq2VS301jdo7q1qsiSZS/Ki2s2aIHRXADXL31fSencvlnQsf1z+LCsWPWyvPHWe7J12+emqrNt0qCWNG1YK+jk+p13P5IJk2cF3DeIig9XKS+1q1eSHDmyO+1Fs2PfW4h0EL1mzVus3aXsdm65uZj07dFeC8x2vtmP5xjf3vSh7jPutZ0uLVJYenZtLTcWu9bOjnh//WtvybyFy2TP3n2ud9c8c5dfVkSmTkhykcO7teDZ5brt7p1aSrkHS7muY59fs2KeYDVNuHO+/ua7rucSgs/QQb1Un69x1fceRDNmPD/TZy/SwiTeK5PMOMzxcwumaEumY8eOSflqjXR2juzZg8Zi2vbZl9Kl12Bd7p67S0j/PknCjGkPloe9Hkvi8+Tw/nL9dVdpS8M1614T773q3rmVPFy5nKnqu/3u++0ye/4SgdBnJzBr1rhOyPr4rry07lVV/zkXb7SDe1W9anlp0a6XbjY5whJ+gKndqJ2uD2YrFk9XAmc2fWz/QYyrzVuT/m3tp96n++69yz6t9/FvDQQkpGaN6sj9qkxyvn2hxvxAqbvVN6u5jJ88U/B83Hl7cRnSv7u+Jv+QAAmQAAmQAAmQAAmcfgQiFpbsANoQlq4oekkADYgLnXsOcfKfGjPQ2ccOVjUaPPwp+UtZdoRK5cvcKw+Vvc8p0v/xsfLbbwf1MYQlbzBlcz5XzpxqNaUKMm/R8y5ByWlI7WTLmlWGDe7pO1H+9LOvZNqsZ+ziIfchNo0f5R8PJWTFkydtl6xIymOihhXMTPpaBf3t+ehQLZKYPL9tp3ZNtTjgdw5iDVZH27wlUOizy0NY6t21rS+3I0eOypDh4wMmZHZ9774d28gWH4IJS9//sEOJloNDjhVCzpMjHgtwbbOvDSGvYYsuOmv+jHFSVE3ekWCdVrthW70f6s/QgT2l1D13Koug/TJm/HRnCfhQdaZPHCHXXXulqwjeBVh3IMFyCsk7GdaZJ/+gzKih/eScs/PZ2fLC6ldkglqq3qwY5jppHdxb8g713CdNbK1sXX/4mMl2VsA+BCawCmd5FlBRZdj3tvhN14d8zvB8jx85MIBVvMYIS4ypMxfKgmeSBB2/8SGva8cWgpXcok12oGS/uvb7PnXGAvVdW6aL9eraRqpULOOqYp8fN3KAPDlheoBQaFeYNXW0XH1lUTtL7ydnzKvXbpAnRk4MaMubsWrpbG2dCuvKUuVqOaffefV5Z9/e+XjrZ9KuS1Jg/f/dfbuMGNLHPi3vvv+x/iYgE8LRBx9uldffetdVxj4IdZ9eU2JSv5OrRNp17P0yD9yjfkjoGCDQImbbyCenyOq1r9rFg+4nR1hCY8bNEPvTnhoW8IOB/U1BmQrl7pd+PQN/+Hhq6hx5ZslKFJEnBvSQy9UPFtF8+1AvkjHj+TXfpeSOGddiIgESIAESIAESIAESSP8E0lRYeua5VfrXS2CBwFPyrlv1r8yHDv2lLT42b/lME+vdvY0UVK5cJhnhCMehhCVTHltYWFyvJvNwCfv086+Vi9JO53SVig8qK5C7nWPswI1s6KhTE+zbb7lRyimBK0f2bPL+R5/Iyhdfccr/7+7blFvdWZJdnXugVOAvwk7BEDuwiKrV4JSQUbdmZWWtVVFbpbzx9ntiT/ZhbZJP/WqeXf1CXbnCg7rVX3/7XRo066ytBJCB/4ivWa2CXKUmiz8r65t16193CRWDH+umLV/sLmES2anHQGU9ts3JRiDr4jcVk+PHj8nb6pfmjW9scs7hF39M4Lxp2OhJsuql9TobvHuqGDHXXn2F7FXiy8QpcxS/rfocfvlvosaCBAsE42Zniw9+whKs3Oo2au+MFZZpsMIprNzs4Lo3R1kJIIYJUrDJlD6p/sxduFSmKbEA116xeIbJFljEwNrg+LHj2k3OnEB7uNcmlVMC25Vq+Xdc9+G6LU22lL6/pB7zhRecL59/8bWeZMK1DAnWOE+NSbK8MBW8k0CTDwHo9ttu0u5vHyhutvUE7g0EOTtBQFi64iWdBQsaWKmhfxBv33z7fZcl3JTxQ12WKnAXKlulgdMcLBfuV5YGF5yfX2C9sWjxCi1OQMSAmJGcZN9bU/+G66+WknfeJvmVBeFXX3+vLARXmVP6fV08b5Jr8h6vMS5askImTp3r9K1OjcqaL9yqPtz8ibZuMScXz5sshQtFt3oghOG1amVCWJkZURH3EAG8keBq16JJXb1vC0fhhCVdQf3BNwGcb1DWSbuUcAr3T5MgksCazpuSM+btO3ar7+PL8tvBg3qlRdMmeNmpWePa2j00NYQl+zrgV0K9QxC85ytR0Igb+P6sXDIzwE3rM/XvQ4v2p0RXvEN45s/Jl0+7002cNtdpA8JSeWUdaaenZy1S1prPOVn4tpQpfa8UveRi+V65wC1T8dpMH1AouSKLceFFG62a1dPWqNg3yRbakIfxvrhsdoCbcMPmXZzv5UvL50qOnNmj+vah7bQaM67FRAIkQAIkQAIkQAIkkP4JpKmw1HfAKDn051+aSoO61eT2W290EUI8JJy/7porXPnRCktw82jSoIZrcjpl+gL5/MskVxaIH32UeGWndevfUG5ISb8436Nv+aoAAEAASURBVHTDtcpF4NQv6igHkeVZJYwh3Vr8BvUf9UkuVDojGX8QHBqBUpH8BJv1r74l/R8fo89jgtaxbRO9b/7AysiIDphAQLiwXa4wqXp8xAQnVhAmmcsWTZO8eXKbJrT72+hx05xj/HrtdZ145rkX5CllEWPShNGD9PjNMcSpMpXrOxOnpQunulwV8ct24xZdHfcuv2DZtvjgJyxhHC8p9xYkTJQH9+/mcgtDvJ7OPQY67lV+bZj+Yll3LO8O17MOrRubbNe2TsN2jrVHqBhLcJuBa1dz5SaDeFR2wspYWCHLJG+fvMISJqNwFSl23dWmit7CSgWigkkQw4wghzyIV12Vu9Ajyl3xAeUyZ8djgqtK195D5L0PPtbVIX4NfrSbaUoLT8aVCILGglnjXZNQ3Lv1r76pXGXu9rVUcxoKsWPfWxSDu1vF8g+4akCk6dh9gJP3uHoOIXKZFI8xQiyp27i96YJMfHKwFlydDLVjr+YWTKixywfbjyTGUrTCEizkYOFjW7h5LYvefGWp6xuZ0jFj1brKNZvpYeKbtHr5HN8hp5awhGuOHvaoYwGIi+/YuVvqKFHaJK+lD57xmirguHHha9kUgk1113sA60TER8I7i3cPLn3GDQ0CbIPmnU3zWhQco/pgu07/8uvvgu+ssaZKrrAEF7Zu6n1G8hOrJz89T7lLuq2/Fswc7/p3ARaqD510Q/TrRyTfvrQcswOWOyRAAiRAAiRAAiRAAumaQJoKS937DtW/IoNI904tdGDTSOhEIyzBgqhqJbebCK4BF6jxk+foy8FlbuQTvfW++TNm/Az5cccufdizSytf64NOPQZrFzsEAR86qIepmqwtJvSwKEFaqCb0l6pft73JBMLFpB/ChEmIt2Hi8yBv5BN9teBizpstBJeK1Zs4oo83zki9Jh0dwSeU0IK4HW9t+kA3iwk/Jv4mQaSBWIOEuBp+cTQQ/2nU2Km6zPDBveWekiX0vvljiw9eAQYxpB56uJEuCnHMxGkxdc1285Zt0r5rkltiGxU7qcHJ2EnmPLaIo4T4SkiTxj4uN994nd73/olkcuWt43eMSaCJneUdt1dYWrdyvq+rGcShmvXbOHFbWjevLw0fqe53Od+8z5T1lInt4n2OXlGi0YDHn9T1grnK+TYaRaZ9b/3EGdMUng88J0h+k2ZTzm+bGmO03YWaN66rY1T5XbtNp35OXCuvUONX3i8v1sIS3MYgIHrjYpnYRsZ6xivypnTM8RSW8GMB3mlY23lT976PO5ayXtES3zV835Dw3I1Xwrktzpq2EK9qxpwkN2lbnLKZQXSa8/STKmh3HlPN2cZiVTjvN+PVNc+6BHbzPYdVK9xHkbzuf/g3x4jJ+I7ge2KnSL59aTlmu2/cJwESIAESIAESIAESSL8E0lRYmj1/qRNjBQG0WzSt43J5C4YpGmHJz1UO7f6pLKH6KIspk7zxn2zRa+jA7r6TfNviylvftBvptmrt5s6v5Ai2a1sSmTbMRAHHdhySFWoCPvKkUAOxYL4SpvwmQ6iH+DCTVXBwJAQZNsG/7VWKcM47yUSeSQii26rDKesbe0KzTrnyDBo2TheFO1+HNm7LKpxAUOne/YfrMjiPcnayxQevsIQJknEL9LPcMu0gvtf/HqyhDzGx6t3tlJuhKQN3nREqFgoEqrUr5ge4xJhykUyuTNlgW1gGjJs4U15WwcyROrdrJrWqV3SK25NE9MeOneUUOrlj38Nwrn52XQgJ3yhBtXnbnk62/Rx5BUr0EUGGo1lBy2k4yE6oe2tXsZ+xUNYudh3sp9YYjaiLa7z0/FxfsQDnjGsl9pc/87ReiQ/70aRYC0t+rnKmP7YblDfOUkrHHE9hyWuNZ8aL7STlyrZQuXUieePNDXxirPOOwsILopxf2rrtC2nTqa8+NaBvFylb+h69X+Hhxo6Lbg/lAlytUlm/6tr1DOyR/CyFfCv5ZHbo1t9xXZ745BBlRXe9LmW/y/ihYcrT8/WPBnDrGz30Uacl253Oa32KQpF8+9J6zE7nuUMCJEACJEACJEACJJBuCaSpsATrlolT57lg4D+yEe/o6quKuvLtg1gIS7D86Nh9kNPshNEDXO4OsGaCVRNS53ZNnKDOOkP9sQOT45fplK4GZy/rPGvKKDX+pADO9vWMUGILQjgPocgEFK75cAXpolbfCZaCTdhttwrELHpWxbUJlmzRBmVs9zAE1a7frJOuCjc1TGq8CYFi8Ss3kj0Z0hnqTyjxwR4rgmbfq2IzBUtG4MJkC9fxJmNBhMDwj/bq6D3tHEcyuXIKqx08W59/8Y18/Mln8omagGJVJmMVYso1a1Rbr8BkjqMRlmyrimBjQ7sH/zgk73+4RbYpN7wtn3zuxFEx18T2tTWLXZYstjUHzsPyo5aK9VW+TClfcRVWcK+/ETxA8jVXXy4XFy6IpnQKdW9NGWwRR6ucFe/p9XVLHHcju1xajPFPFZ+qTKV6zmUH9Dnl6uRkntz58ONPnKDNxgouWkZpKSxhlTXjGokV5xDvCimlY0Yb6VVYgnsY3MSQvBZ/xjUW5+Aaa7sOIs+knw/8olfvxDHiXiHGG+7z/eXrmCLiF6TfnAxlsYQYT95VSE09xPG7V333zA8H9rcUK7rhu4Jku06vVdaPM+c+q1erxLmNa5foeIDYt3+ssH8gwDmkcN++WI056Wr8SwIkQAIkQAIkQAIkcLoQSFNhCdAQrHfazEV6VRkbYh4V+6dCufvkrhLF7Wy9HwthCQ116DZQt4c/XmHpFRXT6IXV6/X5Sy4uJN06ucWaF9e+qgLTJlmf3H/vnVKtsv8v084FwuzYVkd+Kx4h0C5+XUbyBmqFgAJLISTvL/A60/pju38h27jrINg2gm4jBROE9MmTf+wViWD1ZJZY/1eJKpiEGyHFK5JhwlpbBSk3gay9wgaaDyU+2GO1+xNqH6vDzZsx1lXEnjhjufVS/7vDdd4+CDe5MmUxdixtjiDXP2zfabJ9tykRlmxXL4iadtBxXGz3nr06tgosssIlL3/Eu3nyqemO64xd/+Eq5aVJ/Zpy7rlnO9n71QS7Si33u+GcVDsIIN+lw6nzoe6tXQ/i3N0PnIpb5rX+ScsxeuPy2P0MtT/icWXxctftEi2jtBSWbCHRdulK6ZjBJb0KS7YY43WTta20Qt1b+5yxzMSCD9UfObWYwYbVz+iA63ZZsx9KWEL8peUvrDVFA7ZmNT2csFe1hCgIcRDJLKBgrKHsVe6M4IlvMKyNkLA4xbhRA/W+/Sfcty9WY7avyX0SIAESIAESIAESIIHEJ5DmwhKQQYR4XblHbdj4jhNzyaAsdt1V0rh+dfULa3aTpYJYj5Xffjuoj/1c3cKdNw2FEpawitagoRP06mAoj2XoKz30gF697r0PtsgbJ+Mh4VyPzi2VVUYB7CY7wTWvsYpNhODPSIhdVF/FBcJqeRvf3KR+cV7stO0NwIqg3viFGskbQ8OpdHLHnuwh6/WXn9PXMG5hyIskvo494fBaHdkxlODW1b1TSxVA9wrl6ndAu4MZ0SWYpVAo8cEeK/oK66pw6corL3MFqUZ5rG7Xd+BIXfWVFxfq1amCtWOP1bbOssvDiuuxIWNcq+ZB9MFqUtddc6WKmVVYEMPIrCqWEmEJq/bBBQbJa12GJdl79HvCEfZQBpZd9yiXnstU3K4iSiS9r3ySVQPOeYUl5CHBagJi5oaNbydlnPwLtzQIcQiIj2QH/z1ZxLXxWtCFurd2RQSbt/tpT6bTeox4XmHZYVIkzxzK9uvVQQdfj5ZRehCWUjpmjN/+1oRyZ0yN4N2hXOEiFZbw/ubMkQNDCZkguMKtFd9uCO4mvb1hucsK1uRjG0pYsmMW2XXMvv0ueIV8uNBi9UDE0oNw1KheDf1DBFYNRR4SVhVFnDAED+/Tf4TOa9+6kTxSq6ret/+E+/bFasz2NblPAiRAAiRAAiRAAiSQ+ASSJSx1aNNIrrz80oDR2+5iOBkuDhFWFIPLDlZj23/gV6c9uMZVqfigcxxOOAp33jQUSlhCmW++/UEmTJlrigdssdJPu1YNfMceUDiCDO8y194qEGnGjxwoWOHJTvZExPx6bp+3921rFzuWj+1e5WfhY7eB+1Sy9KmA0c/MmRgQeB2rsr3/0Va7mmu/3IOl9IpgWbNmceXjIJT4YI81nIgW0LCVYVaWu/P24jJm+GPWmcDdcJMr1PCulgfxBWKOvRqUPaFNibC0WlnLPTHyKd1RO7D1X3//LbXqn7IGg+Vbz86tXRZGqHTX/dV0XfwJJiyZAlgd68U1G5xAxSbfdqcxeZFsQ91buz5cgWopyzaTjGVdPMZou+XhnXl51ULHFcn0L5bb9CAsxWLMyRWWggkyEBTbdUmKD+Rn1fnu+x+rVQ8H61uRXGHJjjk1Z9oYuVK5ZkeasKLcvWVqOsVfWq5iceXL4xzbO6GEJbtcJPv4FuCbgIQ4SRDEzMp345UV0m3KGgnJjO0a5WY9U7lbY3VPfLeQZquxwrrJm8J9++I1Zm8/eUwCJEACJEACJEACJJC+CEQsLA0bPcWxrmlcv4ZaQScpaKg9nGiFJVMXbjBLn1/jWAUhsPfAfp3M6TSxWMJ/MA8bNVkLXLAauvDC82Xnrj26D+jPFZdfotynSkjBAhc6/UrJDoIOwwoFy9Lj133Epnnn3Y90kxCSbr7xeqlQ9v4AAQcFlq1YI2MmPK3LmkmDPvD5Y5dFu4gDgmS7VOAYcTny5D4LuwHJWxa/kmPCbZItUkG4gdvSDsUO47qleDG5rfiNUkEtMW/ihJh6ZhtKfLD7H2zVOdNOsO3x4yekXNUG2qonVGBjU9+eXC2eN9l3hcAW7XtpKx/UMS5Qpr7ZxkpYGjpqohZ70C6CAyNIMBLiKXXuOUjv4zmY9tRw34Dk0QhLujH1B0JP+66POQHmx40cILffepM5HfE21L21G1n7ykYZPGy8zkKcp6ULp+r9eIwR36MHLfdOr8Wg3e9Y7KcHYSkWY45UWPLGbAu2ImJaCEuwYoQ1I1Ko4NvB7rO9CEOoVQ9jKSzZ8ZTgJo24UMatecNLyh1PrXqKNEXF4puvFm9AAuOufYbob5YWS19Y4BLBdSH1J5JvXzzGbPrHLQmQAAmQAAmQAAmQQPokELGwNGX6Qvn8y2/0KODSVL7MvQEjelW5tj2/6lScl3AWS3YDcIXBymwmjRnW13GHC2eRFO68aTOUxRJW/ZkxZ7EuaiyyYKlzQv0fQlOskz1hNkFfMeHCNbNlyxbycnv37ZeH67Z0yjw1ZrBeKtvJOLkD8apq7RZOfKOObZsIVlZDwkTSXsbeDgR7srqzsVdO8ovHZMSDErfdLGNHJLlsIchrJG4luIipj33vqnDesXpXskKdcGnzlk+1SIJyiE+EX/hDJTugL6ybIJbZCe4oJa14QMa90C6D/XmLlsnUGQt0dnItlrwxTZ4c3l/uuP1m3aYtXJmAwvqE9cc7iQ9nsWRV1QGAjUumt/92uVD7oe6tqYdn/pHGHbQYiTx7GfR4jRGrB5qYVX7WMqbvsdimB2EJ40jpmA+pAOxlrQDsLyvx4qyzzvRFZK8s5mcphGcCYomxzPG7B7GwWIK76oDHn9R9hBC+ZMHkkG6y3sHYwdBDuRTbIpmJg+RtK9Jj280Nq77lVj8IIOaeN7D/B8qCtFOPgbrZxwf0kEcHJa2KGkqgD/ftQ2PxGLMeBP+QAAmQAAmQAAmQAAmkWwIRC0tLlq+WN9/+QA8EgbYHP9pZ7GXJ7eDXZrS2sISJwni18tolRQpJpfL3K8sKt1jz5VffySS1RDLSmWeeIcMHn1oiPZxwFO686U8oYWnRkhdk03ubdVG/VeFMG7Ha2r8mewNeR3INOwgvYsAgEOuFF5znVIWgMFYtd7985Ronb9Vzs1xuUvakHYX8BCpMWMxqaygz6ol+cvedt2JXJzsotndpa1Mm3NYWH+bPGBewIp891kuLFNaubPZYTfsImox0Xn63cGTc6SKd0CEOCeKRIDVWwatbNn1E79t/7KC/XqsmiHYrVCDtUWOTrG5QzyvM2KvC4TxEvxpVK7gsjjBR7zNghEAYQ8LEd8WSGY7Q+cLqV2T4mMn6HFwN+/c5ZeWHzH0/79eTZljFmWQLS5jsYvWozu2bCdwhvcle2jxcwHNvXXNs39uKymoNK29hImwSvgtYDt646CB/4azxcqmKD4UUrzFCRG/e9tQ3CEHysVpepkyZdL/MH4iMX371rVx79RUmK+ptehGWYjFm2zoulJVb6459tLUmYHkDvuPbBVHpJRUY36TUEpb+OXxYKtVo6sQoK/PAPdK7e1tfURxWR4UKXuQ6BytTfJ9MgoCDeHl22rxlm/R8dJhzjUi/Q3Yb3n0jAMH6KIeKR4j4St4V7+wV3HBNrMqK1LdHe8G76Jci+fbFa8x+/WUeCZAACZAACZAACZBA+iAQsbAEdygIQyZdpFzF/nfXbXLozz9l67YvHTc5cx5bW1iCJRMsmpByq1+x7yl5uxS99GIdeBT133znA0EAbSRYZNSrXUXv40844SjcedNQKGHpNeUOsXzlOl0U/bu/1F1y7jn5XOJZrpw5JK8S1c4/P79pMtnb1Ws3qLg5E3V9iCW1a1SS85QljW0dBZeGs8/Oq5eA914IokG9pp2cyQpEh4b1qkvhggUEgsSal19zxTzq3a2tVK5wKm4V2oOLWKsOveULNTE2CdYiVyu3qiwqntS7729WFmhJTHAek66B/bqYonoLEcUEjkUGLKKwWhHEQTMJhwB5ppoAXXxxQdekzDRku3pBgEEA7PznnmNOK4HkgBprR2esOIHgswiSnVMxgqAE6wWIaH4xlIzrhnd1PecCnp25C5eqlQsX6lxM3DARK6RcIL/7Ybt6ZovoOCzdeg+RTYoPEoQ9BPO9RokL3/+wQ9a/9pazpLsuoP6EE5ZQDuIOxl6gwAWyZ88+tVz4i44VD857rae8MboerlxOvVcl9DO75ZPPtFhjVutDfSQjLP3++x+aqVmtDwGJb7vlBj2+ncoN7vU333WtFBfMXSmp1eB/bWEJpcCzgQpSj+D4CGC/bv0bLlYIYN+2RQOnwXiOEUvUY6l6k/BsYUJ+kXLVgzXgd99v10u6I/C1sTo0ZaPZphdhCX1O6ZhtMRJiRoc2TfQ3fpsSN8uXKeWIil5RGy6etxS/QX74cYf+dwJM7ZRawhKu4RVK4IrZpEEtweqgWbJkVm6he/X3FO97u1aN1L9Np4Je4/sHAdL+htao+pAUv7mYHD92XD7YvFWwAqedYiEszZjzjMyat8Ru1vcZ9It999yCKUFduiP59sVrzK7B8oAESIAESIAESIAESCBdEYhYWEKvHx8xUU/yg40AAbe3fvKF/Lhjly5iC0vvKGugpctfEsQyCpUgpHTv2FxgFWVSOOEo3HnTTihhCSs5YXxwyQuXIDzdfuuNSqgp7RunIlx9nIc7Q9PW3Z0YNqHqQHgqpyZlj9Sq4hK6IB507+teEcyvnWBWNyiLYM29Hh3q/JrtVx95mFQP7t/N100Ek29MSCNJEKfq1KwsV19Z1Clux9dBJgSS7p1bOeexA6sbBOr1CiWuQicPEJ8Hk0MkTP4bNO+s9+dNHyuXF71E74f688uvvysrhia+RSCcwbrIa93hV7hCufsdV55IhCW/Nkyed5l05GOC17v/cGVJ+L4pFrBF7CVYBRlrBVtYGj1+mkDUCJf69ewgGEtyki0sQfw0QpZfW3AlgnCZI0d253Q8x4hvFazOEMw8XKr0UGnp071duGK+59OTsJTSMdvx1ryDHT64txY+kQ/xu5py5w32PkOAxMIFiGWGlJrCEtpf/sJaGT1uGnZDJrjRwp3WThCT8W3CtzRYQtB9rO6IFAthaeu2z6VNp36uy73x8lKXxSNOLlqywlmZEsd+/Ue+SZF8+1A2kjHjG2xWPY3FmE0fuSUBEiABEiABEiABEkh/BKISljAJQKwlIxyZ4SC4deUKD+gYDzPnLtErvWF1rPGjkuLtmHJ///OPiluyXv8HtlfAQXmIDU0b1nRNLFHXFrQe7dVeLvBYDIU7b64fSljC5PupqfN0UGtTPtwWMS2aNKgRrpjveVwPsT28y7v7Fj6Z6XUZQTYsl2bMedYRMOz6EBUQOwkuaqESXCYWqCCvzy5dFTDRw0QEy1LXqPZQUBHta+Vi0bhVt1CXcJ3DpBFxVeBWgvTLL79Js7Y9nImZHWTcrojgwLPVr/S2FZV9HpN7WMOYdnEOwWvhdohxPP/sdMeKyq7ntw83sR79AkU7O47U25s+FFhbecUSxKFq27KhskA7Rx6sWE83H0pYguCC1Zwg9Nhua6gIUREuLphY+yVM0OHq5xU/MKmrriwnaj1cQZ6etcgJ4muEJdOWcYcz7nYmH1tcGxYnJqaTfS7SfQQAR9sQJiEaTVRub14LDjwPED+xwqHtXmuuEe8xIlgy4mXBFcqbYK0G6xasSubXd295v2M8R3jWkIxw6S03e/4SmT77GZ0Nl0e4Ptop3HlT1nYrnfbUMCl23dXmlGubkjHDcnD0+Kdd7eEA70T9OtWc/O07dmtRG4H+7YT3B89d4UIXSY16rbU44bfqmx07DZZksCz0S7Z1lJ9Aa+pgBc25C5YKxDFvwjOKvldXln22K6cph1X1ho2a5LjQmny82xDSYeXUtnM//X7HQmSBAGivSOcX+w59gKAMtzmTYJnYvVNLc+i7jeTbh4qhxlxX/QgCobh2w6SVHmMxZt/OMpMESIAESIAESIAESCBdEIhKWDI9/u23gwJ3mWPK1P+qKy4NGqDVlPfbYrK4feceLWRcXLiAFouM65Rf+dTOmzpjkWBigVS/TlXtKgAh7L9//9N5iCWEVeK2ffaVI4DgxLiRjyVrQmm7fyF+Ddwu4Ar473//6usdOvSXdr2CmwZ+nTbJLMNujs0WPCH47T/wq5yl3NAgLNgCiykXanv06DGBC8refT/rMSGOEcSFUBNmTLZbd+yr7yN+lYfVxh9/HHIs0xAvBavEfff9DiVcJS11jT54XUrA9wsV1+aQco/CynuYiARLEDi379yt7sMBHeC9SOGCOr4UxElvMhYzwSbs3vL2MSZvPyhrBEx84dpXUDEtrIQE+zkFsx8VM4zxAsXrissvdbkz2u3Z+xgD4jQhYdKKlfaQYDmHeGPHjh9T17tQLrmkcNDV9HSFk39gLbFd3X+IhBAUbVdCu1ywfdwnjHP79l06Dhfc8nLlSlpdKlid5OaD2VfffCcH1LOK1RcvVWOMJNB7vMeIlfIQTB4TarwbF6vnDu/a6ZySO2a4OeIdhRsrVptEbD2/ZxICO6xa8O0684wztHtr9uzZ4ooUVjsY9y+//ib58uYRfF/OPffsiPqEH0y+V+58e/f+rL8F0X6DI7pIGhSK5NtnuhFszLa1KIUlQ4tbEiABEiABEiABEjg9CSRLWDrdUGDCOmT4U3pY9/6vhAqiXD7oEDEB79F3mCOc9OvZzhU0O2hF64S90lew1bxMccRBqlKrmWMVs2T+5KgFI9NWamwRZNdYoEAcgUgSLGGVLaw8hQTXKrhYpWaylz/3C0yemtcO13YwYSlcPZ4nARIggUQggB8dGjZPislHYSkR7hj7SAIkQAIkQAIkQALJJ0BhSbGzV7Rr1qiW3HTDtUGJ4hf2Lr0e13FrUGjk472jtuxYoQJijzy5Ypi9fLzfRSFkYQlvCBFItnhjr8DkVze18t559VRAY7M6GqxkZk4ZFfKSy1askTETklxkGtWrIQimbVK8xmKun1Zbwy6UsJRRWKQVc16HBEgg7QiYbxyFpbRjziuRAAmQAAmQAAmQQLwJUFhSd2CTCiy+aEmSmxaWDW/d/BGXu5O5SQgkPGfBMmf5d7hs9e7W2pyOeGsH64XlTh8VGySzZxlzNIbrjZs4U557frVu247vg4x4CRBm4oA+1GnYTrtQYX/BzPFymVrpzy/Bxa5Fu16OQOaN7xKvsfj1NTXzDDsKS6lJmW2TAAnEi4D5xlFYitcd4HVJgARIgARIgARIIO0JUFhSzBF8uf+QsQ59CEal77tbxVApILly5tBxf35UgWbXvvK6IL4UUrasWaWrWr2uUMELnXqR7iBYdaWaTZ3iEIyqK/c7LGUPV7KDKs7Ot2o1s4VqtTWzjDWCwE4a+7iOVWIqxkuMMRMH9GPC5NlO7CT0HUFqEWj6nLPzaasuuBm+plYeW7h4hem21K5eSTq1OzV+nIjXWJxOpdGOYUdhKY2A8zIkQAJpSsB84ygspSl2XowESIAESIAESIAE4kqAwtJJ/Ju3fCaz5z8X0c1AsOHmymUuT57cEZX3K7Tp/c3SrfcQv1MBeVhdp1fXNpIvX56Ac/HOQLDoPv1HyHsffBy2KxCesHLT/ffeFbZsLAogxhJSvrx5A5bhjkX7KWkjlLCUknZZlwRIgATSAwEKS+nhLrAPJEACJEACJEACJJA2BCgsWZyx4tPGN96VDz/eJljpxiSsNnZe/nP0imBXX3mZlLjtJnMqRVusPLR67auy5uXXXCvNQYC5+sqicuXll8mNN1yjl21O0YVSuTJWEHr7nQ9k5epXAgQmLMd+pWJ2RdFL1RLp9yqO56ZybxKjecTOwhLxCM6eVwmUWJ6biQRIgAROFwIQ9pc+/5IeDr77sMplIgESIAESIAESIAESOD0JUFgKcl8x8T/4xyFl6ZJVcp91pm/MpSBVk5WN68ElD9eD0GAvaZ+sBuNY6c+//pbDhw/LWYpbJMvIx7GrvDQJkAAJkAAJkAAJkAAJkAAJkAAJkEAKCFBYSgE8ViUBEiABEiABEiABEiABEiABEiABEiCBjEyAwlJGvvscOwmQAAmQAAmQAAmQAAmQAAmQAAmQAAmkgACFpRTAY1USIAESIAESIAESIAESIAESIAESIAESyMgEKCxl5LvPsZMACZAACZAACZAACZAACZAACZAACZBACghQWEoBPFYlARIgARIgARIgARIgARIgARIgARIggYxMgMJSRr77HDsJkAAJkAAJkAAJkAAJkAAJkAAJkAAJpIAAhaUUwGNVEiABEiABEiABEiABEiABEiABEiABEsjIBCgsZeS7z7GTAAmQAAmQAAmQAAmQAAmQAAmQAAmQQAoIUFhKATxWJQESIAESIAESIAESIAESIAESIAESIIGMTIDCUka++xw7CZAACZAACZAACZAACZAACZAACZAACaSAAIWlFMBjVRIgARIgARIgARIgARIgARIgARIgARLIyAQoLGXku8+xkwAJkAAJkAAJkAAJkAAJkAAJkAAJkEAKCFBYSgE8ViUBEiABEiABEiABEiABEiABEiABEiCBjEyAwlJGvvscOwmQAAmQAAmQAAmQAAmQAAmQAAmQAAmkgACFpRTAY1USIAESIAESIAESIAESIAESIAESIAESyMgEKCxl5LvPsZMACZAACZAACZAACZAACZAACZAACZBACghQWEoBPFYlARIgARIgARIgARIgARIgARIgARIggYxMgMJSRr77HDsJkAAJkAAJkAAJkAAJkAAJkAAJkAAJpIAAhaUUwGNVEiABEiABEiABEiABEiABEiABEiABEsjIBCgsZeS7z7GTAAmQAAmQAAmQAAmQAAmQAAmQAAmQQAoIUFhKATxWJQESIAESIAESIAESIAESIAESIAESIIGMTIDCUka++xw7CZAACZAACZAACZAACZAACQQh8O+//8nxEyfkhPo/9v/7778gJZlNAiSQXghkypRJMmfOJFmyZJGs6v/YT+1EYSm1CbN9EiABEiABEiABEiABEiABEkggAhCRjh47JsePn0igXrOrJEACfgSyZs0i2bNlS1WBicKSH3nmkQAJkAAJkAAJkAAJkAAJkEAGJHDs+HE5cuSYM/JsalIKy4csWTILLCGYSIAE0jcBWBaeOPGvtjQ8ZonDOXJkk2xZs6ZK5ykspQpWNkoCJEACJEACJEACJEACJEACiUXg6LHjcvRokqgEQSl79mwUkxLrFrK3JOAiAJEJ77QRmPBOZ88We3GJwpILOw9IgARIgARIgARIgARIgARIIOMRsC2VcqjJZ7ZUmHxmPKocMQmkDwLHlGh85KRonBqWSxSW0sd9Zi9IgARIgARIgARIgARIgARIIC4EEFPp738O62tTVIrLLeBFSSDVCdji0hm5csY05hKFpVS/fbwACZAACZAACZAACZAACZAACaRfAoePHNWBuuH+liNH9vTbUfaMBEggRQSOqHcdbnEI6J0zhu86haUU3RZWJgESIAESIAESIAESIAESIIHEJWBbK515Rk7GVErcW8mek0BYAoi59NffSdaJsbRaorAUFj0LkAAJkAAJkAAJkAAJkAAJkMDpScAE7Ka10ul5fzkqEvASMFZLsQzkTWHJS5nHJEACJEACJEACJEACJEACJJBBCPxz+IhemhxuMXCPYSIBEji9CRxXrnBwf82SJbPkypkjJoOlsBQTjGyEBEiABEiABEiABEiABEiABBKPANxi4B5DN7jEu3fsMQkkh4Bxh8uUKZN+75PThrcOhSUvER6TAAmQAAmQAAmQAAmQAAmQQAYh8Odf/+iRnnVmrgwyYg6TBEgg1u89hSU+UyRAAiRAAiRAAiRAAiRAAiSQQQnEeoKZQTFy2CSQUARi/d5TWEqo28/OkgAJkAAJkAAJkAAJkAAJkEDsCMR6ghm7nrElEiCB1CIQ6/eewlJq3Sm2SwIkQAIkQAIkQAIkQAIkQALpnECsJ5jpfLjsHgmQgCIQ6/eewhIfKxIgARIgARIgARIgARIgARLIoARiPcHMoBg5bBJIKAKxfu8pLCXU7WdnSYAESIAESIAESIAESIAESCB2BGI9wYxdz9gSCZBAahGI9XtPYSm17hTbJQESIAESIAESIAESIAESIIF0TiDWE8x0Plx2jwRIQBGI9XsfE2Hpm+9+TPbNuaLoJcmuy4okQAIkQAIkQAIkQAIkQAIkQALJJxDrCWbye8KaJEACaUUg1u99ioWll9ZtlDUvb0zR+Du2bSzpWWD67ocdcuzoMTnjjFxyceECUY31jz8OyZ6fftZ1UBdtMJEACZAACZAACZAACZAACZBAeiAQ6wlmehhTRu1DSuatGZVZRh13rN/7FAtLHboN1PeifJlSybonEKUgKkFcSq+pd/+R8tdff0uBiy6QPt3bRNXNTe9tlkVLXtB12rdqKFddeVlU9WNV+N9//5XMmTPHqrmEaGf/gV9l5YuvSJYsmaVqxTJy9tl5E6Lf7GTsCPAZiB1LtkQCJEACJEACJHB6Eoj1BPP0pJQYo0rJvDUxRshexopArN/7mAhLKRGGIExFU//Lr76TdRvejJpn5YcekEsvKRx1PVRIyQsaL2HpyJGj8tamDwXX//XX3+XY8eNaWDr3nHxyy83FpNT/SsiZZ56RLB6JUmnGnMWyddsXurt33XGL1K1ZKVG6Lh9u3iZvv/uR7u+lRQpJ5QqlE6bv6amjifwMpCeO7AsJkAAJkAAJkMDpSyDWE8yUknpZzfW+UHO+SFL1KmWlUMGLIimaIcqkZN6aIQBxkA6BWL/3UQtL3nhKEybP0cJQ+bKlnE5Gs2PqR2qxhMn2s8+tiuYSumzt6hWl5F23Rl0PFVLygsZDWIIJ5KSp87SYFGzAsF5q1qiW3HD91cGKpOv8P//8SyY9vUD3sVmjmpL/3HMC+gtLMfBHulcJaTWqlg8ok14zho6aLD/tTXKhRB/HDOsr2bNnT6/dTbf9SuRnIN1CZcdIgARIgARIgAROKwKxnmCmFM60mYvk08+/jqiZNi3qy7VXXx5R2YxQKCXz1ozAh2M8RSDW731UwlIs4imdGsqpvWgsliCavPXOh6cqn9zbvOVTgbsX0q3FbziZe2pT8s5bpOhlRU5lRLGXkhc0rYUlWHRNenq+M7pcOXPKNVcX1Uo+Yj199fV3ckiJMiY1qvewLy9zPr1ud/+0T4aPnqK711u5JxZUboreBPHp7U0fSabMmbSoeEauxIhv9dvvB6X/kLGu4STqfXINIg4HifoMxAEVL0kCJEACJEACJJBBCcR6gplSjLaw5Devs9uvUrG05Mubx87K0PspmbdmaHAZcPCxfu+jEpZgXQSLJTuekgncbefZ9yWS89EIS3bb9n6/QWMEgbJzn3WmDB3Uwz6V4v2UvKBpKSzB/e2xwU/KP4cP6zFfdcVl0rJpXWXpks1hAPFt7sJlsnnLZzoPlktD+neVPLnPcsokws7X3/4gT02Zq7saTFhKhHH49RHmv6te2iA5cmTX/1Du+/mAjs2FGF1MJEACJEACJEACJEACJBBLArGeYKa0b7awNGH0AMmUKVNKm8ww9VMyb80wkKIcKPSPNWrBMqODPBSlpxbqQUdBgmYSbX1dMRX+xPq9j1pYwphst7VwMZJSej5ShskRlg788qv8+ttBueD8/JI3T+6glzIvaMECF0rvbq11uRMnTsj2Hbv1Km+oH+yDF42wBGFo7779cly1XUhdC8JCNAliBEQJJMST6tK+adB+zZy7RLZ88rkui18CYBGTGgmcft7/i7aSuvCC8yISsMBh/4Ff5PDhI1KgwAXiZ2kEC7XZ85fqLsdCWEJwdvTzhBLe8p97drJ++Thy5Ijs2PWTnHt2PjlHxbJKbhoy/Cndl5tuuFY/m+vWv6GbGj20b1TPBNjv2LlH1wH7cMHbI+Ge3DFFWi+l7wDiiR1UAnNB9dwk13Xw94N/qOfvV7lIMTtLCdWRJNSBAAhh+6ILzw/63kXSFsuQAAmQAAmQAAmQQFoSiPUEM6V9j5ewFOncMNj4du/Zq/97G/8t6Jfw34u//PKbXhAqV66cfkWC5sGj4YCqi//G9ZsbmYpm3hpu0anUmqOZfpxOW7NYmRlTNOKQn8fXU2MGmqbiuo31e5+hhKX//vtPWep8Kutfe0f2KFcq4zqHOwoRp0mDmnLdNVcE3GDzghYuVEAaPlJNr/L2w487nXKYsBe/6TqpX6eqWoEsi5OPnUiEpX/+OSzPLn1R982ujFXMWjSuI4ULRRaQzohraKN7pxZS5OKCdnOufXw4Bw2doPPQ//+zdxbgktRYG864CzPo4IsvzmI/tuji7rb4LrDo4j44DDK4+7K4L+6DuzM4w2AzwLh7//ly59Q9la7qru6qvrfly/PcW5ZKJW9S6eSrk2TghacGwgNU1avsHE1w++61o1l5xWXdvv53yeU3WRHlV4PJwE8/6Qh9Kdh/8pmXzPMvvh6a6wmcd95+C7PGaisF/mQHFea9DzxhPv/iaznltphkfMtNN3DD2V59/V3zpF1JEMwk/7RgouPz7vufmDvvecSFcfjBfzeLL7ZIKFwcYB6ju+2cXTo/cX6uOfuYnWw8o8ZsS7jdunZx1nGYIByiHoQFcUjnoXbM958WXUhOJdpCGDnj3Muc37/vsYMTli667AZ3jPIVxQ0/Umec03TPyccdalDOUZ6QJmGEAHbeYQuz3tqru7D0vyTcIZz+566HzXsffupuveCs443/g/jwY8+Yl199213/1z/3Nksuvqh+jMEwzWtv+q87988Ddrdsm9+1Ut8BneZTTzjMiUn3PfhEMC8V8g1j7iWv8FC/DPz33kfNO+99bFZaYRlbzncyTz83yE54/76zfJSI40f5X//Yy/SMEZ6R7yiTYiUo9+kyiXP/PvyAgu+j3MctCZAACZAACZAACbQ0gaw7mGnjX6qw9K3tu1w5u++C+WMxj6x2mBqh/3mXm+nTZ7g2PtqOcOX2DXUbcp89dzQP2TbwW+98aPCBFA5TkWBuX1l8B+1RjOLBh0txSy+1mDnQxrNTp05yym2l7Yp29nn9j7X3DTKDbPtatzXxIXP/v+8c2beRfmshYakSfbQ4I4tQ4mr0QEZt6egnEZeiRCWEQWHJQhATrlq0WIL1y3kXX2NGWwulQu5f/9jb4EXXTl5QfS5qH5ZLsGhq3759cLmYsDRt2nRzyRU3OaEruMnb+acdzrbcskt5Z8OHqKjOOr9JKNKWVWFf4aNrb/yvGfzlN+4khlktteSf3P6HH39ubrnjfrcfN7fPORdeFVhoRA09vO+hJ1yHO/zE5qONNljbbLfVJsEJWPtA6NLzPwUXZ+9suP5apr0V7sQqy7+OYz0Ushh7CEEXXnJdSPjyw4yaEFCH+9d11jCDXmsSU/x7cXy+FWC6l7D6HsSNJ55+yQU14JwTnXhz7MnnuR8qCGNHHrqvu6b/oUyffk7TnExrrr6yE0u0oKT9+mUpKfftt/6bFWRfN48+/pwL7sB9dzUrLr+MDtrFQd4vcNlp+81D1x945Cn3w4iTkjbsl/MO6DTvvss2VpB8PCSibbXZhmbTTdYrKOze+p/73ZBQjMvva63Uvvt+KKKT5yAy+uIp+MJiTqz+ICT17NHdQPCKchCWyl2VMio8niMBEiABEiABEiCBrAjUurAEDhdfdqMZ+tMvDonu1+AEhCAIP3AHH7inMyRI0zfUbcgetv33k/3YHuXQXsYIl+defC3qsvvIeshBe4au6X4GjAykbR3yNPsARhEwbtBO+q1xwlKl+mjoK9Sr00PZdBoLiUtxolKhe3TYLbGf9XtflsWStvyA+oo5kvQ5DSLpdS1W6fuT7ou1jhYW/HsHDLzBvfiwlFjbTua9iLXomWwFp5dffSuYEDxKlJEXVMLD0DFMBo4OJyYThyXH9Bkz3GV0ptGpFqcrB7+SQ+f0CjtPkHRoIbZstvF6znrqW9vJvfGWe5w6jTSdc8YxgUWRhK23WDkB6j4cFHKsglfMPfPcK+bxp1903nS80wpLUMGhrsNBrNrDdvz72OFhsJK6+fb7zc+/DHPXzjj5iGA1N4gzDzz8lDuPIWCYiA8rvUH8eeR/z1pGP5r+pxxpJk2ebIeJjTJvv/thME8UvgYg3+B69eoRTORdiD0sgyA0ypcFiFbrWm4YPvXRx4PN/Q8/6cLDvyP/tZ9ZXE38rsPFdYgKm268rlnuz0sZmJX+5+6Hgy8Sm23yV7PlZhvAWyLX/9zLzchRo83CC85vjj3qIHcPrK7efvcjt3/RuSeZzp3DXza0yCIPgcC06irLO7EDFZsIIDpc+E3Kvau1zsIwzXMHXO0esdaafzG777y1PM7gS9BJZ1wUHPftM4fLr+CE3ZEhfnPP1decduLh7lK570BUmjE5/wbrremGp+LdhGCk88p//6RRIHGEVdKmG61rllxiUVfubr/zweC9PsoOK11MWZ+998Gnbq4y3LvsMktaa8ed3HuLeA28+hbXCEC5OM7mIYRmCFcdlOAsz+SWBEiABEiABEiABFqbQNYdzLTpKdViCc/TozHQpjvr1KPcSJLfbV/ibPtBHA7GAzAiEFdu39BvQ0IAwkdNjBZBm90XktAG3ML2B5b785JOaMKqxfIR+MxTjgpNoaHbrognrJ+223oTuxjT4mbixMk27FeDPhCuXXD28aE+ovRbo4SlSvbR0FeoZ1eKUFSK39ZklvV7X7KwBMUua9dSk3djDh0MufGHiMEM8ny7wpgs737hOSeExq7KC4qOIkwrYWKpHcbTXmAtX+AwbOt8O3m4mAPqysHv2ELQevCRp919W2+xkfmb7dRqh6FMl155szsFM0sIBXHujbfed0O6cH07qxhvZIWSYk53jjfZcJ3AXDONsKTFB3T0j7KijHYQck46fYDrsK++6opm7923d5dh/YFhinAQ0fw5ryDY6GGGsOqBdQ9c3BxLhdhjqN9X33zv7ocwhfRrh2syHNAXK3W4yG+kEXMYiYMYBosuOEygfpgdhpfEaauzHbbd1Iok/+duG/zlt+baG+90+xDp/m+NVULB+SILTGP18EX8cB1/6gVOREMZvvyi04P7S+V+/CkXOLETP6BnnXp0EA7Mdu+46yH34yemutpaC/kOyyu4Df/6f2b7bTZ1++W+A36a11tndTfE0gWq/um88t8/3SiANRGGLmrR7pXX3gkExm2tdd3GVvgVJ9zQUEA69XxoP9l5tgYMvN55jbLskjC4JQESIAESIAESIIFqIJB1BzNtmrSwFBcW2l6Yf1Q7GDSgUw8n1utXXW/b/F9/78SXM63YpFeQK7dvqNuQ6O8cYq2gdFtQBCvEA30FWK7jw6o4jADASAA4fJxcZaXl5FLooyj6Eeh7+tNPYAVwTDEBt+eu2xp8UBYn/VZfWGqpPprEox63SQSjJH6qhU3W733JwhJAaOuitJNzF7s/KfgkFkuFwtITX5/w73+aBeZvntco7gXV4ekKRAsjhTq2YsHhi1E6XAxxQicaIgPEhjgnK4nhetzwNf9evbIaxAqIFnBphCVYHcnQMFTesFTyHVR6cMHEdpgTCE7HP0pk88NIIyxNmjTZnHDahS7IKKVfngVRT+ZewkToMl+SztOooXK4XwSYqGFUEr6/1Wk667SjzRy9ezkvENX+feK57ssG4oC4aKdFlrhyctNt9xrMBQV3yfknBxNbl8odKwpCkITTwpEILbAYeu2N95xwqMuhtqg74pB9zBKz518q9x3QaUYenn/WcSHh0UXQ/tN5VUhYgtgG0U07/eULc1NhjipxUiegnkB94TuZ5E8Ltr4fHpMACZAACZAACZBANRDIuoOZNk1JhCU8w5+rBh9TMZcS2olo1+HDPEQguCT9C+dx9r9CfUMtLEW1IbXAJUPvdNiYE+ry2auE+R+4C7VdJQx9v78Ik7RRfWGppfpoEsd63RYSjpBm5L3vqmn4m45b1u99wwpLsE765tsf3LKBsDgaaYdGiUniwQfu4Ya3CPi4F1SuY6uV5zgRQndsYSV1xLFnuiAwKfhO222mgwv2b7MdeVSOGL7nj8ENPNmdV1631hUPNQ3fEoVeX4/a1xWXtiJJIyzJ+GZU5lHzASEeL73ylhuaBWuPS+2k4XC6E49jVIab2TlyMI+P3+HHdS3ClGqxhKGHl119K4KxQyJXNbvtFD1sUFuB6aGCmpvOUxfg7H+Y7woWSL61k/bj74uIGCVG6R/YC8+2FnXK3FSLLLBUg8Wa7/R4ai18lspdr8aHid3/snKTFZ0IaSijyF98RcGYb4z9hsPQQlgAwV024DQnAqV5B3SaIWbtsG30+1Mor3SjIGop22nTppljTmqysoK1IBon4mChiHoDX73OPv3fctpttXXWLjtsadZde7XQdR6QAAmQAAmQAAmQQDURyLqDmTZtut2LxWuiHPoHq/1lhbxLPwz92c1fqy+gvYYP3lF9CvFXSt+wWBvydTuS5B67OBBc1Py9engeLOJhGS+uUNtV/KDPeuRxZ7nDRRZawBxz5IFyycT1W1uqjxZEpI534sSlqCRXq6iEuGb93jecsBQ1K79fCPwJjuNeUH2fnqtGD1uLqxz8OWl0WFH7EJ+OP/ofUZfcOcyhc/Pt97l9zFHkr4YQdaNWrvVQnzTC0mlnXRo7gXFUHPSXBgw/u/6mu4J5beAf1igQSzbZaJ3Qj0EaYUkPAcREc5hfKcppiy74kUnp4vJUh1FscnPtF/t6+Bx+9MRaSfxh3iVxEMIgiInTIkucsPTQo087wQf3aGEJx6Vwx1BSDKuDk6GMMCOG5REcrKFgsfSwnRcLeTfg3BPdeRHaMOQM5sBwad6BJGnGMwrlVbFGASzFjjr+bATjhqFqYemxJ54Pxs9jqCNMlcXp8ev+uHnxwy0JkAAJkAAJkAAJVAuBrDuYadOlhaWoj3/FwteW+vCLaSswZC3KldM3LNaGxEThmDAcLkpY0qtAlyMsIdx/n3CO6zNhPqlz7TQi4uL6rS3VR5N41Ps2ibhUzaIS8ifr976hhCVMpIYOoThMoPaXlZdzw96+t5NwY9l5uHKEJT2kSM+rEtexHTd+gjml/8XuebDcmUuNu3UnvX9LLL6ItWoKr7Klvfw67Dc3TxTORVm8aL+yDxNMmFLC6TSnEZZEQECYsDoq5DAWWUQG8YdhaoOsZcsLL78eTKyNaxg2d5hdwl6WfU8jLMl8QAgXli6weIly2sxUDzGLy1MdRqnCkja31eFE7ftfJpKILIWEJTwjKXf4Pe+ia9x8ZGKNJfMkycT3+OIDP3BYzhXzZR13yvnuWJshp3kHkqQZDyyUV8UaBYWEpXHjxpuzrJgG6yQIgVttvqHBqpBffPVtsBBA3DA5B4L/SIAESIAESIAESKBKCGTdwUybrDTCElYbxiiAiRMnBdHwR6PIhXL7hsXakC0hLMFiCZZL/rynccJSS/XRhG0jbAuJS9UuKiF/sn7vSxaWanXy7s8+/8pcf8vdroyjAwjlurtdbU2crgC0yILrcS+o3IutXsZSLy0e17HVw4DilpHX4SfZl2Xp4fcCO6Ew5m6Kc6h0T+5/USDe6Hl3tLAE89M1VlspL5g44eTCS693q76hs40hTzKJeV4ARU6gosScQPc++ETww6CHraURlvSSkXGTPiN6ukzoybTj8lQnKY6P9qP35SsCrHy23Dx6FblBr74drDan5zdKIrIUE5YkLsW4w58WwTBR/e120m4MfcPk8xCO4KQsgtvcc81prrvpv+78icccHKzgl+YdSJJmPLBQXhVrFBQSlhC2LoM41g5zYeELVceOHfRp7pMACZAACZAACZBA1RHIuoOZNoFphCU9IgP9EbRt0b7G1AV6gu00fcNibUjdh6iExRJEM/RP4fRoABzH9Vtbqo+GODSSixKXakFUQh5l/d6XJSwBljiZoEqfk2vYJrneEqvCaeEH5oJi+SJx1RVAqcISOqAnnX6RWy0L4V183km24urkgi7UsZU5dVDpQQjyZ/yXuCXd6jQWW41ML2GP5dKh5IuDSIDVBuD8CeXEj8RdrFbkvEzMjWNM8o68TeNgEXLKmRc7AQxCGTjB6eFGxx55UN5Kf/ATx378hInm5DMughdXDs6xPzRRAphecUFPOB0Xrgtw9r9ShCVt4YP5eDAvT5TTwy133n4LA1EMLonIklRYkufGccd1vVohrPNuv/NBZ4qrzYzFBHmpJf9kFl5wfjc5u55TS54j5ajUdyBJmvGMQnlVrFFQSFjSeYZhpOPGTXDDGRdeqJ8r8zC3RproSIAESIAESIAESKDaCWTdwUyb3nKFJb1SNxZeWWThBdyqxYiPXqgIx7rfVGrfsFgbUvcrKyEs6T7BX9ddIzSqJU5Yaqk+Gtg2mhNxCf3ezTddP3X/t6X4Zf3elywsIaG1uCqcXl7en2MGHchb7rjffPLZly4f44QlTPx2xslHmPZ26Jp2WC4Sk3fDYbUriBDiCnVsn3nuFfP40y86r/6M/nJ/KVsMz8HqeOKwihUqVd8hnTfeeo87jc4+ViDT1lt6vp8ogQqT0WFSOjhfWBr64y/m4stvdNfAq/8pR0au1uU8qH9YAhNfFKKGz51/8bUGQ/3QUcfKC3B6svK44WyF2A+86haD4Y9wu+28tVl7zb+4ffn340+/mosuu8Ed4ivHheecEIhPhcKV+0sRlh6x8xG98PIb7lYtzkhYsh1r8/fU2fmr59xKIrLECUulckdcYGmEuYeQXxCOZAnXgXYidhFT5AcV5QtD5H748WeDoaf/PKBZwERY5b4DSdKM8AvlVbFGQSFhSSbrTzrsFHGhIwESIAESIAESIIFqJJB1BzNtGssRltA+PXfA1e5DH9qjWDG4a5cuRix1ECe9wFKavmGxNqS0g/HMNMJS1MgRzHd6xjmXBQYNSVczb6k+GtJMVxsEsn7vG0ZYeuCRpwyGEsFhhacd7dw6sBD6zooLd937mF0Vrnly5DhhCffCamZ3K0QsbTvUsOp45fV3zTPPv4JLBp3ok4471M1x5E7Yf1rEwX1rKQED919yxU1uvhr4//PSi5tdd9zK9OnT23XeIaZVwPrAAABAAElEQVQ8bcWnzp07mT133VaCLLiV+W7EE+YG2uCva7rJoDGnDVY6e+rZQU4UgJ+D9tvNrLDc0uLdbWfMmOFWw4JwAIcV0Va1q3/9YuPzsl3x61M7rFCcLyzhvBaeMO53v712cl8MYBU0Zuw487LNhy++/NYt046Kf+rUqeaMcy93Q94w39H6667pGIAPhuXhiwKctqzChNP4QYBD5x6rjy0w/7zux2TeeeZy5wuJChBUBthhe9NtWuFgmQVxqX37duazwV+b2//7UMDIXya0ULguMPuvFGEJ1lOwokL5ueSCUwIBS8LSW0ySjcmy4c7rf6zp0aN72RZL5XCXuFx743/N4C+/kUODoV/4sRbni5w475d/nCv3HWhtYUmbWeMdWmqJRe2wt45IUsH8cx74jwRIgARIgARIgASqiEDWHcy0SdPCEtr4tgsR6xZeaH7TZ47etn/xlnnwkaedP704D9r8EJzgMGLlLLs6XLt27UyavmFLCUuIM6Yk2WTDdcycfeewH2p/ccYQaGfDoV+J9rV2/W2fCv1a9FkxZYUeldESfTQdF+5XN4Gs3/uGEZb05NZRWQzrGogecIWEpah75dyRdt6mxb0VByZNnmxOOPVC8WK22HQDs/nf/hocT5ky1QwYeH0wdw4uQGwRUUc8nnXq0W5yNjkutC0094u+b521VnVClj4n+9rCRc7JFpXywgv2cwJTlLAEfxBm3vvgE7nFbf10iQqPZUGvsBOJi8gDzxBZ9DHuhTUPxhHD4avESVaQ0RPzuQv236XWcgb3FxOAfv5lmLVKujGPtYSDLX7MVllpWX2qaLjwnFRY+vmX4fZLynUufH9J+9BDZx/oIYBiqZVEZNH5KRZ75XCXOOllVHFOT8otfmTeKDnG2Ha8Z74r5x1IkmY8p1AZKNYoKGSxBGs3WL0VchBVV//Lim7IYk8rANKRAAmQAAmQAAmQQDUSyLqDmTaNWlgqFhamkdhs4/XMaWcPdG16tDXPtOIR+g7iHrEjS16wI0zgNtpgbbOdncYgTd+wWBsyK4sliX/UFnP0YpSMFo7g754HHjevv/meuwUM9IgCnKx0H809mP9qgkDW731ZwhIKsjjMoYTxhPqcXMM2yfUsJriSuVr8mfF1XGD98p+7Hg4JFhjm9LeN13Urg8nS4r6wJBYlWOYdFhaP2pXltPAjVkwrLr+Mflywf/t/H7Qiy6fu+M9LL2EOOWjP4Bp2II5gziNYyvgOE42j8ltu2aX8SwWPMQ8OJr7GWGPfYVWxjTZYy6y0wp/9S8ExrJb+c/fD5oOPPg/OYWfppRZzFkhv2mU0MYQrTliC8IPhQi9ZCyfNCmGAOcafrmd/CPDFAA7iwqNPPGfefuejUP7gWt8+c5h/7L9b3jA5mHReed3tLk/gT9xxR/3DLGSFL736W9wQM4grSKdYAUkYyNNd7FDCVVZaTk4F2yThitltHB8JTIuAGCaG4WKFnJ7bR6yE9Opqm26yntlqsw3zgsBqiFj5Ak6EJeyXwx33QYSFcCTuhH8f7CzG5Bhb/VUEYqReClX7w36p70CSNCPcQnmlf1ivvKQ/vIccyi1W3IDzRT+8H+dceHXI0jF0szpA2k8/8fDQhJHqMndJgARIgARIgARIoFUJZN3BTJuYUoUlrG78/oefucce9s+/u6kadBzQbjvdCk8YIQAnHzvL7RsWa0NqYSlqzlk9vcXGVujCfJ3i9EdRTGvy5tsfuoWR5Dq2y9t+4T577hjZtkQfECMLJk+Z4m455fh/GRnNgRMt0UdzD+a/qieQ9XtfkrCkV9PKklQWwlLS+GA1NCjUEIjmnqtvYisgHT5eyF9+/c2MGTPW9LKq+Pz95gmp4tqv7I+2fn/6eZgbtjXfvHPL6dAWleIwa66JuHXr2sVVAnr1gpDnhAewmIKYJqIVlkA/7qiDisZXgh9vh88hrR06tHfD2UQIkuvFtqjIfx32u4EQgBWy+tm06/mcou6HaDF8+B9uWBrmEirEAFYlMHEdOWqMGzKI4XAYT12qGzFylBkxYrSZZfO2d68eBnnkfwEoNcxa818K90qlrRLvQCXietnVt5rvvh/qRE8IxRDoZtiyCAeRDNZwLw56MxA9fbG6EnFimCRAAiRAAiRAAiRQDoGsO5jlxKG17smib5hl3LWwdLi1SFrSzt87wQpi+BiOeX772X5nMUt49FW/te1U9CkxHypGcviu0n00/3k8rj4CWb/3JQlLggMCU1Yu7aphWcWjnsNBZYRJvcVyCBNywxpnbmsNRUcCJFAaAT1W/6RjD8mzpJPQMJ/Z3Xaie7gdtt3UWkX+n1zilgRIgARIgARIgASqhkDWHcyqSVgNRkQLS1HWVzWYJEa5Sglk/d6XJSxVKRtGqwABWFdcce3tgbgEr1CvsWIXTCWxHCfmPKIjARIoTOCNtz8wd9/3mPMkE6hH3YFJ/R9/qmnVx0MO2stNzh/lj+dIgARIgARIgARIoDUJZN3BbM201PqzKSzVeg7WTvyzfu8pLNVO3qeOKSaKvst2iH/6+de8sDDv0YBzT8w7zxMkQAJhApi37IJLmiZcx1DNPXfdxlktydBJTDqP1RMxrxUc5n0785SjGm5oZZgaj0iABEiABEiABKqVQNYdzGpNZy3Ei8JSLeRSfcQx6/eewlJ9lIuSUoFJr7+zq1phwmrMUdSlcyc72fX8boLikgKiZxJoQAIYt37dTXeZwV9+E6Qeq25gXi4MN/3t9xGBZSBWMTxwn13c8raBZ+6QAAmQAAmQAAmQQBURyLqDWUVJq7moUFiquSyr2Qhn/d5TWKrZosCIkwAJtBYBCEjP22VrYZkkK4xIXCAy9ZtvHrPm6iuZv66zhpzmlgRIgARIgARIgASqkkDWHcyqTGSNROqbb4eYhx571sX273ts7z5c1kjUGc0aI5D1e09hqcYKAKNLAiRQXQSw4uGYMePcXGXz2Anxe9uVIulIgARIgARIgARIoFYIZN3BrJV0M54k0MgEsn7vKSw1cmli2kmABEiABEiABEiABEiABBqaQNYdzIaGycSTQI0QyPq9p7BUIxnPaJIACZAACZAACZAACZAACZBA1gSy7mBmHT+GRwIkkD2BrN97CkvZ5xFDJAESIAESIAESIAESIAESIIGaIDBx0hSDxUm6de3MVWxrIscYSRJIRwDvO957rGqN9z4LR2EpC4oMgwRIgARIgARIgARIgARIgARqkMDkKVPtStGzTOdOHU379u1qMAWMMgmQQCkEZsyYaaZMnWbatWvrVogv5d44vxSW4sjwPAmQAAmQAAmQAAmQAAmQAAnUOYFp02eYadOmmw5WVOpkxSU6EiCB+iYw1YpK06241LFjB9OxQ/tMEkthKROMDIQESIAESIAESIAESIAESIAEao/ArFk5M2nyFBdxDoervfxjjEmgFAIyDA73dO3S2bRt26aU22P9UliKRcMLJEACJEACJEACJEACJEACJFD/BDAsBsNjaLVU/3nNFDY2AbFWwrBXDH/NylFYyookwyEBEiABEiABEiABEiABEiCBGiSgrZY62eExHTIaHlODKBhlEqhbAtPtsNepdtgrXJbWSgiPwhIo0JEACZAACZAACZAACZAACZBAAxOYPsN2Oqc2dTopLjVwQWDS65KAFpU6dbLicfts5lYSWBSWhAS3JEACJEACJEACJEACJEACJNDABGQibyDAsDhM7oslyelIgARqkwDmVMLk/JisGy7LCbs1EQpLmgb3SYAESIAESIAESIAESIAESKCBCWjLJWCAwNSuHf7aUmRq4HLBpNcOAYhJM2fOsn8zA0EJsa+EpZJQobAkJLglARIgARIgARIgARIgARIgARIwmHNp2vTpbkJv4iABEqhtApiou2OHDpmtABdFg8JSFBWeIwESIAESIAESIAESIAESIIEGJwCBaYa1eoDlA/ZhCUFHAiRQ3QQwfLVt2zbO0rC9tTbEfqUdhaVKE2b4JEACJEACJEACJEACJEACJEACJEACJFCnBCgs1WnGMlkkQAIkQAIkQAIkQAIkQAIkQAIkQAIkUGkCFJYqTZjhkwAJkAAJkAAJkAAJkAAJkAAJkAAJkECdEqCwVKcZy2SRAAmQAAmQAAmQAAmQAAmQAAmQAAmQQKUJUFiqNGGGTwIkQAIkQAIkQAIkQAIkQAIkQAIkQAJ1SoDCUp1mLJNFAiRAAiRAAiRAAiRAAiRAAiRAAiRAApUmQGGp0oQZPgmQAAmQAAmQAAmQAAmQAAmQAAmQAAnUKQEKS3WasUwWCZAACZAACZAACZAACZAACZAACZAACVSaAIWlShNm+CRAAiRAAiRAAiRAAiRAAiRAAiRAAiRQpwQoLNVpxjJZJEACJEACJEACJEACJEACJEACJEACJFBpAhSWKk2Y4ZMACZAACZAACZAACZAACZAACZAACZBAnRKgsFSnGctkkQAJkAAJkAAJkAAJkAAJkAAJkAAJkEClCVBYqjRhhk8CJEACJEACJEACJEACJEACJEACJEACdUqAwlKdZiyTRQIkQAIkQAIkQAIkQAIkQAIkQAIkQAKVJkBhqdKEGT4JkAAJkAAJkAAJkAAJkAAJkAAJkAAJ1CkBCkt1mrFMFgmQAAmQAAmQAAmQAAmQAAmQAAmQAAlUmkBmwlIulzNTpk4zU6dONzNmzDSzZs0yM+0fztORAAmQAAmQAAmQAAmQAAmQAAmQAAmQAAlkS6Bt2zamXbt2pkP79qZTxw6mc+eOpk2bNtk+pEhoqYUliEgTJk42kyZPKfIoXiYBEiABEiABEiABEiABEiABEiABEiABEqgkga5dOptu3To7samSz5GwUwlL48ZPdKKSBNaxQ3vToUM7065tWzlllTLT4mpZ8HDukAAJkAAJkAAJkAAJkAAJkAAJNCyBuBE0Y8dPdkzm7Nu7iQ1G2jgrD4y4gbWHbJsu26E4vE4+qlxUT/mYNStnZs6caWbYv2nTppvp02fMLrTGdO/WxfTs0S04rtROWcLSzJmzzOix412kEbHOnTpak6t2Lo7FTK6KXa9UQhkuCZAACZAACZAACZAACZAACZBAYxCIE5TkfJ6w1BhYmMoGIACRafKUaWbKlKkutR2sAVDvXt0rar1UsrAEBQyiEsSl9u3bma5dOpq2avxenHAUd74B8pVJJAESIAESIAESIAESIAESIAESaEECIiDpR+pzY8ZNcpf69umlvXCfBOqGAKYtmjhpspsDG/Mw9end03S0czBVwpUkLEFMGjFqjBOVEKEundq7YW5aNNL7iLB/XIlEMEwSIAESIAESIAESIAESIAESIAES8AloMUn2sdXCkh74JgOcuA0PCCSP2uUxYcIkM9UaCEFcgpCKSb6zdiUJSyNGjXXD3yAqde3cIRCNRDySrUTSP5bz3JIACZAACZAACZAACZAACZAACZBASxDQghKeh+PRYye6RwcWS6KcSIR43KSkkEcTgRovD+OtuITRZxgWN5fMKyZ5m8E2sbAkE3Vj+Fs3DH+bPUE3xCMRkGSLeOn9DOLJIEiABEiABEiABEiABEiABEiABEigZAJRwtKoMRNcOIGwVHKovIEEaovA2HET3LC4SkzonUhYwuziv/8x2lHr2aOLW/VNhCNs9T48yXEU5kLXovzzHAmQAAmQAAmQAAmQAAmQAAmQAAkkISAikvYr57CVPxGW+szRU3vlPgnULQHMuQSDIbi55uyd6ZC4RMLSmLETzKTJU0znzh3tvEpNQ+BEIMJW7yOScox93xW65vvlMQmQAAmQAAmQAAmQAAmQAAmQAAkkJSAikvYv50RUwnbk6PHOC4Ql26M1VnLilhzqvhxMsJN5T506zS7C1tmtFKffkzT7RYUlvHTDfhvpntGrZ9fAWkkEImz1PjzKcZqI8V4SIAESIAESIAESIAESIAESIAESSEMgSlTyhSUXfo3PoWMVEdsRV6R4TB4R5QELsmFIHNx88/TNTLspKixNnjLVjB4z3nS0kzx179bZRUDEJL3FBS0o6X13E/+RAAmQAAmQAAmQAAmQAAmQAAmQQAsR0KISHolj+RsxapyLBYfCtVBm8DFVQwATeU+fPsPM0auH6dKlUybxKiosyTC4bl07m04d2zvxSAtKIiD520xix0BIgARIgARIgARIgARIgARIgARIoEwCWlwSUQlbEZbm6N2jzJB5GwnUJoEpdijc5MlTMx0OV1RYGjFyrJk2fbrp1bObad+ubZ6wBJSFRCW5VpvIGWsSIAESIAESIAESIAESIAESIIFaIiBiksRZC0qyr4UlmWOpaexU81xLPMZYKvKot/Ixc8YsM27CRNPBjkqbq29veU1SbYsKS1gNDqvC9e7VLTS/EgQj/adjQTFJ0+A+CZAACZAACZAACZAACZAACZBASxLQ4pKISXqrhSUXL85J1KSjSSaRR93ywHuAkWlt27Yx887dV3I81baosISJu/HgPr272wcXtlhCTCgqpcoP3kwCJEACJEACJEACJEACJEACJJABAfRj4URQwv6sWbPccZ6whIt0JNAgBDCPNly/eefMJMVFhaVfh49wD+o7R4+QhVKUtRJFpUzyhIGQAAmQAAmQAAmQAAmQAAmQAAmkJKCFJQSFY19Y6t2ru73SNOSLW3LA0L9GKAdjxraisORbLOHlFDFJtjhHRwIkQAIkQAIkQAIkQAIkQAIkQAKtSSBKWBJxSSyWetuVsUROiYsrrzfJLeQTTaAWy0erCUtz9ukZabEkaCksCQluSYAESIAESIAESIAESIAESIAEWptAMmEJFkvWiaFK0xGPyaPJcKlOywPmWIJr8aFwFJakRHFLAiRAAiRAAiRAAiRAAiRAAiRQ7QSSC0tic8Jts6ImyhK39Tg0riotlmitVO1VKuNHAiRAAiRAAiRAAiRAAiRAAo1FIImw1KtnNwuFghIFpcYS0MaOq0KLJQpLjVVBM7UkQAIkQAIkQAIkQAIkQAIkUO0EkglLs4fCVXtiGD8SyJAAhaUMYTIoEiABEiABEiABEiABEiABEiCB+iSQTFiCxZK117EGK21guDTb8Zg86rk8jB030ZX0VptjSVaGQyzEUkm2s99BbkiABEiABEiABEiABEiABEiABEigVQkkF5Y4FI5D4TgULs3L2sa+bCAY634dPsJdk8m7KSzFouIFEiABEiABEiABEiABEiABEiCBKiEgXV29xf6sWbPMiFHjXCx79miyWKqSKDMaJNAiBMaNb0WLJRGVxELJ37YIAT6EBEiABEiABEiABEiABEiABEiABIoQ0IISvOKYwlIRaLzcEAQoLDVENjORJEACJEACJEACJEACJEACJEACaQgkE5a62ke0cYJTk+FE05Ao3Mvj5iGC5FFf5YHCUpqahfeSAAmUTOD77793P7RdunQx/fr1K/n+er4BZtRDhgxxSYRF56KLLlrPya2rtP3222/m7bffNl9++aVrNCLvNtxwQ9OnT5+6SicTQwIkYMzIkSPNmDFjHIo555zT9OrVi1hIgAQahEAyYYlD4RqkODCZigCFJQWDuyRAApUnIENe8aTx48eb7t25JKtQB4+ePXu6wx49ephx45rG6st1bquTwOOPP2722GMPV551DI855hhz8cUX61PcJ4GaI/DHH3+Ye++917Rv397suuuuZo455qi5NGQd4ZNPPtmcf/75Ltjrr7/e/OMf/8j6ETUTHj6I4IMRfrPmmWeemok3I0oC5RJIIiz16A6LJToSaCwC4ydMcglulVXhWmKOpWHDhpnXXnvNJXKZZZYxyy23XNEcfuKJJ8ykSZNMx44dzVZbbWXatWtX9B56IAESSEZAC0ujR482vXv3TnZjA/iisFR7mfzrr7+a+eefPzLiTz75pNl8880jr/EkCdQKgW222cb873//c9Hdd999za233lorUa9YPBtdWIKYdPvttxu0l5999tlAVIe4tN9++5n+/ftTgKxY6WPArU2gHoSlyZMn2/f3cfOVtbL+fsj3ZsrkKWa11Vc3a6yxhllpxZVMl64Uxlq7nNXi8+teWMIP3qabburyZttttzWPPPJI0XxacMEFzc8//+z8YVjDUkstVfQeeiCBYgTeeOMNM336dDP33HMbiJyN6hpRWIJQ/e6777osX2KJJWKHANaCsDR48GADC4YOHTqYtdZaq1GLcZDuM844w5x11lnu+E9/+pOzUELD7LPPPjPrrLOO6crGWcCKO7VJAFaUqJvgUMa/++67vIQ0Wr3QyMISygLEowcffDCvHMgJtHNQJvr27SunuCWBuiGQRFjq3r2LnWGpeY4lO713VRxPmzbNXHbZQHPZwEvNhAkTYvPkiiuvNPvuu38wR1S1xB/s0Y+oxfhMmTTZvPf++zb+9rd0scVMv/n61R1fCksRrxSFpQgoPJWagAgq++yzj7nttttSh1erAQgHxL9RLJbetz8kq666qssyfO3HV/8oVwvCklgvoOOAeYUa3W233Xbm0UcfdRguuugic+yxxzY6Eqa/zgjA+uTMM88sWMYbrV5oZGHpL3/5i/nggw9cecDvwI477miWX355J6Zfc801Qenfe++9zR133BEcc4cE6oVAEmGpGofCYV64ffbZ27z04ouJsmK33Xc3V1xxlencuXMi//RUmMBHH35o1ltvHefp2uuuN3vuuVfhG2rwKoWliEyjsBQBhadSEYDFSrduTRP5UVjCahBNrlGEpeeff95ssskmLtG1LizBCuf11193lncUloxZccUVzSeffOLy9s033zRrrrnm7NLNDQnUDwEM+cRHgfnmmy8yUY1WLzSysPTSSy+5hQkwCgDCkcwLiIJxyy23mAMOOCAoI7COgHUrHQnUE4EkwlL3bl2qKskYMfG3TTa2ovD7Qbw22eRv5vDDjzDLWWEY079A+HjmmafNlVde4fwsvvji5pVXXw/6L8GN3CmLwMu27tx2263dvddce11dCksTJk526avbOZY4FK6sss+bMiag52GhsNR4wtL9999vdtllF1eqal1YWsya72KiVlosNVUSGCr99ddfu4Mff/zR4MMEHQk0GoFGqxcaWVhC2UabZt555zWYK1U7DK3BPEvivvjiC7P00kvLIbckUBcEalFYuuTii+yw/SbLU2TCpZdeZg448MDI/IAAcswxR5v7H3jIDX+O9MSTJRN45OGHncUYbqSwlAxfG/uy5Qp5/XX4CHd5zj493Q8SvoDJ0Bh/WyicpNdaQlgaO3as+eGHH9y8I/ihxRwEtTavxogRI5wZM76+x634gobEt99+65RrzBFUShpnzpzpllFHx2vhhRc2iyyySNmToiMMzPEAJX2BBRYIyk/SMpGVPxT133//3aVrxowZ5s9//nPs0uKYbwWm4nClCEtTp051y5fDfBUdWJSvchzybejQoY49yqduDJaSjlKejfIyZMgQt5IQ0i7lRc/XkcRiafjw4e79mjJlistvlB2sTlSKg8UYygzyCx0glEGpbwqFg3z95ZdfHDtYnJVa7iXs6667zhxyyCHusFxhCWUBQ+pgkoyGuvCUZxTajho1yqUfkzUiDXPNNVch7wWvSf6VKywVKovyYJSdr776ymAZ7yWXXNJ06tRJLpW0Rfn66KOP3JxWyPck5abUPC9VWEJdiDrsp59+cvFZaKGFXLkuKWGzPWPo5Oeff+6OUP9oy4Go8JD/7733niv/eG6Uw+8Z5hYEB5SVPn36RHmLPId78FuI9KF8gE051gp455H/+C1CGDr/K1VfSYKSlM+s3if87n766adOjPTrZYlP3DZtOSq1nMfFQ86XUy+kTYM8G1t8jYeIgbxBmYmzrNL3pNnXwtKNN95oDlQdtDRtlKzqvlLTltW7i+dqK06U7ySL5pQaX/ongdYkIF1dvcU+JrUfMappNd9u1mIJn1HRK7ZdXTsnkN220vGwYb+aZZZeMkB26qmnmWOPPyGT+Awf/pttzww1U6ZMdQuZLLjgQvZ3v31Z6Z1i2ygffvChWWjhBc38CywYGb+xY8eZb775ykyfMdMsbev63r3nKIvvkB+GmF9++tksvsSStm81T1nxLTU/b735JnP00Ue5fBBhKUn5mDJlkv2gO8SMsPObLrLoosa132yhKvX5LeE/a4slTEJV0P0y7I8c/mwnKWcbAjn7Y5azjQv3Z1/IHP6ydM888wzeZfdnzXYTBW3FiuAe28COvefjjz/O7bbbboFfeQ62Bx98cM525PPutZOH5+zXHPe38847513HiYkTJ+ZsozzwZxspkf5OP/30wI8dmhLpR5+0nZDAv50LxF26++67c2uvvXYoDTh+6KGHglvtROa57bffPuRH0mg7KoE/f8d+ucpdcskluXXXXTfvXtx/2mmnuTLg34fjc845J4gryort7OTs0t052/gOhQVOr776aigIO/Y/uNd2SmOfITetv/76zj/Cso06OV1wa5cXzyFsnefYR9k577zzclbIcPfbSX1ztsPnwtd+pQxgC97a2Q6nS+sKK6yQFz78P/DAA9p7aF9zw/uFMoj06WejDIpLmg7xn2T7yiuv5D0Tz0c5sJ18x0jiYzv+sUHaVYjyyibuQz4hnXhPijk7yXTu3//+dyj9CAMcDzvssNgwUOauvPLKvHzDvciX++67L1FdtfXWW7tygudJmuX5OIe/k046KUjGuHHjAn9IJxzqsC233DI4L+EcdNBBuULvH+61Q7RyqGfkHtkibDsXBrwkcignq6yySijv/HQgLXZoXBBeKWURvwHWqsul02eF56D+sR3GIGy988ILLziOuM+uAOp+S5B3q622Wl66C6W51DxHefbrI8RB/sBMO7yPV1xxRd49SB/K1H/+8x/tPbSv627UqXBXXXVVKH2oZ8TZBStcPOQ3z04cn8O+5D+2qL+QR+KscJs74YQTQn7gD/WTFVfFW+RW0oZypZ+BfcQl7jdM5x1+wxAHu2x7KIyjjz46eGaW9VUp5VMiUM77pPPuggsucL9HF198sftd0KxQbvBOF6vXhLVf9hBWsXKEdJRaznGPZmWHPuGUc+XUC7gxbRqkfKNegLNDs/LeqxdffDF4FyvRDkC9LfkHJmijHH/88XnxwDvht1FcpGf/K6fus+JwKG1oRxdydniu84+4+G0cyYtS392456GeFi7YInw6Eqg3AtJflf4r3kGUddSv0s8dO25Crlr+Lrr4kuC9XGSRRXO//T4iddzuve/+HOoW/b5j3364tP2703PDf/s99hkbbbRxrnv37rbNt5Xz8/KgV9y+DssaD7hwhOHvf4zMHXV0fnsecfjyq28in/W//z3hnoNnPfnUM7kfhv5k2xj/dHHUz0Kcz7/gwsgw8PzNN98iCGfQK69G+hsxcnTgp9/884f84H6kB/HQz8Wx/P37mGND9+C53w8Zavsqh4fuwf24B+koxFi4tfRWyn9W73zDCEvoBOjCEbWPhiIaPNpBNNB+ozqGzz33XMiPXdJVBxHsa+HBbywEntSO7rTaMfCRnQgdt2+++SYH8SyqwSH+7KSN6gnNuzfccINryIi/uK00DJvvbNrTjTZ0rKNEHB0mGlriUNHrRrdd8lsu5W3tkJ6ANe5JImwibfrZUfsQmNDAspNXFvWLtMGhU4VOVFR4/jl0UKOc5ob8Q2fTv9daFLhbS0lH1LOizqHj7j+v0HGUsIQf5yQcUP6jxFuJl/1SmieE+HFBGFGd5j322KNoOqTTLs+L2hZ6dyQuhx9+eHCrfkdRhs4444yC8Yh7fxAghBp5RtwW6UzS8LfzZhQNC88YNmxYkJakZRFCZFQ59eMs71TwgNk7Tz31VBA3lD8w8e/VxxCdolypea7DjNq3VgzBYyBw+gJv1D177bVXIEoHN9sdXS6OOuqoHDqy/v0QJcSJqIY6DSKo71cf4+MC6qpC8UM5jhM8cK+dP6zgM/BbiHz2nc47fMzYf//988K588473W1Z11dJy6fEudz3Secd8kXyRueB3sd1a7Eljw1t05YjBFZqOcc9mtX111+PU86VUy9kkQZhiHoD9bzmh33UFZVuB2gm2C+ljSL8yq370InVvy2FhCvNB/WBdmneXR2O3tfidFz7UPvnPgnUIoEkwtKYseNz1fIndSbqxzPPPDtVvCCgHPqvw/LqXb8eXnbZ5XKffT448lmrrPIXd78dgZC77fb89owO6+ZbbnWC0DrrRBspwC+EoWHDf8t71gMPPhTEc5ttts0TlPRzsL/33/+eQ/r8fNMC2vMvvJR3Hf7/GBEW1XUYiJ//LP/4n/88OBTum2++nevXb/6C94Hxl19+HbpPP7c19iksRdRoaJRIhkdZLEEskuvYokFx4YUXOisfu3JK6Acf19HB1053oqIaBLrBgvvR2fAdGmcSB4SXxOkGrtyLLToUl156qbMg0uc1BzRi0NmPsgSww7zyHg9rEAkL8TvuuONyd911V84OCbLK7+bBNfhJwgD+0DlBoxidR194wHntkB55vn9N+7vssssCf8i7Yg4NMQkXW1iDoOP21ltv5dDxkcYlvrrD4Ysu4qordfjBOfk7//zznV908HXZQGcNcYKFEvxoIREs8IXUd7rsaHENFnSwUjv00EPdLaWmw39O1LG2DpT8QkcRIuy5554bSpswjBKWYOUl17EFB5Sbe+65J4dOtb4GJlHi7MiRI0PvIZgjHm+//bbLL83SrtAWSo7u7OJZeCbE3pdfftlZo4E9zqM8F3MDBw50+aw7AUiP5D222gIt7h2FtZBdmclZvOi4Ix52KFReNOwk0iFOsHiyK5flcB4sJQ24P0641oHaISYuzqiLcI/86XRgX5fJpGVRd9jBCWUV7xL4QgCXZ2GLcuQ7P7/EP6waUA/gHp1ePMNOKBsKxg8jSZ7DMhFpludhi/gKE7EiRSdwww03zPMHwQQdc3S+dBh2yGQobjjQ5UKXJZQLWJOANdIgTtc3EjbeAZQhWMvouh3XdV0BMfzqq6/Os3RDufEdGtfamg6cwRxph6Bv5xUL0oZnFOKu4wDRdsCAAc6qEEJ4JeqrpOUTaU7zPum8k7zAFgLotddem4NQ41sVohz5LotyVE45Rzw0Ky0slVovZJEGxEeXbynLeC8QT7zvqHfhKtUOQNiaieQryn/SNgrCSFP36eejzolz+vdUWyimfXejnmcXqQjedzDBhzs6EqhHAsmFpQmzO/2tt4VQInUUtq+/8aaNU/nxOfmUU0PhbbDBhrmBl12eu+XW23KHHPqv0DUIH8N/+yPveSIs6XjBoufEk062bZpz8wQVWFmJ39122z138SUDc9ttF/6IiDj46XrgwYeD++R+WPvss89+uetvuNE+6zxrjd8kcsl1nPfDyReW8vlFC0tN/s4//0InxmmBCdwg0MnfHf+5M3jukB9+ColgYIN4vfDiy06IA1eJ7x577hnc58e7NY4bSljCj/6JJ55Y9E93QnxhCZ1Y3bBHhwGNXu1g9q8FAn+ok/6io3/oJQx0FqTAYIv44Oubdugkih+YXydxUQ1cdNa1862l8Ax0HGDOLw7DvHT60HDxHYbEIB3oHPpxR4WMTp/EH8MJfacbTfCHl9r/iut/LdWWF3i+hI9tlICBZyJvxF9UB92PF4aRiX8wQFq0gxksOuoyFE6uaasBO8eSnM7bgj/KFDoyvvPFEt3AF78+N5RVvwzDb7npkOf4W/+9wHP9/IJFlm+B4+cLLOSEL7YQJP3yA2FXv6MI03dgLOFgOJpvbYHjuLzXYgEEBt/ZeZpysPIoxWmh9dZbb429NeodRTnXDnEXARNpFGFS/KAMSmcL11HH+OUUll7CEH6RN0kcrLuEK/K4kEtaFhE31DFnn312qJ6RsJE+eSbi7KfF7ywjXu+8847c7rZ4ByQMbEX0EU9p8lznRdSQL9+KD51J32F4m44fOmjaRZUL/I6gox7ldMcb4WI4qPaLMiz5L8+FsGMnIQ8FBysouY4PEL5DWZbrKEdR6ccQZvGjrbgQlp938Pfwww/7j8m8vsIDkpbPtO+Tn3fg5Jc/xAdCpXDCFtbN2mVRjsot55pV1O9O0nohizSAiV++UTbB2XeVagfgOZoJ8qvUNgrCSFP36d9K1Hn6/UbY4nT9pN/vtO+uhC9blAFdp9x0001yiVsSqDsCeHfxh/Yp/vD+oQ+ih8KNnm2xNHpMk+VS3raFrn9hLVr0b8sfI5oscsqJH0QpHdYRRx6ZGzlqrBU2xuckff97/MnQkK8TTjwpdB3+fDHnX3a414iRYwJ/3343JBQGngnrpvc/+Ch4DuK/zz77BvGBRZOOB65riyWEAT+fD/6yyd9s/sOH/5HbwrZBJV1LLb10btTosTnNRwtLzz3fZLGkr+O5v/8RNjzwryPdGL4mz7n6muvC8VXlZPc99gz8bbbZ5s4aS/hiC+usNdQwxLfefreZi4QzO336Pp9P6Fjuk22Z9zeUsCSZWcrW75Q/+OCDQWYjnLghaJjTQj8HczOI0191/Ma6bgjpuSYwb5B2uoGov1RrP/6+38CNshTCPbohgg66FmwkTD2/hx6CIdeLbWHhI3wg0PhON9rw9doXauAfnWHdkPGHNOHLoTzD75zjft0YhhVIEgehTMIsNAzJDyupsOTf5x/D6kiejzLgO80N/mChE+XKTUdUWDj32GOPBfHCc6M6TnKvxB9bX1g64ogjgnCQJ76IIGHoL9EoA9oSAp1meQau4Z2KcpiDQ/xpcUa/dyjnWbhyhSVYSUU5WJ1I3MUKTfzpvIBI6Qtz4g/WcBJGofwS/9jqd6ZUYSmuLOrwo/aRtxJPbJG/2mlxAuJIlLgB/9qyBu+jdmnyXNeXUc/WIjxEljgHAVTS6c+/59fd8Bv3biB83fGG5U+UQ7mR5+Fd87niHsyJJn4giPhOW89B8I1y2toI1nra6bzDc1Cuo1zW9RWekbSuTPs++Xnnf4iS9CI/UX6FN4Qm7bIoR+WWc80qjbCURRrARJdv1EN2cQuNKrRfiXYAHqCZlNtGCUU04qBY3ad5RrXn9DA4MNMu7burw0LZ1XNpltMm1OFxnwSqnQDKPP4KCUvotFfD32uvvxH8rsBaJ02cDj74kCAsWM2MHjMuMrzzzmv+IIhnwppHP1cLS2eddU7omvg78MDmD1t4FsQmuSZbnTYMG5PzstXC0nrr/TVymBv8fj74iyBd+A1++pnnQmFpYen5F0ofCifx0cLSNbOFJbkmW6RT2gFg982334fiIv7+9/gTgb8z+p8Z6Uf8tuSWwpItQJKBUVtfWNKm/egEF3LaKkcPs4LFgX6WtqbQptEwMxd/MmGrPE83KLQ1kVyP2uoGLjrccQ6NJHmub9Ek9+hhT0hnKQ6CEDqZ8gxsfacbbVENWfGvG0fvvdc8zxKuo6Mjz/CtxnAdQzvkelyHBv60g5Ao92CLoXRRwpu+B/tZCEvIPwxFlOcjn3ynufmdU+233HToMPQ+hpNJvPCOFHLiD1tfWNJCIUTcOAcW2i9EInGwipBnRIlv4g/5Jv50QxhD0+Q8Oi1JhVsJN2pbjrBU6B3FxOYSR4gM2umOlJ6oXfvBPjoiEobMY+P78Y/LFZYKlUX/GfoYXwFhuQFRQ+JqV8bTXkJWL1HWj+IZ1m8ShgyVkWtp8ryQsIRhwvJMbH3xW56PLcQ97Vf/Lui6G35grVDI6Y53nCUm5mmT50UNv0P4+G0RP9hqqwj9+4Tfo0JOhgL64pQWlvCuRX1AQLhZ11cIM2ldmfZ90nlX6J1GnDC5t/DWQ3SzKkfllnPNKur3OEm9kFUawEmXb1hBFXKVaAfgecWYSJwKtVHET9Q2Sd2nLR2jfuv0MDj9kSSLd1fHWf8eoT6MGp6u/XOfBGqdQBJhCaJLNfw9/fSzwe8KxJc0cYLQIb9RGLoVF9ZPP/8asjh67H+Ph/zqkTlvvfVO6JqEeeGFzR/S9z/gwEg/P/8yLIgP4oVhf3I/tg888FBwfYcddwpd0/6wv9FGGwV+r73u+pBfbR303PMvhq5JOJhcXNhgK+f19iC1OMnV11wb6efyK5r7eYfaoYX6fr2vh97Bcktfa839hhKWIICggVrsDw1cKRy+sKRfhkIdX1SaeggHLH+001/PsTKOOMwvgmfjOXDSadFferVVk2/xJOFEbZM2cPVXzThhCSKOMMKXqkLOLqnshsShc60bWXI/tn6HImmjTYt3WBFKO3xJ0F+A7TLS+nJo3pMhQ4aErhU60HmHuOMZEJjivkQjrHKEJczNhTk4MOeJ7lgLtyixLCk3xKmcdOC+KIe4SLziLCTkPvGHrRaW8NVZX/OH0sn9ssU7If5h1i9ODzXF/DWYWynuT+7X7xHioesA+EH6kIcwcy7HZS0s6TlfdN2AuOk6CoJpXNp1/RQ1nDUqnUk6kHJfKWVR7oHojHnJ7FLeoS/gkk/Y+sPEtDhRSFjCPHgSjm8NkibPpY5G2L7FEuYZkmfCXyGnhU7co+fmS1p3S/i64x0nLGkroDhhCeFJ/LHVQyZ12lAHxpUznNfx0WEkzTvEI8v6CuElLZ9p36dS8k5bR+k6SbNOU47KLefFWCWpF7JKA/JOl6e48g1/cJVqBxRj0vT0XGjYv99GET/YllP36cVg8JulhV+EqesmtHvF6bwo992VsLDV+YGw6Uig3gkkE5aahoc1dfJlH1sITi13/M47zf01/I6X+/yhP/4Sag989fV3s9MRnZ4NNmieWxLDvprTPC40FK5JWMrncdNNzYvGNAlL4if8PN1GGf7biFD68oWleP6HHdY8YuLkk08NxTdfWJK4NIeXNxQuyOPm+B7kDYVrYtJ8HcdHHdU8dycmHL/++htj/yTtGOKn+TbvN8ev+Vz4eeWWh7jwGkpYirLwiKr8dCfeF5a0lYRvIeOHhXlYJNPxxVY7PZTs9NNPDy7Js9E5htMdUvmCjdVzJFw9hCcIJGYnaQMXnQwJP05YwtA88RMnLEHI0SKV+I/aliss6c5G1HAePWQKc7iI08OlogQa8Re1xdc4PfeITg+Gl+gGnNxfirA0aNCgvAnO9TNkPyreSRu7iFc56ZD0+Fspt4gbrNkKOYk/tlpYwrumr+GHu5ATERb36LnK/AmmdZhx+xA8tfv5558jl1FF4x3vnO4c6/vi9vV7rEUw33/Sd1Rb/PnCkq6j4tLrn8ccPElckg6khFNKWUS6YdXpC3p+PHFcrrCkhw9G1Zvl5rnuvPnCEuYZkTT4lmXCSW/RyRP/ehW1pOVCwtIdvbiON+p2eVY5wpJOm4STZIsPDeJKEZayrK/w/KTlM+37VEre6SHiqFPFadZpyhHCK6ecF2OVpF7IMg1Jyreww7YS7YBiTOT5xdooaeo+PEOsAfHu6eFwehicb1Wu8yLJOyt+9Lsr6cNWrhezXNT3cJ8EaplAEmFp1GyLpVGj0ZEfl2ut4+++Hxq8o3hXMTF0OfF55933Q+GMxDxESFdM+vbbv3nxlVNPPS2Ufv3B5s3ZFks+H6wGJ3ULhCX/uhyLH2wxUbiOT76wFB/fs84+J3jevvvuF3peSFh6rsliSZ4vz/vNs1jyr+NYWyxdNdtiSe4X/7vssmsQD522QvsYKij3++G19DGFpYiaTXeSCwlL/rxHflBaTPDFl8GDBwcFB2M34fCFWgqOdM61iISJneH0ylhoiCZ1SRu4WQhLmBvGb5DDegTLZIMbhCRJK7aVEpa0gIROm4gV6NzL82EVVI6D1YgeGinhoXOsG3gIW5cF33pNP1ubtiM8MIQoAes4lEU9XCatsCTPLSUdco+/1e9Msbl0hBO2WlhCB1hf85/hH2uxRg81hdWKDgcd/2J/UZYusCDB0BE9tlrCxTl/cl0/fvpYx7UlhSXkS7G04zos7pK4JB1ICSdpxwsdXcRB2GILvhDf8YUfloC6c1YpYQnxLifPddx9YQnDhiRdSeZk02FhCI+4pHW3+E/S8U4rLOm0IY2Ie5I/PUymFGFJ0pZFfYWwkpZP/TtWzvtUSt7BelnKC1iK06zTlCMJr9RyXoxVknohyzQkKd+SVmwr0Q4oxkSer+su/+NX2roPz8BiIVJm9HA4PQwOVoPa6bwo992V8LSlpR6+Kde5JYF6JJBEWGqyBGkSlVpzHxNRSx2B7T333OcEoVLjBMsiHU6x+7WIcpJd7U3718JS3FA4X1jS9+t9HScIS/palLCkr+v9E+0k4xIW4q6vhYSlCg+Fw5A9iQe2WBGu2F+xYX46LZXep7AUUePpTrIvLOmhXFiZrZDTEy1jngbf6a/zEyZMyOmvSGiMwuELkRQwNGTgJA5o8OJHPalL2sBNKyxhyXGdNliKRVnxSLqwrZSwBDZ6jgx0SuDQOJfnFxty5W4o8A8Cg54IWcLVHagkwpK2QkEYCFOs1OTx2k9WwpKEnSQd4tffYtiGpDtqVSftX/xhq4UlrHqnr8V9HZWwNt9888C/Xm1Kr0KFOamycJjXR88jhXj6X4ELPaclhSWpHxDHYuJ3oThHXUvSgZT7yul4QfzFhNG+052zSgpL+rlJ81yLQb6wpIc2+VZx+lnYxzAWXf4xD4q4pHW3+E/S8U4rLOm0JRE7JG56W46wJPenqa8QRtLymfZ9KiXv9AcPbeWsWacpR8JOb5OU82KsktQLWaYhSfnWacR+1u2AYkzk+bru8oUlfa2cug/P0EPI0e6SxRp0uYUf7XRelPvuSnhog+6///5uyD7aOXQk0AgEkghLEHRgLVIN2223a+7z7GPnRC0nXt99/0OojYJJpguFs/HGzdNVXH75lSEOK6vVz9986+3IcG6+udkAYP/9rcVSDE/dbhpmV3jT/u7XcyztsGPkc8T/7rs3L/h06mmnh8JZY401g7Q/+9zzkeH89ntzfx1xknD19qCD/hGEc9XV10SGgxXyJE0XDrg4MpxC3PXzWsMfhaWIGrCQsKQFCTQsCjnt99RTT83zqofywMJFhvD41k3SiILCqxupsAAqxel7IUrFubTCkp7YG3HXK3bpZ8qLg20lhSVYT8mz8EUPgo8clyIO6LhH7cPiTJcdsTqDXy0sYc6kKIcyIvGKG5pUSWFJ4lQoHeLH3x5wQLPJq7Ye8v3hWNKIrRaW8EOtr6HTGeeQh9qSQLPWw0yLTSQeF37ceV22EVe/wR53nxaWolYolPuSvqO6HPhD4VAvCMdyrfEkPv42SQdS7knS8fInh44SoBGe7oC1lLAk6SiW54WEJb2qGvIE4mmc8/2iLIhLWi7Ev/xm4JmVGgqnlzsv9SOHxDONsCRhlFNf4d4k5RP+0r5PpeQdOujy7qJ9IM4vG+WWIwkvaluonBdjlaReyDINScq3n8as2wHFmMjzdd2lhaUs6j55hhbN3nnnndwPPzR3AKN+A7N4d+XZ3JJAIxJIJiw1Dbtq6ty37v5tt90R/LbgN+a99z+aLWokj9fIUWHLJ4g2cWkbNvz30OTdDz74SMhvWFh6J3RNwswXlqLjKr+Z2DYJS83+wsLSTpHPwfMwP9IiiywSMLrp5ltCftffYIPg2j333h+6JvH97ffwx3E5r7daWLryKhGWmuMLvwMuujh41nbb7xD5LB1mte1TWIqoEbU44Fss6QlPUYgxTCPK+cN63n333Txvepgb5v8QKx89FxBuwhxM8uJgSJTsY1WzUlzSBm5aYUnPZRI3KbA2n0Z6Kiks4QdA5i4BYz1xJYbmZenOOOOMIH+wLw4TEku+oVEc5XQDNG6ZeQwNknCytljScYpLh/aj9/XEyGCsrbW0P78xrYUl+NNzckWlT8K64YYbAg7o1Orn6UY1WBWbC03CTLpFvCQPfJEjLozjjz8+uOfEE0+M8xYSjguJv4WEJV1HIS9gQZiVQ30nacfWzz/9nCQdL50OPVmxDgf7eqJ2n3lScULXS1FzLPnP1MeF8ryQsKTrHvDq37+/Dja0rzuH/jw6SetuCTBJxzutxZKfNqwyV6pLmnfFwi21vkJ4Scon/KV9n5Lm3RC7gIR+t7Sw7rMutxwhPYVcXDkvxipJvZBlGpKUbz+d+vlZtAOKMZHn6991LSxlUffJM3T7Au1FfFCQsgTrJN9pFvBXzrvrhymWUv55HpNAPRLAO4Q/lHv8weIY/Ros8CIda8xBBOsRCDLYxzZ03ILXf7Krp80511xBvQCh5Nfhv4Xj48UPFjW33/6fUPxh7SR1C6x4QulR9w+8rHnVWawkh2fp9Gth6Y03347kc1PIYumA0P2O52x+Eh9sIWgFvO31+x9o7jPv4CyWVH4o/jfe3DxROML5bshQFydJ3+577BmkG6vV6efL8/RqbggjKv+POPKoIJyj7CTdEr4uHx99HF5N+MUXB0XyiQo/FJ5Knw5f4lup+6X8Z/Xe568b74UsD8TLh5cQL6O8mPKierekOtRf4bKYvBtD1rSlBL5m+sOVMIRHz8sCS6MopxtjmPRQXg5/5RD9pU2PS/VFr6hn6HNJG7hphSW93HuUdc7QoUPdKluSXmwrKSyBAZYXl+eJyITjQh1jzU72kRfoAMct960n0tSrBurJzvFc5IXvdMcyyqoFk/miQSzpiBJekjZ2y02HH2c5HjYsvOTnEUcckbdCDQQfbZ4fxV83tnEdgpXvwFK/g1hG3ne6MY93C8+OcpjjAn/a4ZmYBwurL/oOIo1+NtKdxGFInuQb6oY4l/Qd1Zx8iyW/jkK58usoeT7Kcdw18eNvJR3Yon6Nc0nKol72GoK+v+oe4qbrIzyzEsJSmjwvJCyBjRa0EH+9CqiwwxwomiuW79YuabmQe5J0vNMKS3iWnzY94bjEBVuUSUwm7LukwlLW9RXikaR8wl/a90nnHfIYE0n7VrxoC+jhxKjn/XfBZ11OOSq3nCdhpctvXL2QRRqQJ0nKN/z5Lqt2AMJNwgT+9G+RFpayqPsQPhzKivwuoT4SIR7n9EeXJt9N//28KPXdlbDQnpPVeTH/J9rxdCRQ7wSkvyr91yhhCZ18WJNIBz58DCuVlr1+z733hdoZGKr2xZdf58XvVyvO7Ldf8yiERx97fHZcx9r210uhMPr3Pyvv/pcGvRqyVjr8iCOD+4VHSFhyQ+GaRDe5ju3NnrAU5tXMT//2wGKpiXfTdW2xNJcV1mBtpK/jOa+98WYO1yScnXba2eWbft7xx58QXF922WWdhZO+PnDg5cF1CUdfb9ofm8PQNrm+6qqruedElY+//W3TwN9SSy2d+/iTz2YzlPLUlL7PB3+Z+2zwF3l8ka6o52u+lbouOk9WdUDdC0sApceno4CgkQMhAJYwV199dWAdI4UnToRAWPoLofj3V5xCw0CuyRYNz1KdbuCiwRHndEcOnY8op4USf+ge5jGSeGKL8NDQREMYX5alAaT9VFpY0pN3ynNLHUqIMLSwgxXgYHWGoRjIe3+lOHQWxPmWOhDcIA6gw4ShW3ADBgwIuIERhpShIYo5i7Qlj8S/XGEpTTokPVFb3dBGHDEHEiYWRScZqxxG5XuUsAehSNKILSbWvv/++3OPPPKIW/1NX4NICLa+w1w3/vMw5xkaz5hTBO8w8k/iKffjuoSP+2Fxh0nzkcfo/EuDHX7iBGMJS28x1FXCxfaCCy5w8x8hHnpOqqTvaCFhCc/VX7DxPHDC/C14N2E9iRUrZY4qlLtSnBZPwQCTTGP4BSYA12VelwdMFhvl0MHWXNBBQdwQT3QCtWgj/rIWltLmuY6jP8cS0ow06o4w0gE2EJ5RpvWQaFyDEOi7pOVC7tPPq9RQODwLadMfURB/iMqoD/EbgbzCio14l/DnW88lEZZaor6KK5/CM837pPNOyjAEdtT74IStLkPwg/O+S1uO0pTzJO9yknohbRqESZLyLX71Not2gISXhAn8xglLYCHlAdty6j6JC7Z473R42NfDKbVf7Kd9dyU8bVGPBZHm0gAAQABJREFUZ8o8lnKdWxKoRwJJhCVnGQJrpVFjmqxo3H7rHh98SFO7V9cV++23f+7iSwbaPsjFOVj1wMJIX7/iyqtC8T/88HBdg3tutUPt7rzzrtwpp5wWuhfDy3786ZfQ/eCx8sqrBP7eePOtvOtgF2Wx1MQ0zFPH9ddhsFhqvn7f/c0WS+Jv8y22yF1zzXW5u+6+17bFTgmlF2mHWNOcd0359dzzLwbxRTjrrrde7rrrb8ydd94F9qNQ8zA5eQa2zWE0x+eJJ58OhXP6GWfmXnr5ldx/77rH9jH+O/ueMblPPh0cihfCO/Oss3OPP/GUbXMPcv4PsCvl4TwEwuZntW75QjwoLEXUeIWGwol3bYGgC5K/j45DIYdGt74HjZAoJ51A8QuhoVSnG7ho5Me5tMISKlxYh0lco7ZoGGrrq0oLS0irzGEl8cGKX6U4NEp33nnngumSsNGJ952eVFr8yRZho1OuhSu5prcQpOQ4jbCUJh1+uuQYIpEWXiSeeot3S1stRQlLEFZ1OvX9eh9iiZ7gWOIhW1j+oZzre+L2v/vuO3cbOsO6XMb5R7hRw1vl2VFbnW4drl6iOek7WkxYwvOvueaaRGlHnpTifGFdp0WLZEk7XtqKQIcl+3gndH2StbCUNs+1KBAlLIEtJppOUq5Qz/viC+5PWi7gFy5JxzsLiyU8C/Pr6OdJvkVt/dWpkgpLlaivkpZPpBGu3PdJ510UE/9coWGaacpRmnKehFXSeiFNGppyIln5Fr/+Nm07QMJLwgR+44QlXEtb9yEMcf4HPZQrfLgq5NK8uxKu/1sd9zFS/HNLAvVAoDRhCZ396vk7o/+ZidqGEFkeevjRvLhDvNll1/Dqy/7vGI4hKr319rt594NFWFiyQ+Ei+MQLS2GW+tlNwlLz9ShhSfv396PSK3Fbe511CnLD8L/Nt9gy8CP3+VtYPPnPxTEsk7TfJ596Jk9ciroP597/4OPQvTqclt6ve2Fp0KBBQQZmMRROV4jouMZ1pGENE/elWIehO4goHDCTj3KwBtAFqpzVNyDeSBiFLJ4wcbT4i2skaDPuqAmwIZLoiUglPIgBl1xyiRsGiblm5LwvLOmlcgvNg1So0eZzRIdUnodtqUOAJDwZlqHDkn2IBHpuDLkHW6TRb4TJfbBogUOZibJiQ8cNX83hpBMXJSwl5YZwyk0H7o1zGN6qJyGX9EGIQXlAucD8IHI+SliSsCHO6U673IMtJmHX1jFyj79Fw9m3CNHhYNJxWCNpB5Pmm2++OaeHp+p7MGRFhCh9X7F9DBmIEhfARspi0ndU1xuog+LcW2+9lcN8PTr+so/nYj63JBz98GGZKeHorR66mLQsgjcsuHQ42Ef8YFWG+MGCQ677whIspuQaylic00M//M57mjzXgmHU8EmJD/IYX/eRLomvbCHuoY5HPKJc0nIh9+phVXFlFauayvPxMSHO6fji/Y5ysKo999xzY4VxlFH8Fvsuad7hvqzrq6TlU8e5nPdJC0v43cUk1lF1POqbYh+iEJc05ajccp6UVZJ6IW0acH+S8g1/US6rdkBSJoXaKGnrPp0+dHTRvpJ3GmUtrj7R95X77koYsOiVZ6KuwNBROhKodwJJhKURznJmTG7ESPtn96vp+EVr9VJIHNpyq61yH3z0iRUr4uOPyacXW2zx4P2XegDbQ6xl1Ld2Fbm4+7VI876dSDyKz53/vTsIe7/9D4jlpy2ssDKb5n3f/Q8EYey5515uzqh+/foF5yTOsPoZ9OrrsfFF/L7/4UcrHG2Rdy+GtN19z70ufvvbeCJMxCkuvzGH0gorrpgXDu752c6FpeMP66l9rUWZxNPf7rXX3rl33/sgkl/c83X4cfkTlR9Jw8taWGqDysQmPNb9OnyEuzZnn56mbdu2pk2bNu4PJ7Gvt+6gBv7Zr9Tm22+/NXalFjPvvPMa2xk288wzTw3EvPJRtPPXGDsXlLEdI7Pqqqsa+0JX/qExT3jiiSfMVltt5a7us88+5rbbbovxmey0bbSZr7/+2liRzcw333zGdjCNrRiK3mzn5TF2eKSxQ7gcj+WXX9707NkzuM/+YLlwreBhunTpYlZfffXQ9cBjRjvlpqPQ4xEm4j948GBjv1qYFVdc0bRv377QLZHXUJ2ArxVlXBlacMEFje2AJeKsAwRrlEOUx86dO5ulllrKLLzwwqZdu3baW94+yu1nn31m8I7jvV5mmWVMhw4d8vwlPYG8/f77712YuAfpQblJE2aSZw8fPtzVUSh7diy5Sz/KbBpnV8QzX331lWPTp08fxybN+21FRpfXdmU4s9xyy7k4ym9CmniWem/Wee4/31rkufcCZRrvBMohynQ574cfdmsf473HO2+tUowdamOWWGIJs/jii7t3Lqu4VaK+KjVupbxPqHukfrcdb2OFJvc4OxejsQsLOE5WEHBlAG2ipC5tOapUOS+lXkibhqSstL+s2wE67HL3q6HuS/Pu2g84xlrEmY033ti1WcrlwPtIoFYISFdXb7GPNt6IUU11fOdOHV1yciZnbE/X7qN73Mb+l+Om1DYft/x1/D4N/XGo+dn+Zs+YPt3Mbfuui9vf7T5z9GmKnIu1xDc/fkjzV1/btvVPP5vJkyeZ+edfwCxp29fduzX3hVozfS+88LzZZecdXVp22WVXc+11Nzj+Pw790Xz+2aemS9eu5k+LLWYWXmhhl9Ik+TNs+DDztW372rntbP9sDdOrd6+S8zdnF8Ee+sMPts072JWKBSy3Py/7Z9sX6BhZPiZOmGj7VF+ZX3/51XTs3MkssfiSrv+APkxr8gVY//lTpk5zvPvNO6fbpv3XkMJSWmi8v/IEUPnZuaCMnbPIPezFF180G2ywQeUfzCeQAAmQAAk0LIE4YalhgbRiwtkOaEX4fDQJ1BEB1CVweot9LSx16lj+R8g6QtWqSYGwtOsuO7k4bL/DjubGG29u1fg0wsOnTpvukklhqRFyu4HTaCd/NrvssosjYIeSGTvZcAPTYNJJgARIgARaggCFpZagnOwZbAck40RfJEAChQloQQk+cUxhqTCz1rhKYanlqVNYannmfGILEMBXAwzF6NSpk7Fzcxi7spixE2S7J9sJhs12223XArHgI0iABEiABBqZAIWl1st9tgNajz2fTAL1TCCJsNSxI6Z/sEPgYN2EqV78rRsEFXFe/PF6an4vvvBCs8XS9juYG266pTkfyDc136jyPY0WS/Vc9TVu2jDkbZ111jGY0wINe3EHHXSQue6669z8XnKOWxIgARIgARKoBAEKS5WgmixMtgOScaIvEiCB0ggkE5Y6qJmVrJ5hH2FlJG5bkMOLEUPhmA+VLYe0WCqtLqHvGiFgV5kydjngUGztimzGrjRWdMLm0E08IAESIAESIIEyCVBYKhNcBrexHZABRAZBAiSQRyCRsNSh9AVr8h7EE6kIOIulXWfPsQSLJc6xlIpnkpunTZ/hvHGOpSS06KdmCNhlrM1DDz3krJXWWmstN1E3ViiiIwESIAESIIGWIoDVts4++2wz3a6407dvX3PMMce01KMb/jlsBzR8ESAAEqgIAQpLFcGaeaBYofaO22914a608ipmyy2bVgbP/EEMMCBAYSlAwR0SIAESIAESIAESIAESIAESIAESiCaQRFjqIBZLcXMmSdC83jQHlQwSDHjMBhQczx7EFhzzuiMQ8KgOPtNpsSRvNrckQAIkQAIkQAIkQAIkQAIkQAIkEE0gqbDEOZU4p1SjzelEi6XoOoNnSYAESIAESIAESIAESIAESIAESCAgkEhYat/O+Y8TFiQwXo+eTJp8mgjUWvmYPmOmizjnWJISzC0JkAAJkAAJkAAJkAAJkAAJkAAJeARKEZa8W3lIAnVNgMJSXWcvE0cCJEACJEACJEACJEACJEACJJAFgSTCUvt21mKJY+E4Fi7O5KhOz89oTYulNm3amLZt2xps4fxtFi8/wyABEiABEiABEiABEiABEiABEiCBtAQSCUt2KBx1JepKdaofyVTredsWt1ga9ttIgxey7xw9nKhEYSlt9cb7SYAESIAESIAESIAESIAESIAEKk0gkbDUrq2LRpywIHHk9WjDLvJpIlBr5WPGzFku4i02x9Lvf4w2M2bONH169zDt7EsHKyX9h9iI5VITUv4nARIgARIgARIgARIgARIgARIggdYlkFxYos0SbZbipKH6PA+Np23bNmbeuftm8pK2sS8bSMW6ESPHmmnTp5vevbqZDu3bh0QlEZRkGxsIL5AACZAACZAACZAACZAACZAACZBACxKQrq7eYn/WrFlmxKhxLiYwnnBO9AOJH4+bTJTIo+7KBxQgvAMdOrQ3c/XtLTmcaltUWBozdoKZNHmK6d6ti+nSuSOFpVS4eTMJkAAJkAAJkAAJkAAJkAAJkEBLENCCEp6H4yhhifZKtFcSHbERtk3vQM507dLZGhB1z+RVLCosTZ4y1YweM950tGpWr57dIoUlxIRWS5nkBwMhARIgARIgARIgARIgARIgARLIgEASYQnDgSgsUVhqBEFJynmTwGrMHL16mC5dOmXwplk9yAYKhrEOlzGBN1zfOXrmzbMkN1JYEhLckgAJkAAJkAAJkAAJkAAJkAAJtDYB6erqLfZDQ+GssNQ05quRpAWRGLhtRElt5qwmCWi+efpmZiBUVFhCZSDD4bp07mR6dO8SWC3hmghKssU5OhIgARIgARIgARIgARIgARIgARJoTQJaUEI8cOwLS23t4lQ0WQIc+0edqe455KyohKzOchicDa64xRI8zZgx0/w+YjR2zRx2dbgO7dsF4pIWlPS+88x/JEACJEACJEACJEACJEACJEACJNAKBKKEJVgr4bxM3q2HwkkURV/hcRMB8mjSm+qhPMyaba0015y93eJskqa020QWS3jIuPETzYSJk017Kyphgqd2bdtGWitRXEqbJbyfBEiABEiABEiABEiABEiABEggLQEtLMm+Lyw1GSy1sVYcOWuwwy051G85sHqqc1iYrWePbmlfr9D9iYUl3DVi1Fgzbdp006ljh7yJvHWoFJc0De6TAAmQAAmQAAmQAAmQAAmQAAm0JAERkvBM7Pt/gcUSlCU6EqhzAq782zR2sIuyzdW3d+apLUlYmjlzlhWXxhhsO3XqaFWurgZjUkVIkq2OZdQ5fZ37JEACJEACJEACJEACJEACJEACJJAVAS0qIUxfVMKxCEuBriRzDEkkeNw05xJ5NBGo4fIglkoY9tm3T69Mh8BJ8ShJWMJNsFgaPXa8E5cwLK6XNaHCVgQk2coDuCUBEiABEiABEiABEiABEiABEiCB1iAgIpMvLmlhSYbAxc1ezetNQwTJR2abCm+ruXxI+Yeo1Kd3T9PRjj6rhCtZWEIkYLEEcQkiE1zXLp1Mt66dTbt27dwx/lFgClBwhwRIgARIgARIgARIgARIgARIoIUJSKdab0VgEmEJ0zKLMMAt55iqnzmmml82DH/DPNkd2rdvPpnxXlnCksRBJvSWY6hfmH8JEW9nFbG2aoJv8cMtCZAACZAACZAACZAACZAACZAACbQEgShRCedGjh7vHi8zLPkjnfy48Xp4ZBz5hAlUS/lAPLSrxETdOnzZTyUsIZAZM2eaCRMmm0mTp0iY3JIACZAACZAACZAACZAACZAACZAACZAACbQCga5dOptu3TpX1EpJJyu1sCSBQfWdMnWamTp1upkxY6bBMo4z7Z8oxOKPWxIgARIgARIgARIgARIgARIgARIgARIggfQEMH8SpiXCUDeMIOvcuWOLT02UmbCUHgdDIAESIAESIAESIAESIAESIAESIAESIAESqCUCFJZqKbcYVxIgARIgARIgARIgARIgARIgARIgARKoIgIUlqooMxgVEiABEiABEiABEiABEiABEiABEiABEqglAhSWaim3GFcSIAESIAESIAESIAESIAESIAESIAESqCICFJaqKDMYFRIgARIgARIgARIgARIgARIgARIgARKoJQIUlmoptxhXEiABEiABEiABEiABEiABEiABEiABEqgiAhSWqigzGBUSIAESIAESIAESIAESIAESIAESIAESqCUCFJZqKbcYVxIgARIgARIgARIgARIgARIgARIgARKoIgIUlqooMxgVEiABEiABEiABEiABEiABEiABEiABEqglAhSWaim3GFcSIAESIAESIAESIAESIAESIAESIAESqCICFJaqKDMYFRIgARIgARIgARIgARIgARIgARIgARKoJQIUlmoptxhXEiABEiABEiABEiABEiABEiABEiABEqgiAhSWqigzGBUSIAESIAESIAESIAESIAESIAESIAESqCUCFJZqKbcYVxIgARIgARIgARIgARIgARIgARIgARKoIgIUlqooMxgVEiABEiABEiABEiABEiABEiABEiABEqglAhSWaim3GFcSIAESIAESIAESIAESIAESIAESIAESqCICFJaqKDMYFRIgARIgARIgARIgARIgARIgARIgARKoJQIUlmoptxhXEiABEiABEiABEiABEiABEiABEiABEqgiAhSWqigzGBUSIAESIAESIAESIAESIAESIAESIAESqCUCFJZqKbcYVxIgARIgARIgARIgARIgARIgARIgARKoIgIUlqooMxgVEiABEiABEiABEiABEiABEiABEiABEqglAhSWaim3GFcSIAESIAESIAESIAESIAESIAESIAESqCICFJaqKDMYFRIgARIgARIgARIgARIgARIgARIgARKoJQIUlmoptxhXEiABEiABEiABEiABEiABEiABEiABEqgiAhSWqigzGBUSIAESIAESIAESIAESIAESIAESIAESqCUCFJZqKbcYVxIgARIgARIgARIgARIgARIgARIgARKoIgIUlqooMxgVEiABEiABEiABEiABEiABEiABEiABEqglAhSWaim3GFcSIAESIAESIAESIAESIAESIAESIAESqCICFJaqKDMYFRIgARIgARIgARIgARIgARIgARIgARKoJQIUlmoptxhXEiABEiABEiABEiABEiABEiABEiABEqgiAhSWqigzGBUSIAESIAESIAESIAESIAESIAESIAESqCUCFJZqKbcYVxIgARIgARIgARIgARIgARIgARIgARKoIgJFhaUJEydXUXQZFRIgARIgARIgARIgARIgARIgARIgARIggbQEunfrkjYIdz+FpUwwMhASIAESIAESIAESIAESIAESIAESIAESqB0CLS4sZfXA2kHMmJIACSQlIJaNrCeSEqM/EGC5YTkgARIohwDrjnKo8R4SIAESIAESaCaQ9W9pYosldhibM4F7JEACYQJZV0zh0HlUrwRYbuo1Z5kuEqgsAdYdleXL0EmABEiABOqfQNa/pRSW6r/MMIUkUHECWVdMFY8wH1AVBFhuqiIbGAkSqDkCrDtqLssYYRIgARIggSojkPVvKYWlKstgRocEapFA1hVTLTJgnEsnwHJTOjPeQQIkwGG0LAMkQAIkQAIkkJZA1u1wCktpc4T3kwAJcK4cloGyCGT9g1ZWJHgTCZBAzRFg3VFzWcYIkwAJkAAJVBmBrH9LKSxVWQYzOiRQiwSyrphqkQHjXDoBlpvSmfEOEiABWiyxDJAACZAACZBAWgJZt8MpLKXNEd5PAiRAiyWWgbIIZP2DVlYkeBMJkEDNEWDdUXNZxgiTAAmQAAlUGYGsf0spLFVZBjM6JFCLBLKumGqRAeNcOgGWm9KZ8Q4SIAFaLLEMkAAJkAAJkEBaAlm3wykspc0R3k8CJECLJZaBsghk/YNWViR4EwmQQM0RYN1Rc1nGCJMACZAACVQZgax/SyksVVkGMzokUIsEsq6YapEB41w6AZab0pnxDhIgAVossQyQAAmQAAmQQFoCWbfDKSylzRHeTwIkQIslloGyCGT9g1ZWJHgTCZBAzRFg3VFzWcYIkwAJkAAJVBmBrH9LKSxVWQYzOiRQiwSyrphqkQHjXDoBlpvSmfEOEiABWiyxDJAACZAACZBAWgJZt8MpLKXNEd5PAiRAiyWWgbIIZP2DVlYkeBMJkEDNEWDdUXNZxgiTAAmQAAlUGYGsf0spLFVZBjM6JFCLBLKumGqRAeNcOgGWm9KZ8Q4SIAFaLLEMkAAJkAAJkEBaAlm3wykspc0R3k8CJECLJZaBsghk/YNWViR4EwmQQM0RYN1Rc1nGCJMACZAACVQZgax/SyksVVkGMzokUIsEsq6YapEB41w6AZab0pnxDhIgAVossQyQAAmQAAmQQFoCWbfDKSylzRHeTwIkQIslloGyCGT9g1ZWJHgTCZBAzRFg3VFzWcYIkwAJkAAJVBmBrH9LKSxVWQYzOiRQiwSyrphqkQHjXDoBlpvSmfEOEiABWiyxDJAACZAACZBAWgJZt8MpLKXNEd5PAiRAiyWWgbIIZP2DVlYkeBMJkEDNEWDdUXNZxgiTAAmQAAlUGYGsf0spLFVZBjM6JFCLBLKumGqRAeNcOgGWm9KZ8Q4SIAFaLLEMkAAJkAAJkEBaAlm3wykspc0R3k8CJECLJZaBsghk/YNWViR4EwmQQM0RYN1Rc1nGCJMACZAACVQZgax/SyksVVkGMzokUIsEsq6YapEB41w6AZab0pnxDhIgAVossQyQAAmQAAmQQFoCWbfDKSylzRHeTwIkQIslloGyCGT9g1ZWJHgTCZBAzRFg3VFzWcYIkwAJkAAJVBmBrH9LKSxVWQYzOiRQiwSyrphqkQHjXDoBlpvSmfEOEiABWiyxDJAACZAACZBAWgJZt8MpLKXNEd5PAiRAiyWWgbIIZP2DVlYkeBMJkEDNEWDdUXNZxgiTAAmQAAlUGYGsf0spLFVZBjM6JFCLBLKumGqRAeNcOgGWm9KZ8Q4SIAFaLLEMkAAJkAAJkEBaAlm3wykspc0R3k8CJECLJZaBsghk/YNWViR4EwmQQM0RYN1Rc1nGCJMACZAACVQZgax/SyksVVkG12N0pkyZYp599lkzfPhws/XWW5v55puvHpPZ0GnKumJqaJgNlHiWmwbK7Iik8rchAgpPJSLAuiMRJnoigUwJfPPNN+aZZ54xyy23nFlnnXVM+/btMw2fgZEACbQsgax/SykstWz+NdzThg0bZpZaaikzfvz4IO133XWX2X333YNj7tQ+gawrptonwhQkIcByk4RSffpJ8ttw6623mhtuuCEE4MgjjzS77bZb6BwPGo8A647Gy3OmuHUJnHzyyeb8888PIrHkkkuazz//vObEpQ8//NAceuihQTqws+6665oBAwaEzvGABBqBQNa/pRSWVKn56quvzNixY9WZ8G737t3NIossYrp27Rq+wKNYAmeeeabp379/6Poqq6xi3n///dA5HtQ2gawrpkrRQCPolVdeMejUQuxcZpllzIorrmiWX355vteVgl4g3FopNwWSEHnpvffeM5999pkZOnSoGTlypJl33nnNEkssYTbbbDPTo0ePyHsa7WSS34YjjjjCXHnllSE0l112mYG4RNfYBOq17sgiV/H79tNPP8UG1atXL7Pooouajh07xvrhBRLQBMaMGWPmmGMOfcrtP/nkk2bzzTfPO1/NJx588EGz0047haK47bbbmkceeSR0jgck0AgEsv4tpbCkSs12221nHn30UXUmeneBBRYwyy67rNl4443NQQcdZPAjTRdN4NhjjzWXXHJJ6CI6VuPGjQudw8F1111npk+fHpzfddddzdxzzx0cc6d6CWRdMWWd0iFDhhiUp3fffTc26D322MMMHDgwssyxbMZiS3Wh2stNKYmbNWuWueOOO1wZ+uSTT2JvhaCCL7+1MISgkuU+yW9DtQpLTzzxhPn++++DPMaQkJVXXjk45k7lCdRT3ZE1rcsvv9wcddRRRYP905/+5D6qrL/++ubAAw80+HhKRwJRBP7444/IttHVV1+dZ/0TdX81naOwVE25wbi0NoHMf0tzRdz4CZNy+GsEZxXrnM3gkv6sSJJ7/fXXGwFPWWn89NNP83ieeuqpeWFNnDgxz9/999+f548nqpNANdcTb775Zg7vaZJ3G/7uvvvuEGSWzRCOTA+qudyUktDRo0fnSvn9WHPNNXPfffddKY9ocb+VLvdJfhsOP/zwvPfWWiy1OAv/gWuvvXYoXocddpjvhccVJlAvdUclMOEdSfJ7p/3gt++1116rRHQYZp0Q2GWXXfLK1YgRI2oudQ888EBeOvD7TUcCjUgg699SWizZX1ZxSS2WxL/efvHFF2bppZfWp7g/mwCGHt1zzz3Gdr7MVlttZbbffvu8YUcYhujzs8JSnrkqoVYngcwV74yS+eqrr5r11luv5ND0+8yyWTK+xDdUa7lJnADrEcOnV199dfP111+XcpvZZ599zG233VbSPS3puSXKfbHfhmq1WJpnnnnM77//HmSHFZbyhuwFF7lTEQL1UHdUBIwNNKnFUtTzP/jgA1rfRYHhOWNFJHPfffeZ559/3s2dirlSV1hhhZojQ4ulmssyRriCBDL/LS2mzmWtZBV7Xmtej/vibM2Fc3b4W57CbfM5OLf33nu3ZtRr/tnPPfdcwFK40mKpdrK1WusJ37JAyha2dphlXpnD+UsvvTQEnmUzhCPTg2otN6Uk0g6hjCxHUtairOXspKc5WDlVs6uGcl+NFktRlly0WGr5klwPdUelqMVZLCVpy9qVeysVLYZLAlVBgBZLVZENjESVEMj6t5QWS7b1Ly7KYgnK9g477OC82DJgrPm+Of74491ym3KfbGfOnGnatm0rh6EtvgK98cYbbl6GDh06mIUWWsistdZasV+GMNeQnuC6U6dOgd8vv/zSvPXWW+bjjz82Cy64oFlttdUMJsTu1q1b6JlRB5gHBFYcWBXhxx9/NIjLwgsv7FZEwATGSdy3337rno85JjAxLSZAXmmlldy8U7YTFQrCTwcuYgJArBQHBysmhHHnnXcazD2i3TnnnGM22mij4BQmWe7SpUtwLDuwLhk0aJD54YcfzNSpUx0TxAfzBsTlB+7FvDu//fabBGMWX3xxM+ecc7pjpPGxxx4zdriKwZxa22yzTWhlO3jCihh9+vQJ7ped4cOHu7jIMbbI7379+ulTdbWfueKdAR2Uraj8gRXEaaed5vIa1iZ4LzHfy+DBg40ViN08OXh82rKJycFhxYL3FdYfEyZMcOUelnlrrLGG6dy5c2QqSymXWNlEz/FWyrsZ+fAWPlmN5aYUBA899JDZcccd825BPXj22WebLbfc0tUrqBOwGuYxxxzjJu/G7wHqmzg3efJk8/TTT7ty88svv7hyjMl2N910UzPf/7N3bqHTHMUCn8+ocDR4iRENoihRFI2gmCcfFAR99EEUfJAY4gWDIKgJMQomRCJqvIDGiIlGjKLggxEjiGL8PhTExOAlRryAF0SDTz6deESEPf0brU1tTfVsz0zP7s5uFfz/PTPb1+rqqurq6u6LLsola3kp10ELcEYd56gA0GPaFtryf+QAPJKzgWx+Y+keeUS9BZBJHA5MWffee2/DIa8cAIuc4WzCbbKBfDyPpVtuuaVNz7jlzDQOSEcO4jX28pe/XIrfCP/yl780/GmAH8OXNcAD7Pl/l156aXse1j/+8Y/WS4l2oitogAbgIQL0FV5NFuboV7wIwC24eNzjHtdcdtlla/lK+X//+9+bs2fPtrKMA52R9/Q9/eDV0db5UN+XzjvmxKvnscRY4juALss5cO973/sazguzAL8S2kA/y/GUbbRHvmNpXtcpGXNb3Ru9FX2PyxDQv9DNPIAXoPtZHqP1aOr1/e9/v7n77rtbPfiVr3xle26q5DdWfvfhCy9HdFX4MDwC/ss41Oft/fvf/251/2TYb3UG9N60QNbhVdSzr33wK3gkYx9dA89t5gr28iF0EzyQ0B2e//znN/C73HlxVjehDtRfzz1ycgCaoyzmH8yj6D/aBg7OnDlDVlkY2/+5DId6LCHDkDOMA9pAiGyVuc/FF1+cK6qdp3lycQo+OO8KPDMe4OnQEvh80pOe1KkH56Zdcskl7Zi/5557Or9DE+edd976O/IPOagBHQG54cHYcaLzGtMenZ5n9Otvfetbrc5NftSZfmGXjKZPmy7eE+4e+o/edv5ju/PrUfhJxN0LtS1ZvYXt+UfPYykxoE6t0kByV6jTTRyduJwj0ec1kYSZu3KdJiydMpLhZJW2kXW+p45vPaooqw/SweQrVqyI7/1Rz6RsZLNIQnH11re+1U0r+SWj2ypNHtZ5eO3Qe5m3eYJJvoRpkr7Ol4d0w9cqXRGarQ95e/0nmSQhupE2HVS7Yr/4K17xio3vlJ1cfjvfvLOiyDtN9jtx020TUuxRhofIJ37+8593+oG+TIpfpw/+9a9/rb70pS+t8EYQGEubSelYXXnllW7ZQs/QXpoISlEb4RC6TJPlNu2YsblR6J5eDpFuhqAC/i19qsOk4LjZJGVwlZQ79zc+ponCKl3n3HsmGN6xHg2TPh3Yu1EfvA+SsX119dVXb3yXuuJNlSY6JF3DGLpPBvpO/ulWvFUyoHW8fZFBwDbZQBzPYwnvoGS06pRHmzi7Ki2YkHQD0iJFJ/611167ESctDHXikGcyPrfx3vSmN7m/Cy51ePvtt2/kXbtfOeuEPG1/U4e07bwtm98/9KEP9dISshh+tURYOu+YE+eex1IyLHWKRN55nrvJELyOa2mshPZIPJXmpQK33npr8biTMZgm8m1yy2PgdwCyXuJKiMwGpspviy/GGHi+/PLLO2VSNvxQ+Dl6InWUOunwrrvuauun/9n2ER8+9slPftLNg9+lb5OBbmV1DSkvLfK2+eiyePbipwXwdTRPDqQbUltdJzf3QJ5Jf60zUg9T+l9ls/FY6rGEXpgWvd12C64ImQt4baiND8p429velu1bXSd5Zl4HMB7lmw6TIWkDN8gM/TvP73nPezbi8DJ1nJDHlPaQHqBdaREvO24YT4z3gDwGastSrJi9ULvA3sL2/GOpYYlqJutwZ/ChSGvAkGMHqPeerupsB4dO6zE+L639ljtIHMZg4+bevS1oyRqcVeZtPgzktEraNsdrRw3DkidQbT3knUmVB7YPkzeB20baw6GWkp+ECMq0ktHJ2puYaYNFJ8ERfDhEPoGhV/pKhzfccENnvHld4PWjzkc/i9ETw6r+vu1ZlDxd/hC6JN3YsanL3NfzIdJNKS7S6q3b1xgxxgD96Bm1PRqCNjGsW7CGGHhXWpF066nzTR4K66zG0L031m6++Wa3XLYOAttkA3Fse3Sdc8/U3y7ylBiWkqeAW9+phqU5+pU+xVDg4SCtNoM6d4HDi883a1xsMzjwf0vmHXOjttSwRD28xUq9EGbHYAnt1aD55HGzGmLM1bQtk3yPx3zhC19wxw0GjBry2+KrhAcn7/oVxhzdBu8ZY5AGr33MJ7y08g1D4m233ZadiEu8z3/+87qo9tnqJsTVhiVPDuQWX6QcQk9Hr9H/nQb894OHNz0vIVryNO8siug622dvC2lNfCTPpCJZbus11LB04403dujHGpZqjJOp7aGP4DPJi7tTX4sD3pco42jjLqC2LA3Dkuq1UsMSHjke4eI1IIDS78XJfbOM1WN8ubT6O0LfAgJCxyl5xttDw8c+9rHiPN75zneuk3rt0Ax8zCSGVf+SNug4KA0WPCGp08gzghoDkhdfC1XyR6mXdBKyUnXsUJsx1cJXbpUMuvvUpz614V1nyxxDmyhs0u8lIQqlBY/OvLygS2Ds2LTl7uP9UOmmBBe5CYr22CzJR+Kwcuv1c+4btC1GD8nDTmpyae13lEmBMXTvKdC2DHn/yEc+0ha1TTYQaWx7mJBq2Kdhadf9ygouBmvB97YQneGf//ynRtcinpfMO+ZG8BDDkudRf+7cuXUVh4xBaA+oQfN4bm6j3dzvfYalXBpuj60hv4fgK1eX3He84TV4PDSXduh39BC8nzR4uonWgYfIAV0fjG/Wc6ZG/+u662cPb3peQlxoaIgspD1nz57VxbQLHLqdpc8ePkoMdF7+cxiWaoyTqe0B0VdccUUxjwCn6fiWjf6Jl/9goLYsDcOSoqwSw1Lau5m9Vlp7r+CSbwc5hI3RhZVcj0Hr66c9xif5pVsYVulMh+yKw3e+8511q6ivpLPh6173ulVudYOtBhq89uDyi4shhx1Le6yS6rVDM3CeSQNubP2YOPEbfzBHtqkBvNu4vGO5xk3by4vfcUvVIHX28tLfZMub514sv0m+GCt0Wp7T+Rfy89GGtRlTLUQx3mx/2Hdci9myY2EMbaJYa7pCMUHJJq8cXaLQatDpbV31u9De2LGpy9zX86HSTQk+cL/W/cEzPGsMwCNsXryzugz95LZ+sXKoYdukJkeDmt+PofuSCYWULfJpm2ygXX3twbsrJ7/AnXjNkk8NwxJ5IHu8yQZtE1lFmG67o9iW9++iXymDOsALgHSGXIeewBVbwz/3uc+t8UaapSrbS+YdbSfN+K/UsOR5YkNLmib6xqDQtqa9WrzM26LHNh0WcNnuKWVLSHxkIn9i4PJ4jMSXkLrzzBEXNeR3H76kLCk7F+bi8V3Dtvbl8tHleniW38X7Ucr0dJMhhiWPd0pZVk/26jW0/6XeNvTwhtyz8NWvfnWDzpA5eIp6xljaIYt9ks82uViKDzziBU86ZFcMZUDz+jvPyCG+f/azn22rA23bOLxbg16Jx9LUcVKjPegRXns4HoU5tjcOMUQFdDFQW5aGYUnhGMZiCRVGwrlCeJ30bVOAiAU8jxoYvFZ0vb23d955p2ThbhOgbnfcccc6DoYoT3DoweMpGOSjJ9LkadvNuz4DxmOAGK0E2Iv8mc98ZkMh4bdSBu7h3tuShxDz6oqyLAD+PbzY2748IUneMGRuRIJ50i4UDsAz0jGR1AZFO9GhHpxxcuxQmzHVwhdbEOlPj2bsN4xQ3pbFUtqUOnMWAhM8Qr3iBy1540iPafIYSpdeniVjU+q7z/BQ6aYEJ95ZB69//etLknbieDTGeRZy9gZ0lA687tAx/IUtAwKeMgWdf/rTn255Gbzouuuuc/ORPCT06uTxZOL3KdBvfOMbV+IBCy9lHAAlssFrDxMOPZnhPCs7lnln0ixQw7AkeXkLDLlb4Twc1uxX+j8dCt9ODpBDomN4ZyHa8wbBWzq0V5q1uHDJvGNuZHt6H1tQ8aRHP2JS5k1GGTfIH7aFCnhjkHg52qtB8+kCgc6YZtxreZouRtiIQ30seDxGeAUeMXJGofBZ0k+V3zl8pUsHWrxSltUTpU5sp2IBFfxjEJDvOtQ6Sq59eGyyTQh+//73v9/Nh36WM1U5B0mXIc/owRo83UTz4pwcQAeThXPO5vGMRnpXQa3+13XXzx7eoFsL0Bte5ddcc80qXaKx8bPnsUy7NNTChyfjWHASwOMU+pd+I5Qt5xKnpmGJPKeMkxrtwblCt5dn5LwGu7CM7A3oYqC2LA3DksKxJxAt4XrvTOw4WFvA2yvNCiKulfrPTnhR+AVKGZ83ScBiK+Adbu0pwXhB2bYhkAQ812bajTFJlFmJq8PSdni49yYxHm4Rdha8w2rFJVTiekLS214i8Qm9q8VFsCLwLQ6ZfJ4C1GZMNXGGQuCNA9tXvEMTMgmWOpTSpsS3IQoe+7sZK97hl9C0hqF0OXZs6jL39XzIdLMNJ55iYw+E3pYHv2MY8mjxa1/72kZybzGCdFr59yY1VtliPHjlyfYRKXQI3ecUaAxt2vAueROWyAavPUyaLXgryLJSS9x9GJbm7lf6ECOBB7nt78h0meB56Zb0bcm8Y248e4Ylb8x73+xBt94YzNFeLZp/8MEHOzzKbhv3znnRhidw7PEY6o4sLoWh8tvDl+XBnscVcl/XP2cISLe3ravutY8FcA0Yz7x+BscavLNqvvjFL+oo7qKX6L9EzMkBvfhBPO+Cm+uvv56fWqjV/5KfDT28Ie+2AbIMwxiyOXdurd5WXAsfzIVsH+IxrcF6NbPVTEOOnsZ4LOl85XnIOJnanhyf4axIPcf2DFjaMCt1P/WwtiwNw5KiKE+RtoPZvqPQ2i1WQ/Z96vxYgREoZXyeO6C2mnsrAww2CzB1XReeWWkWsC6hNi7GKhiuhdJ2eLj3DEsebu12EOqQrpDttEfjhTjeBJ529kG6nraTL0ZDwOsL6nEKUJsx1cYZCgEr+xgOLe3ad1Z+ZNsl9SilTV1nVtxuuummIm8pex7MULocOzZ1fff1fOh004cXz2NJe4v2pdW/MdG3NMi7Z7D3DCisnAp4kxpriGEV2yvPng01hO5zCrRecJE6SlgiG0raQ37vfe97O23SCyj7MCzN3a99ixbpauwOPnSf4xmx9MNMl8w7ZAzMFY41LDFmrCHYG4M52qtJ856s1mfKWTlp9Ttw6/EY0jHJ7oMp8tvDl+XBnh7JQrMFT3/XlwR57YNva8DQoce+PGtcEt+7tY6bkjVYnJNXiWFJ58Gzt0CMV5CGGv2v89PPJXjT8fF+ZVHZegUJLnX4x3Sph0BOLsrvEm7DBwdd6zJ41gvlXjl6/kY5cxiWxo6Tqe3J8RmLI+/duzBH+uFUw9qyNAxLipI8RdojTPkGk9XWaclq7KFk+pyLUsbHdjWpjw5xpc0xEr3FTeqMANHpedYrH+TludfbNLj7aihth4d7z7Dk4dZucaN8hK+tG+9aodgmJHU75JkVJSvwxL0SbwVdJkJIlyd5HGNYmzHNhSP679vf/vbKutHrfuMZT0CBUtqU+DkXdluGvFsFYChdjh2bUt99hkuhGw9HnjJoV9W9dPYbN3kKLejQxuOdM+R0HJ71anjJpIaJo82D9zkMS14b5FuJbChpD/khA2yb9IrtPgxLu+5XwauE3lYNiyN4j2xNlHRLCZfMO+bG8VDDEroKWzy1x4zUsXQMEn9umsf48tGPftRd7MGD1EIJj7FppsrvEnz98Ic/7PArz7DkbXMfaljadtultN/T7+cyLHkHc1vDkofHof0vbbNhKV3gOVXq7S68VS+wewYf4lkowYenF6IPcBmGt+OEc4Y0oCdKHXU41mNp6jiZ0p4cn9Htyj3bs7w0jk71ubYs7VK4wWztAk32B/XqTSBRvFBavdVpCPeXv/xlpw3bJq05gteKcCnj81Y+yB/ITSDsYcHE9a6GtgfRkR83UG2z2nOeh0BpOzzce4YlD7cf/vCHpbh1yHYmD89acfIYm159WWdmHvBEsXmzQozQ09853PxUYIl8gm0k3tZG+lDTfilt0td9whYl0Rs7Uw1LlDtmbJJu37BEuhGcca6bHu/ybD1YJX4uvOeee9x8NK+StN7V4HLLGnE8ZdyulufkwpINS56RT08092FY2nW/Co3oECXak3NCq4Rc4rFEWDLvmBvfOcMS8oc/FsfYpsphyNCI5x0pdSzhKRK3Js0zKfcMK5p29bPniVCqf0r9a8jvEnyFYal74581LNXof+lXG5bQBecB2kVkTW+e9zC/z2VY8mhG10c/M26swaimYanGOJnSnhyf0TjIPeuzFy1dnOp7bVkahiVFSd4EUg68ZFB6Chr7ki14RijOQcH63/enz8ooYXyU661KUk8BjzF6273e9a53dSY3rGB4wAQEA5OXN4MZ67lAaTs83NszRsjzyiuv7NTTc8vmtgTLWGC2Grz+LDEsefu/vdvgsKqfCtRmTDXxhoJi9/jr/N/97nd3aAXaFiilTfaYe4YjjFe//vWv2+y88VrDsCR1HTI2Jc0+w0Omm214QYG0PIZ32Rq7Lb38njsDA3dxC97KJFs8BUomNVMMSx5PpuzSlVmpJ2GJbChpD3kxhmxfbNsKZw3/pSv7pYd377pfwYMH6C6c6dK38q63/np5HOK3JfOOufHpGZa4zWoMlI5B8q5J8+QHv7Hj2r6j19lzEUkLlPCY/8RctYdd15DfJfjyJtXhsbS5FY5+mdr/0rc2LKELFmwsrUEfnEEmO1W8rYpzGZZog3c2la0jDgr68hZpe86wZBfCtt0KV0vPndIebysdfdM3v5bf2L4XsImB2rI0DEsKv94EUgxLRPv617/eYTQMautah6uuHexMLodACeMjP89qzqq2AGcp2Lro34kHw/EYJO3QYFe1WFFnUmPz552JBlDaDs9zxDsI9xOf+ESnPBiKvXnNy0+fYUXdxhqWSMsqr263VUjAp+dxQNpjhNqMqRaOuJoYxRNDEd59HqBw677kWSt5Hi15tMmKqc2HyZymg7kMS2PGpoeLXX87VLopxYPHf6EBKxMkP26+gR610Sin8GGs1sDVz5a+eGf1TqBkUlNqWCqle8rep2EJ2vfworcCeB65Vh7kvH/tWSS33XZbpzzNL6Qvdt2vUq6E1BtjmQa8lb0FIeT00mDpvGNOfO/LsFST5jmkWutVPMsBxRw/wGItC5z6RjeL01L9k3S15HcJDw7D0naPpRr9b+lB3kvowtsdoRf/ycubN81lWPrGN76xIXfQI2QOwy3EGJ3QLxmDOfDkpPb0Yx7lHTfCQeUCtcbJlPawfdtrCzpSwHAM1JalYVhSfbDNsIRCbrc7QdwMbn1OQe7gzBtuuKFjAMGrBQuxBY/xIVix4FMPmEfuGlG9gp2z+LONg3yot+dhRbv+/Oc/r6sFk+cbkw09KSKCtxIqWwS9doBnC97hq+DVKvW5FTEOQIYp0iaub/eYjvXUEqas45Z4LFF376BunY9167XtPbb32oypBn5YVbK0yfYYJoZsg0NAopjqfpNnfaB2KW16N1Doc9MYQ96tcHhbaBhKl2PHpi5zX8+HSDdDcNF3cDrK2NmzZ1e/+c1vWgO83saG5xGu9gJ41wjtSQi/F6UPjxJP9mAkgOcJlExqiC9l6NBuhSule8repWEJ3AmfxqiUu7pby6/cohC3Q/0xHbbKKrTGhX62MijH+8UrUfqCcJf9qsuF98F7oJkf//jH+if34Nwht2RtZLbHl6XzjjlRty/DEm2qRfPXpXMO9TjUtxSX4q5U/yS/WvK7hAeHYWm7YalG/+fohHM2NW3xbGWpGDF1vLvuuqvNEhnKNlL9mzzPZViyi1jWyJVrq/7u6Z+cpcvi1E9/+lP37DLapQ1LtcbJ1PZ481b60BqX0GtwSLjvvvs0KuJZYaC2LA3DkkLuNsMSUb3bxhh4+lwh4nlXURMPCzfGGVZb9CBHWdXgCURhXH0hkxGtCHP1IpbtvjTebxwKJ4DxCYu4jodVmy1EnkcUdRCrudcOz7B0++23b+RvyyJPuQ6bswH07yXP4N1uhxo6gRd8ELIS3IfXU2NitRmTxvXYZ4xDJbThxdHnkJXS5q9+9Su3PISdp6RIuVMMS1PG5li81kx3iHQztH3egdrSt30hfFA8Su6//36XdkgP78vlYw0CJZOaUsNSKd2Dr10algQXfXjRZ6RRPwxRkm5oqOUpef3ud7/L5oUhG7nAxBHYZb+2Bf73n72KHQMTtIHe4eFNDHU6j0N/PgbeMReO92lYqkXzXISgxyrjirPUWDi988472z8m+ufOnevczCx4LdU/iV9Lfpfw4DAsbTcs1eh/oQMbsrCoaUueoTEWgoDcPANe6nkqSR5zGJbQ8yR/CTHMsF2Ps2hlPOApjbPCQw89ZJvcvntzXMmvL9SGpRrjpEZ7MITl6oyxDP1fLzoxh9WLcC6CTvRjbVkahiVFSN6g01vhJKrnKoiyprejsAWnj/nYAcEqrEwyKMcTiDaN9269csiLSbIXN/eNeus9ut7BqLm0fEewCnjt8AxL4M5TeHU5snqP63OfUUenkWfvvKMphiXa5+1Fpjy78iG4OOawNmOaiisEl2f0FHroC+3ZYqW0icfckDEvdZhiWJoyNqfiuEb6Q6ObMW1iz75eJJB+3RYiR8RYTrnezWZ9eUDfepsleZRMakoNS6V0T7n7MCz14QYvPg20eUwfUYY1LJGvnfTYuuAJKbCrfpXyclv6bB3lHbxYOpK8Djk8Bt4xF373aViiTTVo3jv3U2jWC5los8CrJ4+l+id1riW/S3hwGJa2G5Zq9D/96gGGl9x8Q+Z8LNp4dLbt2xyGJdrgna/YVxc8pPHM0kDb+tLkftOGpVrjpEZ7cl5juXZI32qcxPNqVVuWhmFJUVWpYQlvFI9w8eDRgGXXM154aZmQ/v73v18n9wSil05/Y+tCDr75zW9mGanOg/pSbw24XJa2A88M7RnktcMzLFHeNiZxyy23rKvFtoPSOmHN98BLP2Tl1jtADlziwntqUJsx1cIf+7iHGHsuv/zyjW2tUo9S2sxtPZUxhkHUKjRTDEtTxqa0bZ/hodLNUJywre0Nb3iDKxek73XItg7x6pSymBCVGgoxKnmHUJZMakoNS9SrlO53ZVhi/Gwbz7JdQfAqYd+2RfoGRfeDH/xgpw89w9IPfvCDTjzdv/qmtV31q7QTjyq9UqvrZZ/hRcRfIhwL75gD9/s2LNWg+ZxXiaVh+463nsAQ/ZM0NeR3CQ8Ow9J2w1KN/hc68MKc4YobRAEWJ7ctRnie6HMZlvo8iO0Y0O9cZCSAzuHNe3R8LqewC/fasEReNcZJjfawIHL99df3ymLdtlM7okT6fVtYW5aGYUlh3DMs5Q5hzW1/wFNJAyfof+ADH+gMVCF2vFu4ulEbY0jvCUTK9G5FIw/PU0nXg+c//OEPq7e85S3uIETB5DYje0Wl5AGT5VT9HKMlPcqMXoEnrdeOnGGJ+Bw+J7ixoWVu4BamkptoXHHFFRtXf5K/Bo/BDjEskZeHD1zBTw1qM6aa+GPSz4Td7unW9IX3CHvH+6CUNhmL1nhEWXhCsd/bbtGbYliivmPHZl9bd/XbIdPNGBywpdke7C90Bk0w4c/JFCkPo0XOMAC/4Xy8nIdJyaQmZ1jKuc+X0P2uDEscmv+3v/3NxQ9eROLVKri04Ze//OWOfKFfMChjQPrJT37S+T2HF86lsAq49DXbJSzM3a+2PGjRnjEn9SOEVsDlUuHYeEfNfvAMS2MnVSU8JVf3KTTPOWHbPAM1PetndENgqP5JmqnyuwRfnmGJsWrB4y8PPPDAOlpJ+9gJoXEjz5avoZ/IbxKi82vYpjOXygGPPtHlNdTof52ffab93nY3tgsLwB89z3fwgDcQcyrBlYRjDEsl+OB8WU+vlHJzIXqvBs5r9MYVCys4IAC2zejPFqaOk1rtoV6MJ2/+Ljjh+JlTnJfZPsu915alZygoIT8L//vQ/7W/nf/Y/8nGiR+2YyBNBJq0Mtj89a9/bZLxpUnGkCYxp+aJT3yimzi57DWvfe1rN35LE5YmWYqbpAA3aX9pkyapTTIqNS94wQuaRz7ykRtx+16S8aj57W9/2ySPm+bRj35084xnPKN53vOe1z73pZPfkhGsSQekNenQ07YdpH/6058+qA6Slxcmq3qTGHabf5o0NxdeeGHbzqc+9ale9Ib4yYOpbU8SRm1dnvvc5zaPf/zj3fi1Pv7sZz9r0orFRnZpH2+Tth5ufDuFl6XwCcZh2ibT0ssjHvGI5ilPeUpLW09+8pOLuqmUNhkj0CR0/OxnP7u55JJLmkc96lFFZUyJNPfYnFI3L+1S6Mare983eHS6xKHlSfQ7NPCsZz2rOXPmTF+yjd+SUtvSalLWWzkBj4Wv7QNK6X6XdUtbopt0MHVbJHgBxyWQXPmbdI5GkxTbVlYgP88777ySpJ04qE/kgzxF9px//vlNmgw2F198cbavd92vaWLZpMlOy48e85jHNM985jNbmc/zkuFYeceS+yRX96E0nyb9zatf/eombetcZ5kWRZsnPOEJ7TjjI+M/GVmaNGFcx5EHdDB0sbGwL/k9tr7Hlm6X/c+cLF021M4j4N8vetGLOvOydBFEO+dBf8sBMiUAAAWoSURBVLz00ktbvXGXOEe+vOxlL2uS48K62LTI0o4F+DtyiHakhZFWHq0j/fcB+W3niA8++GDbJnSSF7/4xc0FF1xgk219HztO5mgPlU1Gsybt/GlD9PvnPOc5rbyzbd/asBOLUFuWhmHpQAnIMywli2yTtvYcaI1Po1pMHpgoptXqJnmPdZSa5I3QJG+D00CGamVtxqSyjscjxkDQzRF3bjQtMDAjBoJ3zIjcPWedPHEaFlIFkgdgk7wR5XUdMqFmos9CqwbemSwHLBMD0f+b/Za84Jqbb755/RGjUtq2vX6Xh3Q2brvYL+8SYhDD0HIocGztORS8jq1HbVkahqWxPTFzujAszYzgkdnjNcAKtQd4L6Xzt7Ir1V6aY/lWmzEdC16iHf0YCLrpx0/8GhgIDPgYCN7h4+UYvqZte0268WrdlLQFqPXG0B6bGJV+9KMftQt5abv7Oi4PeLws3SNvo0En9hL9v9nhL3nJSzaMp2nbZJPOEtzYlYFX0h133NG8+c1v3kicjnlovvvd72582/fLsbVn3/icWn5tWRqGpak9MlP6MCzNhNgJ2eI6+rSnPS2bw913392kay6zvx/zD7UZ0zHjKtr2MAaCbh7GRTwFBgID5RgI3lGOq6XFxDsDrwYLHP2AhxLbWdkmZw1KxL/pppuaq666yiaN9wVhIPp/s7Ne85rXNOkSos2P6Y3F7Be+8IXttvtz5851fufD1G2hbqYTPx5beyaiY+/Ja8vSMCztvUv9CoRhycfLPr/C2GGIHqSDUptXvepV3k8n8a02YzoJpEUjm6CbIILAQGBgDAaCd4zB2jLScCYTZ5B6hqO+FrzjHe9oPv7xj48+M60v7/htdxiI/t/E9fe+970Gz6MhgJcfBrrLLrtsSLKdxD229uwEaTMWUluWhmFpxs6aknW6caBJtzRsZMHZPbfeeuvGt3jZHQbS7X5NuiZ8XSCHtHKg3tvf/vbmpS996fr7KT7UZkyniMNTbHPQzSn2erQ5MDAdA8E7puPwkHPg4ot0U3Hzla98ZWs18dxIt4o16TarrXEjwjIwEP2/2U/phsXWE48DurdBunm4ufHGG3d+yPi2eunfj609um1Le64tS8OwtDQKiPruFQPc0JSusm1YDcjdUrfXCu6p8NqMaU/NiGJ3jIGgmx0jPIoLDBwJBoJ3HElHbmnGL37xi/aylD/96U/tlh9uweKsS24yxquJ2yAvuuiikzzbcgvqjuLn6P+Hu5FzxThygxuHuZWbm+C48YwxwFiQ8ZC7bfzhnA7j6djacxhYHV6L2rI0DEvD+yBSBAYCAwYDtRmTyT5ejxQDQTdH2rHRrMDAzBgI3jEzgiP7wEBgIDAQGDh6DNSWpWFYOnqSiQYGBubHQG3GNH+No4RDwEDQzSH0QtQhMLA8DATvWF6fRY0DA4GBwEBg4LAwUFuWhmHpsPo3ahMYWCQGajOmRSIhKj0YA0E3g1EWCQIDgYGEgeAdQQaBgcBAYCAwEBiYhoHasjQMS9P6I1IHBgIDCQO1GVMg9TQwEHRzGv0crQwM1MZA8I7aGI38AgOBgcBAYODUMFBbloZh6dQoKNobGJgBA7UZ0wxVjCwPEANBNwfYKVGlwMACMBC8YwGdFFUMDAQGAgOBgYPGQG1ZGoalg+7uqFxgYBkYqM2YltHqqOVUDATdTMVgpA8MnCYGgnecZr9HqwMDgYHAQGCgHgZqy9IwLNXrm8gpMHCyGKjNmE4WkSfW8KCbE+vwaG5goBIGgndUQmRkExgIDAQGAgMni4HasjQMSydLStHwwEA9DNRmTPVqFjkdMgaCbg65d6JugYHDxUDwjsPtm6hZYCAwEBgIDCwDA7VlaRiWltHvUcvAwEFjoDZjOujGRuWqYSDophoqI6PAwElhIHjHSXV3NDYwEBgIDAQGZsBAbVn6/wAAAP//vqnfBQAAQABJREFU7J0L2DRFdecbEAQ+1BCzrrCiRkEfTJQV4y3E1YdVWePDovGyxujiZTXoiqsYBRUENd7BOyogIuiqazQoGoyIIKgRAY0iclEuonhBRUQ+xPts/duczpl6u2d6Zs7MdM/86nnet3u6q+vyq+pTVadOVW8xSK4Y4TbfeFN5d4dN243wxS0IQGCdCSAn1rn0p8879WZ6djwJgXUmgOxY59In7xCAAAQgEEEgui3dAsVSRLEQBgTWm0C0YFpvmuuTe+rN+pQ1OYVAJAFkRyRNwoIABCAAgXUkEN2Wolhax1pEniEQTCBaMAUnj+A6SoB609GCIVkQ6DgBZEfHC4jkQQACEIBA5wlEt6Uoljpf5CQQAt0nEC2Yup9jUhhBgHoTQZEwILB+BJAd61fm5BgCEIAABGIJRLelKJZiy4fQILCWBKIF01pCXMNMU2/WsNDJMgQCCCA7AiASBAQgAAEIrDWB6LYUxdJaVycyD4EYAtGCKSZVhNJ1AtSbrpcQ6YNANwkgO7pZLqQKAhCAAAT6QyC6LUWx1J+yJ6UQ6CyBaMHU2YySsFAC1JtQnAQGgbUhgOxYm6ImoxCAAAQgMCcC0W0piqU5FRTBQmCdCEQLpnVit855pd6sc+mTdwhMTwDZMT07noQABCAAAQiIQHRbimKJegUBCMxMIFowzZwgAugFAepNL4qJREKgcwSQHZ0rEhIEAQhAAAI9IxDdlqJY6lkFILkQ6CKBaMHUxTySpngC1Jt4poQIgXUggOxYh1ImjxCAAAQgME8C0W0piqV5lhZhQ2BNCEQLpjXBtvbZpN6sfRUAAASmIoDsmAobD0EAAhCAAAQqAtFtKYqlCi0nEIDAtASiBdO06eC5fhGg3vSrvEgtBLpCANnRlZIgHRCAAAQg0FcC0W0piqW+1gTSDYEOEYgWTB3KGkmZIwHqzRzhEjQEVpgAsmOFC5esQQACEIDAQghEt6WtFUsLyR2RQAACEIAABCAAAQhAAAIQgAAEIAABCMydwA6btguJA8VSCEYCgQAEIAABCEAAAhCAAAQgAAEIQAAC/SGwcMVSVIT9QUxKIQCBtgSiTSnbxou/fhOg3vS7/Eg9BJZFANmxLPLECwEIQAACq0Igui1tbbGEYmlVqhD5gEA8gWjBFJ9CQuwiAepNF0uFNEGg+wSQHd0vI1IIAQhAAALdJhDdlqJY6nZ5kzoI9IJAtGDqRaZJ5MwEqDczIyQACKwlAWTHWhY7mYYABCAAgUAC0W0piqXAwiEoCKwrgWjBtK4c1y3f1Jt1K3HyC4EYAsiOGI6EAgEIQAAC60sgui1FsbS+dYmcQyCMQLRgCksYAXWaAPWm08VD4iDQWQLIjs4WDQmDAAQgAIGeEIhuS1Es9aTgSSYEukwgWjB1Oa+kLY4A9SaOJSFBYJ0IIDvWqbTJKwQgAAEIzINAdFuKYmkepUSYEFgzAtGCac3wrW12qTdrW/RkHAIzEUB2zISPhyEAAQhAAAJFdFuKYolKBQEIzEwgWjDNnCAC6AUB6k0violEQqBzBJAdnSsSEgQBCEAAAj0jEN2WoljqWQUguRDoIoFowdTFPJKmeALUm3imhAiBdSCA7FiHUiaPEIAABCAwTwLRbSmKpXmWFmFDYE0IRAumNcG29tmk3qx9FQAABKYigOyYChsPQQACEIAABCoC0W0piqUKLScQgMC0BKIF07Tp4Ll+EaDe9Ku8SC0EukIA2dGVkiAdEIAABCDQVwLRbSmKpb7WBNINgQ4RiBZMHcoaSZkjAerNHOESNARWmACyY4ULl6xBAAIQgMBCCES3pSiWFlJsRAKB1SYQLZhWmxa5MwLUGyPBEQIQmIQAsmMSWviFAAQgAAEIbCQQ3ZaiWNrImCsQgMCEBKIF04TR472nBKg3PS04kg2BJRNAdiy5AIgeAhCAAAR6TyC6LUWx1PsqQQYgsHwC0YJp+TkiBYsgQL1ZBGXigMDqEUB2rF6ZkiMIQAACEFgsgei2FMXSYsuP2CCwkgSiBdNKQiJTGwhQbzYg4QIEINCCALKjBSS8QAACEIAABEYQiG5LUSyNgM0tCECgHYFowdQuVnz1nQD1pu8lSPohsBwCyI7lcCdWCEAAAhBYHQLRbSmKpdWpG+QEAksjEC2YlpYRIl4oAerNQnETGQRWhgCyY2WKkoxAAAIQgMCSCES3pSiWllSQRAuBVSIQLZhWiQ15aSZAvWlmwx0IQKCZALKjmQ13IAABCEAAAm0IRLelKJbaUMcPBCAwkkC0YBoZGTdXhgD1ZmWKkoxAYKEEkB0LxU1kEIAABCCwggSi21IUSytYScgSBBZNIFowLTr9xLccAtSb5XAnVgj0nQCyo+8lSPohAAEIQGDZBKLbUhRLyy5R4ofAChCIFkwrgIQstCBAvWkBCS8QgMAGAsiODUi4AAEIQAACEJiIQHRbimJpIvx4hgAE6ghEC6a6OLi2egSoN6tXpuQIAosggOxYBGXigAAEIACBVSYQ3ZaiWFrl2kLeILAgAtGCaUHJJpolE6DeLLkAiB4CPSWA7OhpwZFsCEAAAhDoDIHothTFUmeKloRAoL8EogVTf0mQ8kkIUG8moYVfCEDACCA7jARHCEAAAhCAwHQEottSFEvTlQNPQQACjkC0YHJBc7rCBKg3K1y4ZA0CcySA7JgjXIKGAAQgAIG1IBDdlqJYWotqQyYhMF8C0YJpvqkl9K4QoN50pSRIBwT6RQDZ0a/yIrUQgAAEINA9AtFtKYql7pXxUIouvfTS4l//9V+Lyy67rLjVrW5V3PWudy0e+MAHFje/+c2H/PEDAsskEC2YlpkX4l4cAerN4lgTEwRWicC6y46rr766+OUvf1kW6S677FJss802q1S85AUCEIAABBZAILotRbG0gEKbJorBYFD8/d//ffGSl7xkw+OnnHJKse+++264zgUILItAtGBaVj6Id7EEqDeL5U1sEFgVAusuO+5zn/sU5513XlmcX//614u73e1uq1K05AMCEIAABBZEILotXZhi6ZprrinOPvvsqTHd8573LHbdddepn+/bg1Ie7bfffrXJ/slPflLsuOOOtfe4CIFlEIgWTHkefvaznxXXXnttcbvb3a7Yeuut89utfv/mN78pNMurd0fWf31x119/ffGjH/2o2GmnnYpNmzb1Jdmt0jnvemOJ+PnPf158//vfL5jZNyIcIdBvAtGy44ILLihkIV7n1Gbc+c53LuXHzW52szovC7+GYmnhyIkQAhCAwMoRiG5LF6ZY+vSnP108+MEPnrpA3v72txcHHHDA1M/37cG/+Iu/KD7/+c+XyX7IQx5SWi/d+ta3Lr71rW8V//W//te+ZYf0rjiBaMEkXOecc07xf//v/y0V0ur0m7vTne5UHHjggcXTn/70Yvvtt7fLtcff/va3xcc+9rHiyCOPrN4nedTsrpaUvvCFLywHC/nDRx99dPH+978/v7zh9x/+4R8WJ598crHVVlttuJdf+PWvf138zd/8TfG9732vvPX4xz++eOYzn5l7K39fd911xZve9KZCcu+HP/xh5UeKtUc84hHFy172spVQLs+j3hiszZs3FyeeeGLx+te/vrjiiivscrHXXnsVD33oQ4u/+7u/q60/T33qUxsHmFUg6URy+KUvfam/tOFc8b7xjW8svvzlL5f33va2txX3uMc9NvjjAgQgMBmBaNnx4he/uHjlK185NhFqOw499NDir//6r8f6ncbDv/zLvxRqK25zm9sUu+++e2MQKJYa0XADAhCAAARaEohuS4u05Gqku2Hzzwf6m9Wdfvrpg5THqf+OOeaYWZPQm+d/97vfDXFKA+zepJ2ErieBKDkhemnfiMFhhx029A7UyY6kZBkkJU0j8GSlMnjkIx85Mpxb3OIWg1NPPXVDGE972tNGPufTo/S2cWlp61CYT3rSk2ofu/jiiwdJeTbk18en8zToGJx77rm1z/fpYmS98fm+6qqrBne5y11GMkwKnsEll1ziHyvPVa9y3nW/H/CAB2x4VhfSfniDpPgb6H7+3Oc+97naZ7gIAQhMRiBadrzoRS/a8L7m76//nSYGBsl6fLJEt/Btcey///4jfd/73veu0puWwo30y00IQAACEIBAHYHotnRhFks//elPi9SJT23mRnf/+9+/uvjhD3+42HnnnavfdqJZ3nHWCea370ct+fmjP/qjKhvaoJGNGSscnHSQQKTG+9GPfnQhOWAuDdCLvffeu1wKJiumd7/73XartD75zGc+U+TLE5JytvjLv/zL4pOf/GTl9+EPf3ghS0BZAP3TP/1T8Y1vfKO8t88++xT//M//XPnTiU+DLKTy8L3nCy+8cOzyPFlc7bHHHv6xIimWihNOOGHo2mmnnVbGfcMNN5TXk+KrtHLSs0rvG97whsp/UpwUX/3qV4ttt922uta3k8h6Y3n/wQ9+ULL2ll6yQtKHD7TURRZsdu/Vr351cfDBB9uj5XGLLbaofotxk7vvfe9bnHTSSRtuy8qsyRItKZbKOrvhIS5AAAITEYiWHd5iSRZJT37yk8v03HTTTeVS5G9/+9vFBz7wgeITn/hElc4999yzOP/88wsvM6qbU5xoya4td06KpaG2Lg8Oi6WcCL8hAAEIQGBSAtFt6cIsluq0ZHYtQahmXtI+GHZ5bY/f/e53Kx6yXMBBoOsEIjXeX/ziF8v6L6ucz372sxuy/vGPf7x6PyQ7knJlg5804B/yk/Z3G/KTlhoMNEMtq5W07Gzonn486EEPqp5PSvEN9ye5IIsmxePlnM7rLJYOP/zwyl9SeAzSvlBDUX3zm98cyMrKwkpLq4bu9+1HZL2xvD/lKU+p+KRlK4O0r5bdKo9JcT9ISsaSv6xDvfvVr35VPZsGjf5W6/N//Md/LK2VZLGkP19eWCy1xohHCIwkEC07vMVSWr7aGHea9KhkhOTwpz71qUa/k97wfT8slialh38IQAACEJiUQHRbuhKKJQ0GNLg888wzG5fGaICmQVna66lcqpAP2CYpCJk/n3HGGeUyCg1Q2zj5S/sjDc4666xBmuEa3HjjjY2P+c5FW8VSmlUbaAmNlhwqfA2epnVpo+TBF77whfIvbRw8Npi0sXDJfpRZuPLUJu91kYlVsvgo83bllVcO8sFg3TN111T+4qNj2ntnyIvCTJYOZZ6lzJiF31DAa/IjWjCl/cUGyaqkkV7ad6zq3EuJ5J3qi5RSpnypW+rm/dedSyFhz9fdn+SalkVZWI961KOq8zrFkuqhlgGOUhjpnoUnJUqfXXS9SXsZVWzEaNRSyTpukmXGNn15s87LxNekxLIwUSxNjI8HIFBLIFp2tFUsKTFaBmfv9Cte8Yra9E1z8Wtf+1oV7iSKJfX9zKlvo/6wZM2k/ZjIfqTS84tf/GKgtvxLX/rSyD6vpZ0jBCAAAQgslkB0W9o7xVJatlLOAGvvFLkzkzIp349EgwO5tHnr4Kijjqrd60KdAg3gmhRDUkBppll/aqDVWL/lLW8Z+HXt1rEYNQiUtYKe87PW9pysGD74wQ9WihLt96FZcj8oll9Lh65LQeOdBt/Pf/7za8PXgEaNepNLy22qsMVJ7q1vfWvVsVHcGmDLeb+ve93rymtpc+NB2gh3yL9+a8benKwF6va5SRuxD9SJGeVUjgcddNBQ+MbjWc96VmNHRXvZGDOVr/Zb8RYoCuMjH/lIFbUsYOr2Y9FeK2kzz4H26sGNJhAtmEbHNhg84QlPqOpFWh425D0tf6vupSV0Q/fa/rB3UHVgFveVr3ylSovqpFljqQ7WKZbaxHXRRRdVYUoe9dlF15u0hKViIzkwqZPSWWWjP+2zFeFQLEVQJAwIDBOIlh2TKJbUXzI5ob6MnJRN1u945zvfOZzY7FdaTlf5lWWqJh/U19LzFq6OFp6O6lt55/uil19++SAtlR488YlP3BCGnvvOd77jH91wHtWPtL6h8vewhz1sKC8mU8f1+zYkjgsQgAAEIDA3AtFtae8US9aYqhH2szvWGNtA8Nhjj93QwJoffzQFVV5iahjNnxRHdcoRu6+jlEd1zs9sef/+fL/99isflaWRv1537memNDvfZqPZfOBt6ZRlksXxnOc8Z5AvH9I9G1x5v2m/koE6Q/Zs3VEDNM2a2QC9zo+sN5qcynZc3qSYyxVtCi996atKm9LhrU8sHbIek1M9sWtNR6VjlDVWGdCa/4sWTKNwyqrH16tTTjllyPtzn/vcqkzf+973Dt1r+8Pqwv3ud7+2j2zwly+BkyLWy6xpFUsaRFj69A702UXXG/+u2zs+CZ/zzjuvYquJhwiHYimCImFAYJhAtOyYRLGUvjRZyQn1h+Qk300uj1P46xnzq+ekELLfTUdNfnlnfWH519K9pud0Xe1lk5V8ZD9S/UVvoVuXpqY+t88b5xCAAAQgsBgC0W1pbxVLarBM8aBGU8oEmSSbEkUWLdaoabAhq573ve99g3e84x0bZlLq9nHxiiULR0dZTKlTobj87JLSoCV53uVhSHmj9fhps+HSEsaeV7rkZFmjQbG3xpAfXbM/LdeS09EPruVPHSOt/1cnw3c6lO606WT5nP/nlUU+LFlNabZfTJUHOe/X85AlkHjkX/GyspFfha3011l8pY2PfZLKc5lv+/SoQ/We97yntPaQhZffr6ZucO4VS96aTTOLmlFLG+uW8UhZ5PPymMc8prQg01f4pHAyK6b0WfsNaeTCMIFowTQc+r//0jv2ghe8oCo31ft8jySvXEgbrv77wy3P1AG3eqFOsGZY9dUdLX+dJLz0KfoqHNUtOW/BVFd32yTR7zFl4bZ5rot+IuvNNddcU/Fuu4Q4ZyL5bGUv603VLS3j0B5d0yqXUSzllPkNgdkJRMoOpWYSxZKWqZmceMlLXlJmRpbN1qfTPVmW1jm1Yd6f+laS6eoj+X6b+h/W79PxVa961VBw3q+lRf2uZz/72YP0AYENk6Hq0+Quuh9p6dBR/cgjjjhi8OY3v3moz6Z7fMUuLwl+QwACEFgOgei2tNeKJTVQUmyoYc6dBhlq2KS0qdtPRwoiawQf97jH5Y+XChW7r6MUHfnnvbV0zfvJl52pM2D3pVTKncyPNVuVuzZ7LGlAaWErbbKE8E6dnMc+9rGVH3VkfvzjH3svtcqiug2D9VCdYilXVvlBmaVNgyotozOndPmBv2a3cuc7bdrnJJ9p02+/BC/vpHjFktIhPnWfFddyOEun0pTv3SSLkxNPPJGlcHkB1fyOFkw+CpW3llSefPLJQ+WussutlfScddp1lNMHAdLX1wZ6zyUTZEUoxXDThwL8+6c4LDyrK6pPereuuOKKMvy6f36vH/m35bkRiiW9E5YWKT/67CLrjfZhMy4qYznJBim+Je9lfSZLAQ26mpZjSHFtYdQdNdjTwC2XSaPKAMXSKDrcg8B0BCJlh1LQVrGkfp6XDb7fpwlMu9dk8ej7SXnf08sf9YNGuVyxpImzfHLT96W0L2Hu5tWPfNe73jUUleSlTdSJT64kG/LMDwhAAAIQWBiB6La014olDdim/WKTrFKsAyClQu68tZFmv5ssFfygQZ0C72TpYnFMMgD0A9u6mXdtSGvh6lg3uFY61Jj7QXG+F1SuLNKANVeuWH5yv3VWXvLrOw/q1NTtYeX3cbKldhaPlG2WN6VdCsI6J+sR85d3UnLFkva1qXNSOloYmGfXEWp/LVowWcxSJlkZ+aM6ybLwy5061uZP77U2jPfvgN3TUdfNWtCHI2WE99d0LvlT90U6bVjqrerS5+2r4GdVLMl6xqdnWiuaKkFLPomsN7IENTZS6stC0n7nR8kpsczdMccc0/iMD0OK7bbsfRvB5t05cX5DYDoCkbJDKRilWLKPr8gK1bcn+YSU3/9O7UPdR2K8NX3ed5tWsZT3gYyo39Mv70vOqx8pOVznjjzyyEq2mtV4nT+uQQACEIDA4ghEt6W9VizlipK2xaCBn29wNWDInVcs5bNK3q+fobJleHb/Qx/6UNWQqpNhy8rsftNxnGJJy/lskKOOTW6R5cN99atfXfnVp6+9y5VFdYNk8+/9qmPV5LRflKUtt2iyZ/zmyrIk8O64446rntfgsMmpo2fx5Mopr1gatVQo71hpCWGdIqwpDVz/dwLRgslC1kbwVs7+qMG66lHu/HIo7191VktM9RU1v0xTfmTp4p0smfRe6Z7eGVm2acAgq0DVTz+w0Lk2TfVO5v8Wt+2/YfdnUSzl1n7aqLrvLrLeNNUVlbdm8/3svMpH13PLIynMrXxVdvqIg/Zpk7VqvtxXysPcQqCuPFAs1VHhGgRmIxApO5QSr1iSfJAiRn/qu5k890ddvzJ9pTZ3ajPMn+SHd+pfmHzRMbecnFaxlFttW5z5cn+7ruM8+pHKU5PTBItxifriZlNcXIcABCAAgXYEotvSjRqVLB3REWbBlz+tsdGxaXmKPefNf5saU/NrRy0Bk2WCZoq8JYGPV4M279oqll7zmtdUjaW+IOadrKnyTolmutV50DKrJjdOseQ3ztayjFHOm20rLd61VRbpmbZ+vZVWk2LJb1KeK7t83rS5t/ZWavqz8tNySO+8YkkWCKOcH/QpPHUkpWBqa40wKux1ujcvOaGO+9FHH13uSablTfn7JMWut7KTf6sXdtQss1cYqi57BWhef1RuUhjIqrHO5ftS+GWu3qJIiovconIWxZLedcuT6mmuFKlLa9evRdYbyQnjY0ftXeKdlERiZ/df/vKX+9vluZYt+o8keA/eKkph+C9gen/+3MsYLJY8Gc4hMD2BSNmhVOSKJZMRdUe1O5qYqnN+E+98Hz0pri28fEJMYUUrltQ2Wnw6+klI39daRD/yC1/4QpWWumV5dSy5BgEIQAAC8yUQ3ZautGLpsssuG3hFh29g8/NpFUvevLfOHFl7w2hvjzw+DZDlX9ZTuRunWPKbe+dWUnlYWsLn484H2HZv1EyTwmyrWHrGM55RxdekWPL7z+SKJZ83S9u4o5SF3k2iWNKMoTp4dXHIXLup8+jj43wwiBZMTUylTPEKFpWbvmZoLp+hfe1rX2u3ho5SYPsyr3sPhx7IfnglhhQVcgrDLJ0sXXqX/V++8bbd27x5cxbD8E8/u6yw1UlfBRdZbzxbMTrzzDNrEXl/ufypfSC76L/oZJ8az7wM/USxNISDHxAIIRApO5Qgr1hSn0ITGfZ34IEHlnu16eMoWq4/yqkvaVZJkkN+j8mDDjqoandOP/30DcFEK5YUgdJgf34Sxve1FtGP9KsEUCxtKHouQAACEFgKgei2dGUVS5pZ9o27GlZZwGgQKsWGGn9rbHWcl2JJtUTKHC2Lq1Mw6dp3vvOdoco0TrGkpXmWdu0jMsr5sPSMt5RqqyxS+G39zqpY8nlTerUXyri/fKniJIolY6eBut/s3PhKAdi0n5Q9y3FxiiVj7ffp8pZ4mpG1shunLPUD/rrN3S2uuqM+ZW/x6Kh4/aDA32tzrg2lm5y3nlRYUjKtiots0PyMuAZNTW6SOlIXxnvf+96q7B/2sIfVeRm65usZFktDaPgBgakJRMoOJcIrlmS1PIvzXy6VvJCTUscsbtU2+Uk+i8u3IdqjcpRra73v2x+vWPJ9rUX0I1EsjSpN7kEAAhBYDoHotnQlFUvXX3991YCrUdWylzrLE9/gzlOx5KuKlsrIPNrHne8z5JVBZg3hw3je855XPa8ZsFHOb1KeD7TbKosUflu/syqWfN7GdXaa8j2NYsnCkpLPfybeyinfC8H8c/w9gWjBNI5rbnFkX13Tc9Z5V9nlX0L04fq6qi/1TOJkOWV1Q0fVD2/F5O+1OW9SLEkR4Z/XzPkquch6c/nll1escivGnJlfDjfpkkK/R5yWNo9zKJbGEeI+BCYnECk7FHukYklLaU1um/LZL4Nu2j9ykYol39daRD8SxdLkdZwnIAABCMybQHRbupKKJd/x16xO0war1vDruCjFklUQn0bF7/diGadY8tYayt8o5/3KOsq7tsoiPdPWrx+sT7MUzqdXFkTTuFkUSxaf9mLxmzzXbRRtfjku3mJJzL1FojbWNqcNuu3dPvXUU+3yhqMsGM2fNmeexPlP25vCVsvwNDAY9ef3ZNMyLPOr+pY7KaF9HrUso+4rQ/lzffod3aD5d3bUPmmeq5/Fb8NOH42weqMyGedQLI0jxH0ITE4gWnZEKpaUG+3dZ3JC+/L5D6k0LWX2iqUnPvGJI6HMarHk+1qL6EeiWBpZnNyEAAQgsBQC0W3pSiqW/L5HL3vZy2oLSmbI1ujruGjFkhKl2W5Lg19vP06xlC/Dyb88YhnWni/eeuP1r3+93SqPbZVF8tzW76yKpTxv2uh7UhehWFKchx9+eFU+Osc1E4gUTHoXxlkQ5XuHeSWC75w37eWg992/G+r4m5NC1Ct67bo/+o1P6zb/9n79uZ+1zjd29f70hUav/JBVo1/G6v32+Tyy3oiD9kUzmZp/TME4ia350TJbc5KXsjobpbxTu+GXNDe1LxamjiiWPA3OIRBDIFp2RCuW/Cbe+oiIyQ0pv/0m2p6G3/9tnLJnVsVS3teadz8SxZIvac4hAAEIdINAdFu6kool/8n6ulmfq666akipMy/FkqwTtE5en0DPnZbr+YGj/xreOMWSwvKDFQ2O1EnwTgMgP8hSHvPlgG2VRQq3rd9ZFUuKy+dNmyHneZMfOW2Mrr/ctVUsaR8uKQU00Kxze++9dzUA1aaduGYCUYJJljv2XrziFa+o7YBLASCFkSkHVEe809Imb7lSZzmnjfPtea8YOvnkk8vrWiqlvdjqXL7nke2hUec3v9ZGsXThhRdWDJRGDUj8BrB5mH3+HVVvjIFXGqke5V8OlVzU0hQre/9VOC1P0XXdr9ugV4PBw52yWX6vuOIKi7rx6OUZeyw1YuIGBCYiEC07ohVLWh5tbZlfenvooYc25tN/2ETyRf2uJjerYknhetk0734kiqWmkuQ6BCAAgeURiG5LV1Kx5DdxVeMsZYeWMmlGRgMDa+x1z/6iLZbOPvvsKmzFp5ltWWFo4KxZcT8w3nPPPYdqVBvFkpRjPh+yvtCXPTTjlYevPErZlru2yiI919ZvhGJJ1ig+b0r/6173uoGYannQKaecUinNbP8Cn7c2iiUNHL3FipRw+nS4ykfLp/IvxXmLGB8X578nECWYNLNr76SO6uxqXyFZIWlQ/s53vnPoc/HyU/fJdymTfDiHHXbYQPuNSbGjT0X7e5///OerYvTvpfyofmkJwxlnnDH46Ec/uqFeqGMuRVdbN06xdNFFF22o+/qypb6Ep6O+SJb/NVnmtE3TMv1F1RufBy+DJEck+7R0UfXHK5U02DMFkizUvMzRuZa5ae8rbd4v6wO/tEV1wyulLH5ZWKqu+T8/qNREh7/HhwGMHEcITEYgWnZEK5aUG7+Jt7U5TRNZ8q8JBPOno+SFFDKaBNPSNe8iFEuL7EeiWPKlxzkEIACBbhCIbktXUrGkPTO0YbdvoPNzNcpS6Nj1aMWSZp58+BZPftQA5rzzzhuqXW0US3rgrLPOGhoM5WHb76YZsrbKIsXV1q8f1NVZiigsPyvX9LlvDQL9QM/yUnfUpr3etVUsPeYxj6nKvy5cu3bCCSf44DmvIRApmKTAaVv2sjBqcnWbsFuZ2jHfO0tyQEocuz/qKMXDpMvTximW8o39R8Vv96Qg7auLrDfGQBZrfibeOPmjmOWWkLJ+9FaK3n9+ng/yLG7JitzvqN9HHXWUPcoRAhCYgEC07JiHYslv4i054JfeNmXVb6qdyw5ThOvZCMWSwllUPxLFkmjjIAABCHSLQHRb2jnF0jjLED9rnCsUfFEpHL+JrzXQmj1WZ15LIg455JBqEJArls4888zqnsJpcn4/Jy2v8U57dRx//PEDLdWx+P1ReanLw7XXXlv5z5f5+PB1rhmnpsGoOh6yYGpyyrOlZ9zgtK1ffV3EwmxSLPnOVv5FPJ9WKdgOOOCAKjwL146y3Kjb9FjWYebnpJNO8kFuOLflcObfH8Vey55w4wlEC6Yrr7yynK315eHPZVkkJc04J0sndeb9szqXHBj1bshqTUrP/Dn9ltLriCOOGLkXT1O6UCwNk4muNxa6FH6y5KpTUKpcv/GNb5jXoaNktr5G6a2MfB3QddWpJpdbyvln686PPvropqC4DgEIjCAQLTtkgWjv6Bvf+MYRMU92y++l2ca6VH0tWSpZWvzRWzi27Qv755s+VLCIfiSKpcnqDb4hAAEILIJAdFu6hRKdGp5Gt/nGm8p7O2zartFPl2+kWejikksuKVJjXfzZn/1ZsfPOOy8luYo/7Z1SpGVeRRroFrvvvnux9dZbh6XluuuuK5LCpkjKmOJWt7pVkQZAxa677hoW/jIDSubhZRmqLLfddtvirne9a3GHO9yh2GqrrcKSlQaURRpslgx32mmnIn2uvNhhhx3Cwl/1gOYlJzZv3lxceumlRdpcu0SoOq2/Sco+7Y1Tlm3aD6fYcssti9ve9rZl+bYJI+1LViTLljJ+PZv2biqf3WabbVa9SBeSv3nVG0u85K7kf9rDrix71Z3ddtvNbo88qt6p/H/84x+XsuD2t799kZTNxRZbbDHyOW5CAALzJzBv2RGVg3vd615FstIug0sTYa37ZZJZadlcof6P+q13v/vdi1ve8pZRyaoNZ5X7kbUZ5iIEIACBNScQ3ZauvGJpzesL2YfAQghEC6aFJJpIlk6AerP0IiABEOglgT7IjtNOO61IVtkl32QpWaR9InvJmkRDAAIQgMBqEohuS1EsrWY9IVcQWCiBaMG00MQT2dIIUG+Whp6IIdBrAl2XHbKC3mOPPYr0QYaSc1peXaSPB/SaOYmHAAQgAIHVIhDdlqJYWq36QW4gsBQC0YJpKZkg0oUToN4sHDkRQmAlCHRRdmjp7fbbb1+kj50Uab/JIu2xWbLW0vq0vx7LaFei5pEJCEAAAqtDILotRbG0OnWDnEBgaQSiBdPSMkLECyVAvVkobiKDwMoQ6KLseOhDH1qcc8455b5IBjp9QKBIX7kt9+azaxwhAAEIQAACXSAQ3ZaiWOpCqZIGCPScQLRg6jkOkt+SAPWmJSi8QQACQwS6JjvSlyjLj4sMJTL9OPfcc4v0hd78Mr8hAAEIQAACSycQ3ZaiWFp6kZIACPSfQLRg6j8RctCGAPWmDSX8QAACOYGuyQ4tgzvyyCOLyy67rPyK2957713stddexaZNm/Kk8xsCEIAABCDQCQLRbSmKpU4UK4mAQL8JRAumftMg9W0JUG/aksIfBCDgCSA7PA3OIQABCEAAApMTiG5LUSxNXgY8AQEIZASiBVMWPD9XlAD1ZkULlmxBYM4EkB1zBkzwEIAABCCw8gSi21IUSytfZcggBOZPIFowzT/FxNAFAtSbLpQCaYBA/wggO/pXZqQYAhCAAAS6RSC6LUWx1K3yJTUQ6CWBaMHUSwgkemIC1JuJkfEABCCQCCA7qAYQgAAEIACB2QhEt6UolmYrD56GAAQSgWjBBNT1IEC9WY9yJpcQiCaA7IgmSngQgAAEILBuBKLbUhRL61aDyC8E5kAgWjDNIYkE2UEC1JsOFgpJgkAPCCA7elBIJBECEIAABDpNILotRbHU6eImcRDoB4FowdSPXJPKWQlQb2YlyPMQWE8CyI71LHdyDQEIQAACcQSi21IUS3FlQ0gQWFsC0YJpbUGuWcapN2tW4GQXAkEEkB1BIAkGAhCAAATWlkB0W4piaW2rEhmHQByBaMEUlzJC6jIB6k2XS4e0QaC7BJAd3S0bUgYBCEAAAv0gEN2WoljqR7mTSgh0mkC0YOp0ZklcGAHqTRhKAoLAWhFAdqxVcZNZCEAAAhCYA4HothTF0hwKiSAhsG4EogXTuvFb1/xSb9a15Mk3BGYjgOyYjR9PQwACEIAABKLbUhRL1CkIQGBmAtGCaeYEEUAvCFBvelFMJBICnSOA7OhckZAgCEAAAhDoGYHothTFUs8qAMmFQBcJRAumLuaRNMUToN7EMyVECKwDAWTHOpQyeYQABCAAgXkSiG5LUSzNs7QIGwJrQiBaMK0JtrXPJvVm7asAACAwFQFkx1TYeAgCEIAABCBQEYhuS1EsVWg5gQAEpiUQLZimTQfP9YsA9aZf5UVqIdAVAsiOrpQE6YAABCAAgb4SiG5LUSz1tSaQbgh0iEC0YOpQ1kjKHAlQb+YIl6AhsMIEkB0rXLhkDQIQgAAEFkIgui1FsbSQYiMSCKw2gWjBtNq0yJ0RoN4YCY4QgMAkBJAdk9DCLwQgAAEIQGAjgei2FMXSRsZcgQAEJiQQLZgmjB7vPSVAvelpwZFsCCyZALJjyQVA9BCAAAQg0HsC0W0piqXeVwkyAIHlE4gWTMvPESlYBAHqzSIoEwcEVo8AsmP1ypQcQQACEIDAYglEt6UolhZbfsQGgZUkEC2YVhISmdpAgHqzAQkXIACBFgSQHS0g4QUCEIAABCAwgkB0W4piaQRsbkEAAu0IRAumdrHiq+8EqDd9L0HSD4HlEEB2LIc7sUIAAhCAwOoQiG5LUSytTt0gJxBYGoFowbS0jBDxQglQbxaKm8ggsDIEkB0rU5RkBAIQgAAElkQgui1trVhaUn6JFgIQgAAEIAABCEAAAhCAAAQgAAEIQCCYwA6btgsJEcVSCEYCgQAEIAABCEAAAhCAAAQgAAEIQAAC/SGwcMVSVIT9QUxKIQCBtgSiTSnbxou/fhOg3vS7/Eg9BJZFANmxLPLECwEIQAACq0Igui1tbbGEYmlVqhD5gEA8gWjBFJ9CQuwiAepNF0uFNEGg+wSQHd0vI1IIAQhAAALdJhDdlqJY6nZ5kzoI9IJAtGDqRaZJ5MwEqDczIyQACKwlAWTHWhY7mYYABCAAgUAC0W0piqXAwiEoCKwrgWjBtK4c1y3f1Jt1K3HyC4EYAsiOGI6EAgEIQAAC60sgui1FsbS+dYmcQyCMQLRgCksYAXWaAPWm08VD4iDQWQLIjs4WDQmDAAQgAIGeEIhuS1Es9aTgSSYEukwgWjB1Oa+kLY4A9SaOJSFBYJ0IIDvWqbTJKwQgAAEIzINAdFuKYmkepUSYEFgzAtGCac3wrW12qTdrW/RkHAIzEUB2zISPhyEAAQhAAAJFdFuKYolKBQEIzEwgWjDNnCAC6AUB6k0violEQqBzBJAdnSsSEgQBCEAAAj0jEN2WoljqWQUguRDoIoFowdTFPJKmeALUm3imhAiBdSCA7FiHUiaPEIAABCAwTwLRbSmKpXmWFmFDYE0IRAumNcG29tmk3qx9FQAABKYigOyYChsPQQACEIAABCoC0W0piqUKLScQgMC0BKIF07Tp4Ll+EaDe9Ku8SC0EukIA2dGVkiAdEIAABCDQVwLRbSmKpb7WBNINgQ4RiBZMHcoaSZkjAerNHOESNARWmACyY4ULl6xBAAIQgMBCCES3pSiWFlJsRAKB1SYQLZhWmxa5MwLUGyPBEQIQmIQAsmMSWviFAAQgAAEIbCQQ3ZaiWNrImCsQgMCEBKIF04TR472nBKg3PS04kg2BJRNAdiy5AIgeAhCAAAR6TyC6LUWx1PsqQQYgsHwC0YJp+TkiBYsgQL1ZBGXigMDqEUB2rF6ZkiMIQAACEFgsgei2FMXSYsuP2CCwkgSiBdNKQiJTGwhQbzYg4QIEINCCALKjBSS8QAACEIAABEYQiG5LUSyNgM0tCECgHYFowdQuVnz1nQD1pu8lSPohsBwCyI7lcCdWCEAAAhBYHQLRbSmKpdWpG+QEAksjEC2YlpYRIl4oAerNQnETGQRWhgCyY2WKkoxAAAIQgMCSCES3pSiWllSQRAuBVSIQLZhWiQ15aSZAvWlmwx0IQKCZALKjmQ13IAABCEAAAm0IRLelKJbaUMcPBCAwkkC0YBoZGTdXhgD1ZmWKkoxAYKEEkB0LxU1kEIAABCCwggSi21IUSytYScgSBBZNIFowLTr9xLccAtSb5XAnVgj0nQCyo+8lSPohAAEIQGDZBKLbUhRLyy5R4ofAChCIFkwrgIQstCBAvWkBCS8QgMAGAsiODUi4AAEIQAACEJiIQHRbimJpIvx4hgAE6ghEC6a6OLi2egSoN6tXpuQIAosggOxYBGXigAAEIACBVSYQ3ZaiWFrl2kLeILAgAtGCaUHJJpolE6DeLLkAiB4CPSWA7OhpwZFsCEAAAhDoDIHothTFUmeKloRAoL8EogVTf0mQ8kkIUG8moYVfCEDACCA7jARHCEAAAhCAwHQEottSFEvTlQNPQQACjkC0YHJBc7rCBKg3K1y4ZA0CcySA7JgjXIKGAAQgAIG1IBDdlqJYWotqQyYhMF8C0YJpvqkl9K4QoN50pSRIBwT6RQDZ0a/yIrUQgAAEINA9AtFtKYql7pUxKYJA7whEC6beASDBUxGg3kyFjYcgsPYE1l12XH311cUvf/nLsh7ssssuxTbbbLP2dQIAEIAABCAwGYHothTF0mT88Q0BCNQQiBZMNVFwaQUJUG9WsFDJEgQWQGDdZcd97nOf4rzzzitJf/3rXy/udre7LYA6UUAAAhCAwCoRiG5LF65Y+v73v1987nOf21Am22+/fXHnO9+5uNOd7sTMywY6XIBAtwlEC6Zu53ay1F1//fXFj370o2KnnXYqNm3aNNnDK+6berPiBUz2IDAnAtGy44ILLiguvfTS2tTuuOOOZf9UlkE3u9nNav0s+iKKpUUTJz4IQAACq0cgui1duGLptNNOK/bZZ5+RJXOXu9yluP/971+87GUvK25/+9uP9Dvrze9973vFN7/5zTKYe9/73oUUXKvifv7zn1czWrvttlux8847r0rWyEfHCEQLpqbsffzjHy9e/epXl7dvfvObFx/60IcKdfpzd/TRRxfvf//788sbfv/hH/5hcfLJJxdbbbXVhnt24ac//Wlx3HHHFR/72MeK3/3ud8Xf/u3fFk984hPtdu3xuuuuK970pjcVb3/724sf/vCHlZ/b3e52xSMe8YhSttWlu/K4JieR9eaEE04ojj/++InIbbnllsXZZ59dPjPr8xNFjGcIQGAmApGyQwl58YtfXLzyla8cmyZZBh166KHFX//1X4/1O42Hf/mXfyl+/etfF7e5zW2K3XffvTEIFEuNaLgBAQhAAAItCUS3pcVgjLth888H+otyn/zkJwcpr63/0sBs8Nvf/jYq+g3hvOENb6jSkhRMG+73+cL5559f5S0NmvqcFdLecQLRcqIuu8nqZ3CLW9yiqtOSI03v7NOe9rQhf6NkTtqnYkN0P/vZzwZvectbBvvtt9+GcNLgY4N/f+Hiiy8eJMvLDc/5NKRBw+Dcc8/1j63leWS9eelLXzqSuefvzw38rM9bOBwhAIH5E4iUHUrti170oonkx+Mf//jBT37yk/CMmmzaf//9R4adJkKr9KalcCP9chMCEIAABCBQRyC6LV2qxdKDHvSgQpYFKaPFd7/73eKiiy4q/z7wgQ8UN9xwQ2pff+8e/vCHl9YCW2yxhV0KOx5++OGl9YAClOXSrrvuGhb2sgM6/fTTi4c85CFlMjQb/6QnPWnZSSL+FSUQrvGu4aQZYskG75re2Uc/+tHFhz/84dKrlteOWr5w4YUXFltvvbUPtvja175W3OMe9xi6Zj80q/3CF77Qfg4dZZGpuE1+JUVY8Td/8zfFHnvsUXzjG98okiK78i/LzK9+9avFtttuW11bt5PIevO2t72ttBIbx1DlYG6vvfaqlmbP+ryFyRECEJg/gUjZodR6iyVZJD35yU8uM3HTTTeVS5m//e1vl+3PJz7xiSpze+65Z5Em8IqovqmszG25dFIsFe9+97uruPITLJZyIvyGAAQgAIFJCUS3pUu1WJI1QJ276qqrBnvvvXc1G5MgDdKyljqvM1975jOfWcXTZP0wcyRLCuCDH/xglTcslpZUCGsSbbTGO8eWlrxVdVnywP6a3tmktK78pKVseXBjf1922WWDBzzgAdVfWsJWhTfKYikpqit/Bx988OA3v/nNUFxKr7e6SsqMofvr9mPe9SbnuXnz5oGsxcbVn/w5+z3r8xYORwhAYDYC0bLDWyy98Y1vbExcmrCo5IfkyKc+9alGv5PeSBOsVdhYLE1KD/8QgAAEIDApgei2tJOKJUHR8jc1rDYA0GBAnfpx7he/+MXgK1/5yuAzn/nMIG0UPs774LGPfWwVR9MgtS4QDVY///nPD84555xB2py3zkvttbR2fvCtb31rcNZZZw20VO3GG2+s9Vd3UX7TBpODZIk0uPLKKwdpv5c6b9U1LSM0fm0USwrvBz/4weALX/jC4LOf/ezg2muvrcLiBAKjCEQLJh9X2qNoSBmTLBiret30zqZ9MCo/Pqxpz4888sgqvFGKJb1Dhx122GCUwkj37L18ylOeMm2SVuK5edabOkAveclLKvZa6jipm/X5SePDPwQgUE8gWna0VSwpNVoGZzL8Fa94RX0Cp7iaLGWrcCdRLGn5tTn1nZMl7CB9JGfiPlyyzhooLPUx1T+dtQ+o/rj6yV/60pcm6utaXjhCAAIQgMB8CUS3pZ1VLAnj1VdfXTWyasTTpr21dL/zne8Mnve85w3S0pUh/3pG1gGydvAumTQPtD493wdFfv1f2qzXP1buiZI27d3wnOJR3OoUNDnt46KBjLdWsI6JnpV1UZOiSHvLHHTQQbV5e9aznrWhwd53330HaZnNhrh83tJSnqGkpk2Ry2csTXaUpYYG0slEe8g/PyDgCUQLJh+2V/6+5jWvGVI4NymWzCpF9TfCtVUstYkrLfmt3mXJoXV286w3OVfVFZNrskbLrcly//nvWZ/Pw+M3BCAwPYFo2TGJYumoo46qZMkBBxxQZkLKJutjvfOd7xyZsbScrvIry9b0oZqBJkPy/qGFp2NatjsUpt9j6fLLLx+kJb4D9U/zMPSc+sijnCZvnv/85294VvJSEzlSDjW5tOy7ysvrXve60pvy97CHPaxiZHJXex9KeYWDAAQgAIFuEIhuSzutWBLyQw45pGqcpDDxTrMhz33uc6v71njVHd/85jdXj6oBrvOTXzOFlJbmKe78ft1vWfvUOT/DVfecrtUtDZSyyi/DqXtWiimZUJuzQXWdX7t24IEHmvfBscceOzZvSsM8NqqsEsFJrwlECyaD8Q//8A9V3VTHW++8VzQ1KZasnt/vfvezoGY6RiqWNAiw9OndXWc3r3pTx9TLcC11nNTN+vyk8eEfAhBoJhAtOyZRLL3+9a+vZPhTn/rUMpHarsHk+rgJAz1jfvWcFEL2u+moyULvvGJJS/eantN19QmbrOO//OUvj+1jKgx96KbO6UMXFrcUR1KS2e+64yMf+ci6YLgGAQhAAAJLIBDdlnZesaQlY9Y4ycLIOy0r80te0kbVA33ZRwqhV73qVUMWTJrFsSVrWlKnWaJcKZU2ty6v6br+1ODKaemapUHHxz3ucQN1LLTW/gUveMHQnh3aGyp3mr3xzz/nOc8p1+VruZ6sgWyG6X3ve9/QozJD9koidSze8573DL74xS+WFk4alFq4Srs5dQCUfv+s2Fi+dDSlmZRFFoaOj3nMY8qwtcRPCifFqetPf/rTLXiOENhAIFowKYJrrrmmejdUB+19VMfU6mydYkkdaLsvv5oh1VdzzjjjjIGsFadxkYolWQda+vS+rbObR72p43nqqadWzMctMZnH83Vhcg0CEJieQLTsmESx5Ldp0PJYOVl1W19O8l2WqXXuV7/61ZA/KWbUJqhf5pVF6nv5Ppv6tN55v9aeaALw2c9+9kDbIPh2UvfVn8udtj7w/USlXxzUt5WyKo8jfTwjD2LgFUuWDh3TxuaDI444YqBJXd9X1T2+YrcBIxcgAAEILIVAdFvaecVSrtRRo+ydNk6UMqfOUihXzBxzzDH+0fLcFCdq7OoGqfaAZmGkvJH1Uu60lt03qHmjqc6B3ZdSKXcyQ67bnNx3XjRbns846bfMnC3sPF4tk7N7TXssfeQjH6n8SEmXL8fTEr4TTzyRpXB5ofF7iEC0YFLgUrpY/fX7WPgOc9076zdA1fO+s6/f6kjL6umKK64YysOoH5GKJW/58ta3vnVUtCt/bx71pg6a38y9rq2oe8Zfm/V5HxbnEIDA7ASiZUdbxZKWhVm7pKNfJqblZHZPe+3VOfVZzY8mKb3zH1xR/2+Uy5U+WpKX9499H1KTi7nzbazaxXw7BynLvIWw2tIf//jHQ8HUKZbe9a53DflRX9X3tXMl2ZBnfkAAAhCAwMIIRLelnVcsySrJGmEd6waSo+hrzbc9LwVP7nxjN2nYPiy/nvzkk0/2t0prH0tD24GklE32jBpzWW/UOVlhmL+8sW6jWJKVlD2vATsOAtMQiBZMvoOtDrTkgLlxiiUpWK1OjzqqI61NTtu4KMWSNjH1aVr35aXR9aauLCU7jblm0Sd1sz4/aXz4hwAExhOIlh2jFEv20RVZxPuJinwyzu+fp/albh833y875ZRThjLq271JFEt5388ClXW7yb7c4v973/tedU9+8rRYGFIK+TznH6bIFUuyxK9zvg3V15hxEIAABCCwfALRbWnnFUtCbg2jjvriW1unBk8bZtvzdXsYRSiWtLm230Mp/1Stlp1ZGtTZ0NK4ce64446rnqlTiNnzXvGm9e3e+Q5Mk8VS3rlQ2v0g3ofHOQSaCEQKJpnn+47sJZdcMhTtOMWSvgZpS2S1SbOs8tTh12ys3isfts6159o45zvFo74KNyoczf5auiQPDj300FHe1+JeZL1pAqbZc5O/TXKw6Vldn/X5UWFzDwIQmI5AtOzwiiXJCyli9Kc+m8kPf9T1K6+8ckPi1eaYv09/+tND99W3svZHx3wj62kVS7m1ukWab3Vg13V8xzveUaVT7ZK+Jtfk9OEcy5Py551XLClPTU4fw7EwZLWLgwAEIACB5ROIbks7r1jKG8ZRM/yyONLacm2EWLfhdf5VDRXnpIolLRXTUgp9nUqNo3USrMHU8fDDDx+qKT/96U83dE6UFnUitNSszmkPKAvzUY96VLm3kvZXqvszf1qu4V0bxZL8+8+3Kyx1pqRgGsXax8M5BCIFk+q71em6T8KPUyypNLQkQPuE1bl8X4m65an5cxGKJe19YfnSO5Yvbc3jXIffkfWmiZeXb1KkT+pmfX7S+PAPAQiMJxAtO3LFksnquqOWvDXJEr+Jt9/7Ujn67Gc/W7UB+USg7kcrltRf9en3yiPfx1TbNMr55X9SqHnXVrGkfrOlpW5Zng+TcwhAAAIQWAyB6La084olWShZY9Q0G6INvv1SNPOfH2dRLKlB1my3tzjIw7ffuWJJVePqq68e6AtV5seOaqRlxqyvXXn3hCc8YYNfe6bpmH9hqq1iSbNm6uTUhSuT5aYOlE8v5+tNIEow+U65lL76TLL2TPJ/fkZYHV7dk5XSJE4KWqvvUvKMc7MqlvzssOKdZp+fcWns4/2oetOUdz8xkQ+Imp7x12d93ofFOQQgEEcgWnZ4xZL6UrJCtz99Rdc+2KJtCka5fBPvG264ofJ+0EEHVe3O6aefXl23k2jFksK1dk5Hv4em72M2ffHN0qWPXvhwvFV7W8WSX5aHYsnIcoQABCCwXALRbWnnFUt+oFn36fCjjjpqqMGT8kkKFX3VQkto/EzLtIolNaLeikINrCyitKH3Jz/5yVJp5PdyqlMsqdooHC2Lq1Mw6ZoG0ea0qaNvyDXIHveXbwTZVrFkcWqw6zdqtPg1INNMGw4CTQSiBJOUPFbvJjk2KZ2b0pt/FMDP5NY9M4tiKf8qpJRMuN8TiKo3TTz1FSOrR9N8gW/W55vSxXUIQGA2AtGywyuW8u0MJk2pvhZscue977bGphQAAEAASURBVH1v+biUOupL6braK6+csfAXqVjyfcw6y2BLk475BzG8pT2KJU+KcwhAAAL9IhDdlnZasaTBnjZbtQY6Nyv2MyDyo40V8+Ul3s+0iqVceSWlVb4pox94NimWfFXTJr7Kj+VNx3322afy8rznPa+6N67Rrx7KTiZVLNnjUnCJpU+bzvP9AMw/RwhECaa6Jax5Paz7PaliSXLChzOubvv3e5I9lvIvRmrmG/fvBKLqzb+HOHymLzNZOasMJ3WzPj9pfPiHAATaEYiWHZGKpYsvvriSO7Kml/PW9037Zi5SseT7mLKkGuW0rNzkaN7WolgaRY57EIAABLpNILot7bRiSQoca8x09J91VTFp81u739QwTqJYatrE11sYffSjH62tIX7g2UaxZIHI4snyoKP2Y5LT1+PsuqyIpnFesZR//rVNeNqzyg/0lVYcBOoIRAkmKWLUuR715z+zrJll+c2/xFiXRn/tggsuqN6vvKPs/dm5f7/bKpakPFbY9h5rWUWukLbw1/UYVW+a+Gm/PeNft/Sk6Tm7PuvzFg5HCEAglkC07IhULCmn2vPSZI/29fMbYDcthfaKJcmeUc63g02bd+t5S4OOfimc72MqrFHO+81XDqBYGkWOexCAAAS6TSC6Le2sYum8884bUmrUKVf8pqpNnzj1FgN1FkveIurUU0/dUPqymvINszcB9p412DR/kyiWFIbSZc/a4CdfqnP++ef76Fqde3PsQw45pNUzuSflxdI2ab7ysPi9ugSiBdMoUuM279byJVPQNoXjNy7NN72ve2ZSxdJXv/rVIaWSrBGbZEddfOtybd71xu/HdeGFF06MddbnJ46QByAAgVYEomVHtGLJb+NwzDHHVFsgaLKuaen1xz/+8aq/NU7ZM6tiKe9j5l+ws0LQ/p+2hE99Qe015R2KJU+DcwhAAAL9IhDdlnZOsaRGzA/iTKlxxRVXbCgpWQDY/TqLnLPPPnuoQaxTLPlBatPnv73VQW7VpBkgfYnO0qFjroDRF+T233//wTXXXLMhD9dff/3QANRvQuwVZ9o0XB2BOqeNwfWXOy2hs3Tls0zmVwo5Daw1EK5ze++9dxWGLMhwEKgjEC2Y6uKwa/6dlVWdd7JcUp3XXk1f/vKX/a3qPN/zyPbAqDzUnHiZNM5iSQoMLzP07vkNXGuCX9tL8643fkDkZWtb4LM+3zYe/EEAApMRiJYd0YolLa+2dsDvHdjUz1Tu1WZZn01HKW2a3KyKJYXr+5jawzPvY2ofKH3Axacp/5gLiqWmEuI6BCAAge4TiG5Lt1CWU6PR6DbfeFN5b4dN2zX6meTGaaedVqTZ+/KR1Gkv/vZv/1bKrSIpjoq0Br246KKLhoJLDXNx0kknFY94xCOGrutH2jC7SFY55XX5+7u/+7viwQ9+cJG+2lGkwWNx7LHHDj2TFEtFsmAaupYGicWLX/ziKozjjz++2HXXXYuvfe1rxd3vfvfinve8Z/GXf/mXZXjylBrf4v/8n/9TpEa9SObHRbKOKNISsaEwk2KpOOKII8pradPr4r/8l/9SniuN6TO1xf3vf//ijne8Y5HWrZd5+9SnPlXeT9ZTRVo+U57rX9rrqPiTP/mTIg1Kq2vK833ve99i06ZNRdpQsfjnf/7n4m1ve1uR1vEXyeKq8qcT5TXNuFfXkil28dCHPrRISqgizZgV4vGnf/qnJS95Sh2Ikp/ynQbsRRqkF8cdd1z1fPpCUrHjjjtWvzmBgBGIlhMWbt3xr/7qr8q6qXuqp3pfzal+2/uka3ovHvjABxb3uc99yvcozQgP1enUsS6SwrS4+c1vbkEU1157bfGmN72p+q2TtAy3OOOMM8preqeSMrY817/ddtutSMsWyt9pb43y/fTv7NOf/vRi2223LZLSvHzvqgf/7eTOd75z8cIXvjC/vBa/51lv0qCo2GabbSqOv/rVr4qtt966+j3uZNbnx4XPfQhAYHoC0bJD/UD1B+XSEuuynzd96n7/ZLKMLV772tcOBZMm8Yr01bmha/Zj8+bNhfqJ5tSupC0NiqSkKtKERfG///f/tltlm5Ys+8vf6oumycfqnj/ZYostqp9pIrTwv9PX3so+oLVX6pOrLVKbdt111w31TxWI+oP/63/9ryo8nejZW97yluU1pT0pmobu249zzz23bBv1O30VrtBYAAcBCEAAAsslEN2WLtViKaEcmgnJf++3334jPyOuT0H7GeX8ef32e2TUWSxpFrvuOV2zDRb9Pk1Nfv1G3N5iSTNQfrld0/OpQR5o+V/utJRP95qe89cvv/zy/PGBPpvr/di5LKD02Vx9KcmujTqecMIJG8LmAgSMQLTG28KtO46yWNKnnp/97Ge3qtOyeKxbniYrqFHvQn5Ps77mvBzI/TX9lgxbVzfPeuOXekiGTupmfX7S+PAPAQi0JxAtO6ItlpQTv4m35L+sgsY5v6l23maoz2YuwmJJYZ111lmt+phNllZYLFmJcIQABCDQPwLRbenCFUtqxPLG0n5LAaOBWZrhGSSrg1alo00LpTCyMOyoRlfr1eWsAa5TLOm+loPVKW/8V9o+9rGP1Sqx9t1330GyshpoSZvF7RVLCl8b9iZLqIGUOebHH7UUrU4ppGfl9KnXAw44oPZZhfPUpz51kC8J+v2Tg8FVV11Vq9hSfu0LerYczqfJzpVmLR3CQWAUgWjBNCquUYole077pfn9caw+66i6nywKGzfS1rJS73/cuf+MPYolK4F2x3nWG7+spM2ALk/xrM/n4fEbAhCIIxAtO17+8pdXcl8fhYhyvn86bhm14tTkiJ8Q9e1PsoCvkqV+o90b1X80Pzr6zburgNKJ+olNbZfvS/tn7FzptThGTZL4CdpksWSPc4QABCAAgSUSiG5LF74ULjVA4U7mvWnvo3JZzHbbbVeaCJtpbtvItExC5sQKR8+mNfHlsjdvNqylLFrqkhrx4va3v33xn//zfx5aatEmrtQIlybNMkHWsrrdd9+99fIMmRxfcskl5VI2La25613vWtzhDncottpqq5FRi4+WGsqUWm6XXXYpTbHzZSFJAVbmX3ncaaedSj877LDDyLC5CQERCDelDMKa9oMokuVJkb7KU2y55ZZF2ji1rNd+iVRQVAQzBYGu1pspssIjEIDAAgn0RXbc6173KpKSuiSTL90ehStZ0xdaNqd+384771xuzTBpv3ZU+HX3tPxN/T9ts3CrW92q7Af7peZ1z3ANAhCAAAT6SyC6LV0JxVJ/i5OUQ2A1CEQLptWgQi7GEaDejCPEfQhAoI5AH2SH31NUe/OlD8rUZYVrEIAABCAAgaUQiG5LUSwtpRiJFAKrRSBaMK0WHXLTRIB600SG6xCAwCgCXZcdsgDfY489qg/S6OMq+pgEDgIQgAAEINAVAtFtKYqlrpQs6YBAjwlEC6YeoyDpExCg3kwAC68QgEBFoIuyQ1sdbL/99uWX0Q466KBCXxmW01fg9NVjv7VClRFOIAABCEAAAksiEN2WolhaUkESLQRWiUC0YFolNuSlmQD1ppkNdyAAgWYCXZQdD33oQ4tzzjmn3BfJUp4+FlGkr/uWyiW7xhECEIAABCDQBQLRbSmKpS6UKmmAQM8JRAumnuMg+S0JUG9agsIbBCAwRKBrsuOXv/xloY+q5O7cc88t0pfV8sv8hgAEIAABCCydQHRbimJp6UVKAiDQfwLRgqn/RMhBGwLUmzaU8AMBCOQEuiY7tAzuyCOPLC677LLyK2577713sddeexWbNm3Kk85vCEAAAhCAQCcIRLelKJY6UawkAgL9JhAtmPpNg9S3JUC9aUsKfxCAgCeA7PA0OIcABCAAAQhMTiC6LUWxNHkZ8AQEIJARiBZMWfD8XFEC1JsVLViyBYE5E0B2zBkwwUMAAhCAwMoTiG5LUSytfJUhgxCYP4FowTT/FBNDFwhQb7pQCqQBAv0jgOzoX5mRYghAAAIQ6BaB6LYUxVK3ypfUQKCXBKIFUy8hkOiJCVBvJkbGAxCAQCKA7KAaQAACEIAABGYjEN2WoliarTx4GgIQSASiBRNQ14MA9WY9yplcQiCaALIjmijhQQACEIDAuhGIbktRLK1bDSK/EJgDgWjBNIckEmQHCVBvOlgoJAkCPSCA7OhBIZFECEAAAhDoNIHothTFUqeLm8RBoB8EogVTP3JNKmclQL2ZlSDPQ2A9CSA71rPcyTUEIAABCMQRiG5LUSzFlQ0hQWBtCUQLprUFuWYZp96sWYGTXQgEEUB2BIEkGAhAAAIQWFsC0W0piqW1rUpkHAJxBKIFU1zKCKnLBKg3XS4d0gaB7hJAdnS3bEgZBCAAAQj0g0B0W4piqR/lTioh0GkC0YKp05klcWEEqDdhKAkIAmtFANmxVsVNZiEAAQhAYA4EottSFEtzKCSChMC6EYgWTOvGb13zS71Z15In3xCYjQCyYzZ+PA0BCEAAAhCIbktRLFGnIACBmQlEC6aZE0QAvSBAvelFMZFICHSOALKjc0VCgiAAAQhAoGcEottSFEs9qwAkFwJdJBAtmLqYR9IUT4B6E8+UECGwDgSQHetQyuQRAhCAAATmSSC6LUWxNM/SImwIrAmBaMG0JtjWPpvUm7WvAgCAwFQEkB1TYeMhCEAAAhCAQEUgui1FsVSh5QQCEJiWQLRgmjYdPNcvAtSbfpUXqYVAVwggO7pSEqQDAhCAAAT6SiC6LUWx1NeaQLoh0CEC0YKpQ1kjKXMkQL2ZI1yChsAKE0B2rHDhkjUIQAACEFgIgei2FMXSQoqNSCCw2gSiBdNq0yJ3RoB6YyQ4QgACkxBAdkxCC78QgAAEIACBjQSi21IUSxsZcwUCEJiQQLRgmjB6vPeUAPWmpwVHsiGwZALIjiUXANFDAAIQgEDvCUS3pSiWel8lyAAElk8gWjAtP0ekYBEEqDeLoEwcEFg9AsiO1StTcgQBCEAAAoslEN2WolhabPkRGwRWkkC0YFpJSGRqAwHqzQYkXIAABFoQQHa0gIQXCEAAAhCAwAgC0W0piqURsLkFAQi0IxAtmNrFiq++E6De9L0EST8ElkMA2bEc7sQKAQhAAAKrQyC6LUWxtDp1g5xAYGkEogXT0jJCxAslQL1ZKG4ig8DKEEB2rExRkhEIQAACEFgSgei2tLViaUn5JVoIQAACEIAABCAAAQhAAAIQgAAEIACBYAI7bNouJEQUSyEYCQQCEIAABCAAAQhAAAIQgAAEIAABCPSHwMIVS1ER9gcxKYUABNoSiDalbBsv/vpNgHrT7/Ij9RBYFgFkx7LIEy8EIAABCKwKgei2tLXFEoqlValC5AMC8QSiBVN8CgmxiwSoN10sFdIEge4TQHZ0v4xIIQQgAAEIdJtAdFuKYqnb5U3qINALAtGCqReZJpEzE6DezIyQACCwlgSQHWtZ7GQaAhCAAAQCCUS3pSiWAguHoCCwrgSiBdO6cly3fFNv1q3EyS8EYgggO2I4EgoEIAABCKwvgei2FMXS+tYlcg6BMALRgiksYQTUaQLUm04XD4mDQGcJIDs6WzQkDAIQgAAEekIgui1FsdSTgieZEOgygWjB1OW8krY4AtSbOJaEBIF1IoDsWKfSJq8QgAAEIDAPAtFtKYqleZQSYUJgzQhEC6Y1w7e22aXerG3Rk3EIzEQA2TETPh6GAAQgAAEIFNFtKYolKhUEIDAzgWjBNHOCCKAXBKg3vSgmEgmBzhFAdnSuSEgQBCAAAQj0jEB0W4piqWcVgORCoIsEogVTF/NImuIJUG/imRIiBNaBALJjHUqZPEIAAhCAwDwJRLelKJbmWVqEDYE1IRAtmNYE29pnk3qz9lUAABCYigCyYypsPAQBCEAAAhCoCES3pSiWKrScQAAC0xKIFkzTpoPn+kWAetOv8iK1EOgKAWRHV0qCdEAAAhCAQF8JRLelKJb6WhNINwQ6RCBaMHUoayRljgSoN3OES9AQWGECyI4VLlyyBgEIQAACCyEQ3ZaiWFpIsREJBFabQLRgWm1a5M4IUG+MBEcIQGASAsiOSWjhFwIQgAAEILCRQHRbimJpI2OuQAACExKIFkwTRo/3nhKg3vS04Eg2BJZMANmx5AIgeghAAAIQ6D2B6LYUxVLvqwQZgMDyCUQLpuXniBQsggD1ZhGUiQMCq0cA2bF6ZUqOIAABCEBgsQSi21IUS4stP2KDwEoSiBZMKwmJTG0gQL3ZgIQLEIBACwLIjhaQ8AIBCEAAAhAYQSC6LUWxNAI2tyAAgXYEogVTu1jx1XcC1Ju+lyDph8ByCCA7lsOdWCEAAQhAYHUIRLelKJZWp26QEwgsjUC0YFpaRoh4oQSoNwvFTWQQWBkCyI6VKUoyAgEIQAACSyIQ3ZaiWFpSQRItBFaJQLRgWiU25KWZAPWmmQ13IACBZgLIjmY23IEABCAAAQi0IRDdlqJYakMdPxCAwEgC0YJpZGTcXBkC1JuVKUoyAoGFEkB2LBQ3kUEAAhCAwAoSiG5LUSytYCUhSxBYNIFowbTo9BPfcghQb5bDnVgh0HcCyI6+lyDphwAEIACBZROIbktRLC27RIkfAitAIFowrQASstCCAPWmBSS8QAACGwggOzYg4QIEIAABCEBgIgLRbSmKpYnw4xkCEKgjEC2Y6uLg2uoRoN6sXpmSIwgsggCyYxGUiQMCEIAABFaZQHRbimJplWsLeYPAgghEC6YFJZtolkyAerPkAiB6CPSUALKjpwVHsiEAAQhAoDMEottSFEudKVoSAoH+EogWTP0lQconIUC9mYQWfiEAASOA7DASHCEAAQhAAALTEYhuS1EsTVcOPAUBCDgC0YLJBc3pChOg3qxw4ZI1CMyRALJjjnAJGgIQgAAE1oJAdFuKYmktqg2ZhMB8CUQLpvmmltC7QoB605WSIB0Q6BcBZEe/yovUQgACEIBA9whEt6Vrp1j63e9+V1x55ZVlyd7sZjcr7nCHO3SvlEkRBHpGIFow9Sz7JHdKAtSbKcHxGATWnACyY80rQIvs+/7+lltuWfzxH/9xi6fwsggCV1xxRTEYDIrtttuu2HnnnRcRZSfi+P73v1/8/Oc/L9Nypzvdqdhiiy06kS4Ssb4EotvStVMs3XDDDcUtb3nLsgbd5ja3Ka655pre1aYf/ehHxf/7f/+vkGLsf/yP/1HsuOOOvcsDCV4tAtGCabXokJsmAtSbJjJchwAERhFAdoyiwz0R8P39W9ziFsXPfvYzwHSEgFeoqJx22GGHjqRsvsl49KMfXXz4wx8uI/nUpz5VPPjBD55vhIQOgTEEotvShSmWpMA5++yzx2Sv+fY973nPYtddd2320PKOb2j6qlj67//9vxcf+9jHyhw/6UlPKk444YSWuccbBOZDIFow5alUh/Daa68tbne72xVbb711fnvk71/96lfFd7/73WLTpk2F3vlpnOTXb3/72+K2t71toZlPXAyBedcbzYh++9vfLjutt771rWMSTSgQgMDSCUTLjgsuuKC49NJLa/O17bbbFne84x0LWRioHVln9+lPf7r4yU9+sgGBFAU77bRTyUjtpFccbPC8oAu+v49iaUHQW0bj68d1111X/MEf/EGrJ2Xx87nPfa70q/dy3333HfvcP/3TP5VWQpqEX7YixyuWPv7xjxcPf/jDx6Y/wsMPfvCD4rOf/WwZlPrBD3zgAxuD/fWvf11ceOGFxZe//OXi3HPPLWTMsOeeexb3ute9Co3F9X7jVodAdFsqU8SR7obNPx/ob1Z3+umnD1IxTP339re/fdYklM+nAWqVhvRyhYS56EBSA1nlIXV0Fh098UFgA4EoOeED/sIXvjB41rOeNbjHPe5R1XfJENX5N7zhDYMbb7zRe99wnhrFQep0DD2rd+fAAw8cfOtb39rg319IJvSDD3zgA4MnPvGJg6TMGgrj3ve+9+Dkk08eyM8kLim4Bo95zGMGe+21V/l39NFHT/L4SvqdR71RvXj9618/2G+//QZeVupc11QvJnWU3aTE8A+B+RKIlh0vetGLhuR8U39V/caDDz548Itf/GK+GZwi9DSBMvjMZz5T/o1rH6cIvnxE7V8TG3/9AQ94wOD888+fNpqxz33+858v83nRRRc1+vX9fcl/XHcI+LqSFEutE/bJT35yqP6deuqpY5/1fbg0QTjW/zw9POpRj6rSnxRL84xqKOxkHVXFu/feew/d8z/SEsXB3e52t8qvLyc7f/aznz22/+3D5LzbBKLb0t4olo455piQkvENTV8VS4cffnj10r/uda8L4UIgEJiFQKRg+uUvfzk47LDDqjpujVl+VGfhe9/7Xm2y1aHN/fvf6mSqY1rnknVSqYDw/uvO00zTIM3s1AVRe+3v//7vh9KUrA1r/a3Txch6I25SGt3lLncZ4lxXdq961asmwkzZTYQLzxCYO4Fo2dFWsWTyRBMeo5QacwdQE4EmXCx93/zmN2t8zH6prWLJ0iFZO0k72TaFFv7+++/f+Ijv76NYasS0lBtWfjrOolhSe6+Jn1EOxdJg0EaxpD6x3hNfNk3n4v6lL31pFHbu9YRAdFu6sKVwP/3pT4tLLrkk1dGN7v73v391UWtP6zZyS414sf3221f+pj3xprEyB+zjHkvKexpQl6bGMj3GQWDZBCJNKb2psPKVZj6LNMNSmtmfc845xbvf/e4qu8n6p0gztOV+Y3ZRJrx//ud/Xu6voGvJSqX4q7/6q3Ip3Qc/+MFCYZj7xje+Uey22272s7jpppvKJQ8//OEPq2sytZbZ8DbbbFP84z/+Yxmf3UyDkeIVr3iF/Ww8apnFHnvsMXSfZaxFEVlvZLYtU21zku8Pe9jDivve977F9ddfXxx33HGFNgw194lPfKL4b//tv9nPxiNl14iGGxBYGoFI2aFMvPjFLy5e+cpXlvk59NBDiyc/+cnluTaA1tIvLSXRkppjjz22vK5/aRBW9sW6sj9MmnQsXvayl5XpS4qlkO0jqsz+28l97nOf4rzzzit/feQjHynufve7a4K62Lx5c9mfvvjii4t3vetdheSmuec973nFkUceaT9nPmrzY1uSmBRLQ30CH7jv76uskqLJ3+Z8iQSmXQp32mmnFfvss89Qyt/ylrcUybp96Jr/scsuuxRXX311eUlbGixzOwPfv13kUri0aqh4yEMeUjJQf1pLWr3TO6Ulbnpn5JLVUvGa17ymUB9b+/l+7WtfK/vORxxxROVH/eFHPvKRPhjOe0ggui1dmMXSKMVdKodKQ5rWz47yOvM9P4PRV4ulmSEQAASCCURqvL/4xS+W8kDvZ1oTviGlMh/2MuOrX/3qkB+Z4Nv9Qw45ZGjJmqyhZClk97U0Kndvfetby/taspb258lvl8sg7HnN7oxbEqc48+V8eh6LpUG5zFp1J8LJxF1LDcX2gAMOGKSO0lCwSWk48HVDJunjHGU3jhD3IbAcApFtjnLgLZbe+MY3NmZK7Y3Jfx2jrOkbI5zgxjOf+cwqbYuwWBplsfCc5zynSos4JeXcBDkZ7VVL/qwMsFgazaqrd638dJzFYknPqx+W9gFqzCoWS+MtltKka/VOqe/dxFPvnraYSArsRt7c6BeB6La014olDRTS7MhA+zdp6Uva3HdsaUYrlhRn2txscNZZZw2SlcPY+Js8aL2+zBDVUM9rbXxT3HXXZbqsjknSag+SpnqsqWldGLqmMFQ+OuZrmzUgT7OAA+2lIwVCm/JriofryyUQLZj0Lox6n9LMS9UInnTSSVXmL7/88uq6OhOSEbnT+6WG0zo2qt+5k/Kqybxa76o9q6PiHOXUAJt/v74exVKsYklloLLVHgxNLm36WZVFm4kFyq6JJNchsFwC0W1OW8WScu39ah/AeTq1Ycnav+xHqb87alnZYx/72Eq+LVuxpHT6drZukmhabmqzrU2dVrE0S587rcAYfOUrXymXFykts/bZpXQ744wzynIeVb6T8PrNb35T9eEvu+yygX5P62ZJnxQRaneTpfgQJymDrAynVSzd7373q8IY9R5OqliSgYPGJWeeeWbJcJoyUZ40Lk0W9UNKGv+OttljKWqMOW4p3Mtf/vKK5TOe8YxpqwrP9ZBAdFvaS8WSBpzPf/7za9eCat+Tpr1TVN5tFEsSwhJEEnz60wuZu2TmW82Om3DUUQ3p2972ttx7+TuZGFZh2t5IaTnGIC3XqF5oC+tpT3ta7aBYAWm/D0ubH1TrnoSY3Rt3fOpTn6pHhpwE6Jvf/OahDoGlKZmf1lpwKACfJoVx1VVXDR70oAcN5SuZTVdxSaDW7YUi7skcfYO1QfUgJ50kEC2YxmXyCU94QlW3tK+EOb+x46iORjLLr57XRs+TOr1b9l6M2qBUnU/zp2fMGkvXUCzFK5bGlaMGaFYeOo5ylN0oOtyDwHIJRLc5Xlk0ymJJuX7ve99byZHc6lWz+db3amobNGlhftTnqXOyGNAmuV5e2bn6Yha2rGq175E+amH3dbTw7Zi+JFwXzcTX/B5LoyyWFLD645am97///aVSzPet6yZ1fIIOT/uJWvo/+tGPllYS2lhY1yzcPK+yNDZX199XH8Gny8IZ1ee28GSt9rjHPW4obnteVrLq9zY5TdJaXqRo0URrWsJVlp2FYcemMURT2HY9LUccHHXUUUOWuRamjtq7sklJEp2+9BXwDWMApUFWw2pbVQ8sbdMqlmRd7sPRuKzOeT/5BLf3r3dE9cfSZUeN6zTGaaNA1ObX3irewtD7+aEPfWigcZddG6VYmmaM6fOSn49TLPk+sSZucetDILotHd2zTlyjI6wrKnvJdBy3FE6bs3oh4Z/1536w6eOsa2j8fSl//I74T3nKU/zt8vwf/uEfKsHg4/Tnj3/84zcIcB+3GjE/G+6ftfO0dnVD3Lrwwhe+sIo/N8P2wsPCaTpKc+6dZiW8JUjdc2oY1WDkzqdJM2WeoYVjX+JKexRU6bd7+VFlHGk6naeX37EEFiEnLMWydPMzoaeccordGrznPe+p6tZLX/rS6np+IjlidU6K3UlcrpxosrTLl1GpY+1nWlEsLaZ98WX7zne+syp3LU9scpRdExmuQ6AbBKLbnEkUS1I8WfuRT9D5gamsNOqcFEv2vI65k0VM3cSbf0bnSkfaJ3AorNyP/dagNsJNoljyX2VV2ywnBYylSUvVm5zaed/XlwJNX2m1Z5uO4mbO97kVlhRVTc/pelOfW+H5vkVTGOofy8qlzmkS2Z6T4khx2e+6o5ROkzj1q3OFW124TXmMTJ/yVxd307VpFUtShpx44olVXE1fO/P1qE6xJGXbc5/73CqcpnSqzzBKeTjJ5teKo0mxNO0Yc1R98WPDOk5+0lNpU33ArQeB6LZ0Y4uWcYyOMAu+/Olf4lGKJS2b8gNKCVF1BtKG32UD6xs8hanPhefONzQKyzsJHNujQ89Ls55/UlbmkT69mvnQTIquv+Md7xgS7BJ43vm4fRh77rnnIG2IVloK5XuxfP3rX/dBlOdeiZMrlvSVrIMOOqgUkhKU/s+bjSp+b5qsRtzP4oitLDkkKPU5T2++Kc17vkzIp8nPnKkTIessrf2Xk7LI5128tbZXHTA1jNaZevrTn176518/CCxCToiE6t0LXvCCqg6pnvpOiW885a/JaebJ6qHviDb5t+uylvTKV80cNzkptiwO1XM5bwWDYmmxiqV8UuLVr351U9ENKLtGNNyAQCcIRLc5bRVLWlLk92rL5UiEYsn3p9RP1TIV9TE1EJUlrrUrmuSQlcrBBx+8YWCs9sX3/yT/IpzvZ4+yWFJ/2vfX1TbLpY2/q/TrfpMFjcK2fIq3nPKvPPk0qP32+fRf/Izqc0tZZGnRUXGmjY0HafPisq3w+dT9umWIXnHjw1IfQn3t9BGQofGDwsz72SWEhn++XmhiV6s63ve+95XjknxVhO/7W3BR6fNW48qn+miaoJdiTnmsm3T2fThLT9PRh6/3QvXHxg2Kz6+MsDDGKZbySX718TSe0xgy3ytMY7S6LRY09lJefdlqTJU+GlKO7VTO/p7O6xRLs4wxLb91R983rlMsqa7l6Zdc0bgbt9oEotvSXimWvNJHQjc3o9VmrV4Bopfkxz/+8VCN8A2NwvBOpo724ksQ5Xu8aBbbCyj5l0LGO2mz7eWUX6+Y8nFbPOnrGf7x0tTSC0nfSJpH3+nIFUvmJz8qHV6g54PuE044YSjvdZsWpy97VH4kLL3zaVLexFadntxJ6FvelZ6cnxhLIZdvvJuHw+9uEYgWTD53UgKlL3oMTj755A1myt5aSc9oGavVL3UA6man5M93ovS+NjnVT723mhXWu6p6beFLgarrdc5bROkZ2wgRxdIwrXnWGw0ApcjWAMXLdpWfOtpNMoayGy4jfkGgiwSiZUcbxZIs2vPlaXk/NEKx5Ptqavdyp2Uy2vYgd77vWKfcyP1P89srdUYpll772tdWbaVkrl9G5CdQTeGUp+UlL3lJ9Xzez/UbDe+///75o9XviD63lAi+3degPLemV3/Zl5nqQO58n0M8FKb2Z/Uut4Yeta2Hf07n6QvXA01SS5mU93vUj/GKDS3ny11E+nJWymOumNBYJLccm1axlL7eWGZDk9++X5Yrfvy4LWeTb8YvhVzuR4pFG9cpHqU/d37sKT9176es1n04uWJp1jFmnib/e5xiSX6lcDSO/igDgaZlhj4OzvtJILot7Y1iSdpgX9HzAaUVpxov/+Lma5V9QyOhZ05ra3346ZPldqs6Kk7zo8YlFz7m0c92+4bBx61w6gSPwvBrXc3Sx8LW0Stx8gbX+/PnvtOkzkc+qPINvYRonfPWRvkaXJ8m5U1mlXVOjZ4xbDLJrXuOa90mEC2YLLfqVFt98UfVvzqT5HzWRbNOufOdEAuz6V3WTKj58UfNYvmOso9DHSf/Pvm9LVAseVLztVjyHX1fdlKK5wptSxVlZyQ4QqDbBKLbHN9H0iBRk236O/7440tLC1lR+76lZErdJrcRiiU/EM6/ejqqVJatWJL8VBvn95ERJynjvJMMNpms5W11zucln+SdVrE0TZ9bKyIsrTpqLFLnvCWW/OUDca+40aRU3eStwvUrB5TPKKdVAZYPtY25i0ifHyMpLj/+yeOztOg4rWJJqzPMeass28PW7vn3Ke/reUWx+m1NfQNZlVmaJQe8NZnqp93TUWO4Juc/4JIrljy/acaYTXHqehvFkvxpry2vSPX5UprqrN30HK6/BKLb0t4oljRAtAouoZgLB1+kMk02v2ZCa/e9cscUSxdddFHlX89p4FnntG+ShVtnbmnPeK2vNnk05+OWYGpyXsmlNeq580qcNoql3LQyn2XSl0YsX3UNjo9fgkV+Jai982myZT/+vp3nCkLtEdBkCm3PcOw+gWjBZDmWqbnVTX9U50sm0XVOgwHvV++tBgeaQfVLGLyfps5EbgZtz2iQIblR57Ss1fzl+2+gWBomNq96o1jqFEuSu5ptzGecLVWUnZHgCIFuE4iWHV6xZPJ71FGyXRYGuYtQLB144IFVG6ItDOqsv/N49dsrYxZhsSR5KiWJ/nRex0t9xtyC5Prrrx/yq9/eaWLXwlJbn7tpFEvT9rm9JUquIMvT5a2C8j0eveKmzmLIwpLFjOW9aa9Y89v2KIVfvodO/mxE+vym1eI2ylkedZxWsaSJP3N+HKMw/bYqoxRLvt5KidjkNH7zfvUVP3O+zyk/Tf1J+R+lWJp1jGnpqTu2VSzpWU2aSjnXpGBSHjzfuvi41h8C0W1pbxRLWutpgmiccJeW3Pya8siK2Ct3dE8DDDWK5r9p9kTPy8zU/EkjrTXDdX9avmb+tHbXnI97VCPnFUG5ZZDC8kqccYolrb/3+fPpsXR5Cw75rcuTXfNm0GqszE2SJj8jI06KUwqmpsGexcGxuwSiBZPl9MorrxwcffTR5ZcC1ejmDZ06YXkjLqXzuE0+pbCysHIZYXHrqHdRm2hK4ZDXW9XdfEbR7wuhzow2YfUOxZKnMV+LJW2AqVlGLfv1gz2Vm8omn1Gm7IbLhl8Q6DKB6DanrWJJltb58jfPycuaaTfv9n1Y60uq/dPXxEa5RSuWLG11R7Wr+mpXk2Wv38Q7349Ue/FYmH5y1vIerVga1ef2/f5Rigelzff98yV6bRU32rvJ8q4vJE/jtAWIVgdo3yVvPW3h6pivWohIn6/7msgb5XxaIhRLiksWTBaun9TzYyBvlKD+mfnXMV+2l6df4zHzL2WSOb9sc9zHYEYplnxdm2aMaempO06iWLLnNcbT++fTZfnXNY1pcf0nEN2W9kax1PR58boilYmpVX4dvUWMV+6o4csHi1L4fPe7360Ldkhb7cMfde5NNX3coxRLfmZhVsWSn/mSIPDmm5ZJ/6WkUXnJ7/n9qyZRLGn2Sl/Fy8PTby39azI1tvRy7B6BaMHUlEN1Ur3psurMSSedVOtdln+aQTQFkjrd2idMSwukjLL6p45XWyfZYlZ79rzNJqsR9lYySpdkif+T6bM9J8s+uycF8Dq6RdUbsdWgzM9cqj7YTDplt461jzz3mUC07PCKJQ0UtdRaf5rc8AobbyVRx88PrqdVLClcKZes7bI2Q0e1V/mEhqXDp3MRFktqX6Xw0p/66FLia/sJTVaabLW05Ue/dOxBD3rQ0G2vDMknZ+QxWrE0qs+tvrrxP//884fSmf/QHjrmV/0E79oqbvxWGHV7rPow83PtMSlrakvDqOO0iqVR6fPta5NFuaXZpy1KsaTJaV9etjrD1yevWMr3tMonKS2tdvTKUO3baM4v/bR9n+xefhylWPJp93xGnfsxZh6X/z2NYsmeFxe9056j0sQHaIxQv4/RbWlvFEsyHbWXa9xnODVYM786enNlr9zxfvy5Xvw65196CVA14uP+ZIljzsetsJrcqEZOz7RV4px++ulDHOq+MKfwZPXk8z8uT3bfdxzapknxmdMskTcztjSoM8U6XqPUj2O0YBqXa82E+voyzn8+a+o3+a5T3o4KTx0T/yEBa1x9Z9fS1vb49re/fVSUK3tv0fVGSy5859dmHSm7la1iZGxFCUTLDq9Y8v024fNW3ZLp87ZYsiKTUuXNb37zkMyyNkWTc7lyQH0zu78IxZIN3C29kx69JYQUeHJKt+WhaTmVl9e5ZVAZyL/9i+hz+37/uC/r+XTl23DMW7Gk/aN8WsVQYxlNcCndqivGVce87kSkz7etGseMcj4tUYolxefHM9a381/E9ooljYl8OkalV/f8l/f8UkevWJLibZRrq1iaZow5Kt5ZFEsWruqM7/uqvo1TxtmzHLtLILot7Y1iyX+RbJyG1m9SlytwfENjAkVmkldcccXQ7FDdHkpeWzuugamrQj7uPF3ef4RiSYLaz3ZpSUiT8xvGTbuh9jSKJUvPd77znaHPe1u5eMWV+eXYTQLRgmlcLrW+2+qJjvbVtXHP2X2/Jl6frJ3U+Q09bV8yLRf1aZrkHMXSpCUwvX9v8WbWB5Td9Dx5EgLLIBDd5oxSLCl/fnNgG7DW5dtbLGnyrM7Jcty3D3V+/DVZ3cva1Yet57Vsyru+KZb8Jt62dMpPGtV9EU/59QqceSuWfL//ox/9qMe94Vz70li5yorLuwjFjQ/Pn2vCxPf399tvv1rLf0ubjvNQLMnyzOJoKjtLt/nTMVKxpHfFW47rY0R6Xy0+r1i69tprq+u671dhWDr90csA/2Vs9SEtfOtT+Of8+SjFkq9r04wxfTz5ud+7d5T8yp/Lf+eGG/NSYOfx8nt+BKLb0t4olnxjo31+RjnvV5pq77xyR4JACh77ZLjfKFhCOjfB9QJhmoGgj3veiiW/iZ5mTvTp7SbnP7epdPmlg03P5NdnUSxZWBJQfsZjnCmtPcdx+QSiBVObHKmuWmM+aga5Liy/BHbczFrd837Df3uXZYatDu+oP79/gt5L87uujfMy6s2xxx5b1RubEafs6mo51yDQXQLRsmOcYim3blB/sc75QWz+1SfzP6liyZ7ToFgfH7B2L+/fesWS9Wvt2aij32dzVoslv4m3TdB4frnyw/LgFUuj9kWN6HNrstV4q587ynm/+ZKoeSqW1Fe2NKp86ra8ULrNj44524j0ecsdb9FTx8ynJVKxpLi0sbaFL2Wst7LxiiW/JYL8i0GT00S373P68YmfmMot1fLw/Dgylw/+3jRjzDwu/9srcWXtOIvzHEZ9+W+WOHh2cQSi29LeKJa+9a1vVYJCAkCfRKxz2ivDa+5zSx3f0Cics88+eygYr5GW2aN32gzPhJXiyL9k4f3Wnfu4bTBa529WiyXNqlg6dbz88svroqmuSbj6ze1kej2pi1AsKU7fadI5rh8EIgWTlnDKbHeUy/dRm2Tjd78xqt7jXOkqU2otlRvl/F4KmmVq69i8e5hUZL2R7Jfi7oYbbhiOJPvl90nQ5u9tHWXXlhT+IDB/ApGyQ6kdp1iSH2/tqEmwfIm1/PhJvaZtG/J9LfVcW6c4ff/OKwj80jIt3xvn/CB7nF+7H6lYUpheHvu2+SlPeYpFueHo9yocNdEc0ef2/X5xb+pr5IpH7SHlXYTixofnz/2+R3Uf6JFfTRg31Rvdj0ifnzhT36pp1YHaaJ+WaMWS8uOVfD6uvM77PamkhGpyfkJK4zefN7/5u+JSX6HOaazlrbpyxZKva5OOMaVM1J5cstCqc/49k/FF7tSn1btke4bm9+13brGkFSe4fhOIbkt7o1hSsXkrA83MSNnknQSnNn/2QiTfCNo3NHpxc+fXdyscr43VBrteUytT17qOhcKUFVB+z8c9L8XSD3/4w6E0Shi2cb5hUr5zhZuFIQZ11iFtFUtaBy7BKj51zm+MPO4LHHXPc205BKIEk94/e8f0ZZi8E6DcSYHgZzVtptNyrvdO76Z/d+2ewtd7bzJCM03e6Utiuqc05I2++bv66quHwnjOc55jt8YeUU4MI4qqNwrV9j9QfWjqHPl9BlTOTVYHw6n8/S/Kro4K1yCwHAKRskM5aKNY0lIZa58kP/wGvkbBfyFKkw65BbjfA8baIXtWR010yHJBXwTz+4OaH+0/ac+pH+ydH0znFjPen+SjDXC1bGqSj0dEK5a0Ibblx09weosQn3ada5mQPaOj+tZ1LqLPnff7VTZ53171wu/jIwVf7iIUN3mY9ttbo9RZcGkT+nwZpVdIKpyI9OVbFEgRm0/cadzml3yp/OahWPL7aPq6kvcp/US+/OXLS8VG9c2/9/mElBRGXqkr1rkC0vqlPi15HzOva23HmIrL3kulMx9f5Sxk0eWdV+gqfccff3zt3kl6n/wYra6e+3A57weB6La0V4olCUf/cmuA+IY3vKEcAGqA6Aebejn8GlgrXt/Q1CmW5E8mnPbya5Cigaw5P1MiP2oItV+LNNaaoZDW16yebM24PevjVj6anBd0ylPuRilxvMmn0qe1vxqg1/1p1syctN2+YdSzahQ06yWhKisSdaKUbv3l1lqj0mRxSOnlB/VSAmpgp8G+4sm/FJcLZguHY/cIRAmmvNOtjrO+bCjTd33VS3XWdz5VT71yQJ0G37nWene9s1JoygLOyw81/nknw38kQGHLjwYK6nTJSlKdfR+GzrU/W1uHcmKYVFS9UafNL6NV2e27774DKcylJFcd8DN2ul836BtO3fAvym6YB78gsEwCUbLD8tBGsSS/skKS/LA/Wc965/tv8qOBmD7ZrQ3B8z6qheGfVxtj19X/lHWB+peyiFF/1y93O/jgg/2jZT/PnlXbpHZT/bcTTzyxPJpn7Utk/nT80Ic+ZLfGHm0Aq+dmXQpnkflBucJV2puWc+mZ3OJFyhRxVzvvrTGi+tx+H1KlTwze9a53lf3Wo48+ekOfJB/YK80RihuFU+dyi5lnPOMZAynm1GfJ+z1Kv/7moVhS2vxYQPFoPKT6pz1+VF99/8nSMg/FktLi32mLK+/zyZ8URXZfR/UDNcmovXY17vH31P+ss4r25Sv/ek9VF3VdlkR6l304Os8VS0rLNGNMKaD9OyTGesdlWHDEEUcMMZe/vOxVT/Jy0W8pUbXqR3X9kEMO2eBH40Jc/wlEt6W9Uiyp+M4666wNlTt/WfW7abbGNzRNiiUNUvzgNZ+V0udU6+LMr2mg452PWy9tk/Mdk0kUSxdffHGrdPl0+jTIxNF3Gry//Dy39PCNiZQDdU6KpVzxlYdrv6Wsw/WHQKRg0lLOvJGzepEf8w0iNTvm1/nn/u133YySaOt5vxGj+a87SkZor6VJHMqJYVqR9UaKaL9HQV2Z2TV1dvM99IZTtvEXZbeRCVcgsCwCkbJDefCD0PyrcD6PGsR55Y4GobkzayCTN/lRAz5ZCtl1/7yUQX4CzvzkR/XV1KfyLrcY8c/4TYVzJbsm+do630eMUixpwsinVZNJ45z/oI9/VufGJarPrbTkCsU8Tvtd9+EfPe8VD3V1Rn7k/OoBKSTaOFnM+PpkafFHlZtXPuTKhaj0SUnUpEC19Ghs5K2W5qVYUvnn71KdYknGA1JOWvqajurzaZzV5HIFVV04nk2dYklhTzPGzK3x6+JWv7ppIvQHP/jB2DpkYSocKTNxq0Egui3tnGKpjZWKLJf8Onar7DpKeDa9rKoCEqbmX0KiyeWfl73mmmuGvOrLc5oRt7D8US+dBqd5XnzcTUotRTJOsaQ11BafPiVqTkvU7Hrboz1rR60blnVTLowtPAlFKfdy15Sm3J9+23I4C9MfpdVXA4frF4FowXRl+vTwqIZe9VAD/Santeq+8291TO+mOmu5KXsejuqo7wDY8zrq3VDaxn1BJA9Tv1FODFOJrjfqYGuQUjc7qLJTnZAFWr48ZThV9b8ou3ouXIXAMghEyw4/oTBKsaS85lYF+fYAUlrXDfRlFW79U1mVSCapTcqdLMI1WZdbYZp/9X+b2jC1XQpTfv3fPvvsU0Uj6yevIPL3Kk8NJ15pFqVY8pt4K82yTh7n1J9u6iNouaBcVJ/b0qJ0NfULNKkhrk1Oe99YeYzaP2oaxZLi1HhD4VocdtQ456ijjirbPFmd2HWx8S4yfWpfNblvcdlR9VJpVFplSWPXJ1Esafxhz3llqc+LP5e1lPnXsU6xZP41oV3Xb9Rziisf09lz/tikGJbloiYiZR1k6TFZ4J+382nGmBqnNr0Tylfd2M3i01H9JxkN5KtXLL06akuaeX0YwKeF88URiG5Lt1DSU2VpdJtvvKm8t8Om7Rr9LOtGEkZF0h4XydKmuNWtblUkAVrsuuuuC01O0vIWaf1qkWaKiv/wH/5Dcde73rXYaaedFpqGeUSWLDeKJASLtDFbkUySi912261ku+2224ZFpziSgCrLUMzSDEaxww47hIVPQIsjMC85kdacF5deemmh90xO77f+ttpqq1aZS5+TLf71X/+1SJ3w4o//+I+L1LgWk9Th1FAXSclVpBnQYvvtty9233334j/9p//UKm48jScwr3qjmNNHC4q0H1aRzNZLubLHHnsUO+644/hE4QMCEOg8gXnKjqjMpz0+y35UsnIq/vzP/3wq+aM27IILLiiS8qW4+93vXvZzt9hii5FJVJ8tKTnK/tUtb3nL8hm1fflz6auYRVryUySLpSIt6RoZ5jxvpgF7cetb37qMIk3clP3pLbfcslWU6nunpWelnN95551LRsrzPF1a/lj2+1U2t73tbct+xX/8j/9xnlG2DlttXtpDq0iKo+LP/uzPCjFZllMfP1nSlO/AHe94x0Jt8M1udrNlJadVvBoSa1yZDBhKhrvsskuRJqomHpto7KT3drvttivue9/7Fps2bWoVf+5pmjGm3iflQfJH/dbb3/72xZ/8yZ8Ubd8ppUHPpv2wyr635Ibqt8a39p7m6eR3fwlEt6W9Viz1txhJOQRWi0C0YFotOuSmiQD1pokM1yEAgVEEkB2j6Iy/pwGrTYImq47if/7P/zn+oTn5OOyww4q05UQZetrjtEhWpXOKiWAhAAEIQMATiG5LUSx5upxDAAJTEYgWTFMlgod6R4B607siI8EQ6AQBZMf0xZCW7hWPfvSjS4umtNyutL65+c1vPn2AMzwpyxBZs5iTdbCs/3EQgAAEIDB/AtFtKYql+ZcZMUBg5QlEC6aVB0YGSwLUGyoCBCAwDQFkxzTUiiJ9JbN44AMfWD2cPjVeLtOrLizgRMu0tERHy5Wf8IQnFGk/mTLWtI9Nkb5CtYAUEAUEIAABCIhAdFuKYol6BQEIzEwgWjDNnCAC6AUB6k0violEQqBzBJAd0xWJ9s7UfivakzRt1LtwpVL6Ale570zayLncF8lykb5YVqSNjYs/+IM/sEscIQABCEBgzgSi21IUS3MuMIKHwDoQiBZM68CMPMbPlMAUAhBYDwK0OdOX82mnnVZaLS1j+ZsspP7iL/5iKPHaHDl9sar4oz/6o6Hr/IAABCAAgfkSiG5LUSzNt7wIHQJrQSBaMK0FNDIZboILUghAYD0I0Ob0s5z1FeXjjjuu/OrUn/7pnxbpM+zFPe95z85/LayftEk1BCAAgdEEottSFEujeXMXAhBoQSBaMLWIEi8rQIB6swKFSBYgsAQCyI4lQCdKCEAAAhBYKQLRbSmKpZWqHmQGAsshEC2YlpMLYl00AerNookTHwRWgwCyYzXKkVxAAAIQgMDyCES3pSiWlleWxAyBlSEQLZhWBgwZGUmAejMSDzchAIEGAsiOBjBchgAEIAABCLQkEN2WolhqCR5vEIBAM4FowdQcE3dWiQD1ZpVKk7xAYHEEkB2LY01MEIAABCCwmgSi21IUS6tZT8gVBBZKIFowLTTxRLY0AtSbpaEnYgj0mgCyo9fFR+IhAAEIQKADBKLbUhRLHShUkgCBvhOIFkx950H62xGg3rTjhC8IQGCYALJjmAe/IAABCEAAApMSiG5LUSxNWgL4hwAENhCIFkwbIuDCShKg3qxksZIpCMydALJj7oiJAAIQgAAEVpxAdFuKYmnFKwzZg8AiCEQLpkWkmTiWT4B6s/wyIAUQ6CMBZEcfS400QwACEIBAlwhEt6UolrpUuqQFAj0lEC2YeoqBZE9IgHozITC8QwACJQFkBxUBAhCAAAQgMBuB6LYUxdJs5cHTEIBAIhAtmIC6HgSoN+tRzuQSAtEEkB3RRAkPAhCAAATWjUB0W4piad1q0P9v7yzgrSjaPz50N4iIIgoiiiImiKjYgYUSdvdrt/5NbH1fA7sLAxtULEpEwg5CxKBDuhv+z2/OffbM2bun9u6Nc89v+HD37O7kd2dmZ5595hmWlwSKgUDUHVMxZJFRlkECrDdl8KEwSySQAwTYd+TAQ2IWSYAESIAEyjSBqN+lFCyV6cfNzJFAbhCIumPKjVIzl0UlwHpTVIIMTwL5SYB9R34+d5aaBEiABEggOgJRv0spWIru2TAmEshbAlF3THkLMs8KznqTZw+cxSWBiAiw74gIJKMhARIgARLIWwJRv0spWMrbqsSCk0B0BKLumKLLGWMqywRYb8ry02HeSKDsEmDfUXafDXNGAiRAAiSQGwSifpdSsJQbz525JIEyTSDqjqlMF5aZi4wA601kKBkRCeQVAfYdefW4WVgSIAESIIFiIBD1u5SCpWJ4SIySBPKNQNQdU77xy9fyst7k65NnuUmgaATYdxSNH0OTAAmQAAmQQNTvUgqWWKdIgASKTCDqjqnIGWIEOUGA9SYnHhMzSQJljgD7jjL3SJghEiABEiCBHCMQ9buUgqUcqwDMLgmURQJRd0xlsYzMU/QEWG+iZ8oYSSAfCLDvyIenzDKSAAmQAAkUJ4Go36UULBXn02LcJJAnBKLumPIEW94Xk/Um76sAAZBAKALsO0JhYyASIAESIAES8AhE/S6lYMlDyx8kQAJhCUTdMYXNB8OcuMoiAABAAElEQVTlFgHWm9x6XswtCZQVAuw7ysqTYD5IgARIgARylUDU71IKlnK1JjDfJFCGCETdMZWhojErxUiA9aYY4TJqEijHBNh3lOOHy6KRAAmQAAmUCIGo36UULJXIY2MiJFC+CUTdMZVvWiydEmC9URI8kgAJZEOAfUc2tOiXBEiABEiABAoTiPpdmrFgqXBWeIUESIAESIAESIAESIAESIAESIAESIAESCAXCdSuVSOSbFOwFAlGRkICJEACJEACJEACJEACJEACJEACJEACuUOgxARLuYOEOSUBEiABEiABEiABEiABEiABEiABEiABEihJAmk1lkoyM0yLBEiABEiABEiABEiABEiABEiABEiABEggdwhQsJQ7z4o5JQESIAESIAESIAESIAESIAESIAESIIEyRYCCpTL1OJgZEiABEiABEiABEiABEiABEiABEiABEsgdAhQs5c6zYk5JgARIgARIgARIgARIgARIgARIgARIoEwRoGCpTD0OZoYESIAESIAESIAESIAESIAESIAESIAEcocABUu586yYUxIgARIgARIgARIgARIgARIgARIgARIoUwQoWCpTj4OZIQESIAESIAESIAESIAESIAESIAESIIHcIUDBUu48K+aUBEiABEiABEiABEiABEiABEiABEiABMoUAQqWytTjYGZIgARIgARIgARIgARIgARIgARIgARIIHcIULCUO8+KOSUBEiABEiABEiABEiABEiABEiABEiCBMkWAgqUy9TiYGRIgARIgARIgARIgARIgARIgARIgARLIHQIULOXOs2JOSYAESIAESIAESIAESIAESIAESIAESKBMEaBgqUw9DmaGBEiABEiABEiABEiABEiABEiABEiABHKHAAVLufOsmFMSIAESIAESIAESIAESIAESIAESIAESKFMEKFgqU4+DmSEBEiABEiABEiABEiABEiABEiABEiCB3CEQmWBp06ZNZvXqtWbN2nVm3fr1ZsOGDWbjxk25Q4I5JYE0BCpWrGAqVapkqlSubKpVrWKqV69qKlSokCZU8d5muytevow9HIGy2FbClYShSIAESIAESIAE8oUAx9X58qTLXznLwti7yIIlCJFWrFhtVq5aXf6eEEtEAmkI1KxR3dSqVd0Km9J4jfQ2212kOBlZCRAorbZSAkVjEiRAAiRAAiRAAjlMgOPqHH54zHpSAiU99i6SYGnpshVm+YpVXmGqVKlsqsr/yvK/YsWKppL8h+QXWh08kkOu1wOpylYTb71o462FZt669V7dr12rhqlbp5Z3Xpw/UrU7tDm0PWlwRhoej+RQKvVg48aNZoP8Xy9tZK38L622UpztkHGTAAmQAAmQAAnkPgGOqzlfKA/zJiwUw4qx0pynhhIsQaq7eMlyb7JQvXo1U0OWBWGZEB0J5AsBNN5Vsvxz9eo1tsgQrNavV7vYtJfY7vKlZpW/cpZ0Wyl/BFkiEiABEiABEiCBKAlwXB0lTcZV1giUxtg7a8ESNDUWLl5q7SdVrlzJ1KpZw+BIRwL5SmD9+g1mxcpVBkesb21Yv66pKjaYonRsd1HSZFylRaAk2kpplY3pkgAJkAAJkAAJ5AYBjqtz4zkxl0UnUJJj76wES5DsLli4xAqVMHGuU7tmQWlhwNg11M1z8si/+rBs+Uq7RA7CpUYN60WmuZS83RW9s2EMJFAaBIqrrZRGWZgmCZAACZAACZBA7hDguDp3nhVzGh2Bkhh7ZyVYmrdgsV3+BqESbMqI8Q75DwECj+TAeoB2sHxFTLiEZXFNGtWPpDfwtzvPVpWkt0n+VfAf1aaZ/7qe837M5pvy8B/Jp0T4wD4fvhhG2VYiaXCMhARIgARIgARIoNwSKDSu1nEgx38lMv4rNG8h/9h8rgTqnwqXimvsnbFgSQ2bVRY7SvXEjgxs4ko9sPIU4cBz8mB9KGgPS5ctt8viojDo7W93lOPG+x3tf3iM9cO5yGGJ2OqDkcEo2opQoCMBEiABEiABEiCBpAQ4rhY01AfJa32QJRHOU/0NLSPBElQG581fbMNi56sgm0oqV/EnoOe8H2vHysN/JJ/ywwdrWfHigmvSuH7oJXEJ7a62tLsqYstMKwqPfDGWg4HB+nXSVpYXva34+1OekwAJkAAJkAAJkIBLgONqocH5Q97PH/BBN4p5qtu29HdGgiXsALdy1WpTrVpVMdZdXcPySAIkkITAipWrzZo1a03NGtXtTnFJvKW8zHaXEg9vlhMCUbSVcoKCxSABEiABEiABEigmAhxXFxNYRptzBIpr7J1WsLRJ1rzNnrvAAoO2UqVKFeV3sk/lypX3g0XC5BMjUP7rB7Z4VGlws6aNDOwiZeMS211taXdueOWnMfI81t7II0Ygt+rDhg2bpK0st1kP01b0qfNIAiRAAiRAAiRAAkEEEsfV/vmshsit8VN8Ps78xwjw+WU6H9qwYWOR5qla4/zHtIKlVavWmEVLltnlPLW9XeAQjerSaZQ8jzVw8ogRYH1YvnyVgdptg3p1TI0a1bRiZHQs3O6UZ9xYd/yFoh1p7KhG8Xg/kYvyIJ+Y0Xfl4T+WBp/lsqNi2LaSUYOiJxIgARIgARIggbwlkGpcreOg0hj/xOfTHN+Tf8mOz4syT03WkaQVLKnaYI3q1Uy16lXd+q/tkMfg+Su55DmXNWvXGrzIwiyHc9tddVmCGhcrsVrlebVKqi+ay1xWy7LRVavDtZVkLzdeJwESIAESIAESIAEQ4Lia84dcHicXxzwQJluiHnunFSzplozQVqpSuVLyCa6U2O4OJ4038MHxPvlIxUjaMMph/dggRryxrWOYLR0LtbsCPgoQuzLqbozukfdjHRD55Fb9WCdtBVpLYdoKBox0JEACJEACJEACJJCMQLJxtY4XOX4WcpincX6RN/MrmG0JO09N1s7SCpbm/LvAbNy4ydStW8tUlBms1DepdzFVrbgAieebhAx5qOCI9QH1Ab3zkqUrTMWKFczmmzVK1gYDr2u7qyftLlv7TIER8iIJlGECsH0Qtq2U4WIxayRAAiRAAiRAAmWAAMfVZeAhMAtlikBxjL3TCpZmzZlvIdSvV1uOcdGJihDihGIip/h1PVcfeu4/8n6MgJ+LnpNPLvNZLPbJ4LbYvHGsGBn+Td/utH7wGNwvkUuucYGaOly2bSXDJkVvJEACJEACJEACeUqA42qOi3NtXFwS+Q07T03WjWQsWKpXF4IlOhIggWwILFkabrKsL8B4u9MXgqbO81iHSx4xArlfH6CxBEfBUuyJ8i8JkAAJkAAJkEA0BOLj6loSIRQl1OX++Inl4fPU2hxX8NErqet32Hmqxu4/ZidYClJY0vzyWBKCxXh9Ie+c4L0kpBZG/AVIga6/0+J5+SQQ9cutfFJiqUiABEiABEiABLIlwHF1tsToPx8IRD32zliwVLeOSHgpWKJghwKtrNrB0pBaGPoCRLtzjXMnM6rH6/JYpH8ih9zlsHQZNZbyYRDDMpIACZAACZBASRPguDp3x4cc3xff/Cbq1QJZCpYcyZLO4KzRajHW7Jzbmbdzbo19O+e878yAi8AP29nPmjlD5H0VTL369U2Dhg2lny6Q/Di80/FfumSpWbAAtrQqmKabNzU1a4oQMYvw6eLP5/tLi7wUTlV2gyR6+lp22qU+f3uM9n7tWjVthMtXrJIj8qMuln66+7bdF2P+ooz/n3/+tm2geo0aplmzLaSg2fNfs2aNtM+ZEraCqd9A2mcDp30G8Isy/0HPJ9P4Fy5cZJYsXmQfbqPGjWXjhnqhym8jsH8yq59Rv9zi6fMXCZAACZAACZBAPhNQwRI2xYm7zMYnmY6f4v40BcYfZvys9OI8/RzVh/+6nmd+f+XKFWbunLkSYJOpWau2adp0Mw0sR43Pf1Qv8esLFy6QsfMSG09s7Fw3q/CJnArHX1z3S01jqQ40J7ScFlsMt17SaRfPYwRKgsf4cePM3p32sgnuuddeZujQ4YrfmwbrhVT5efbZZ8zVV11pvV5/w43m5ptvySo8AqaKP5/vh9XC0Bdg3ToQ5sQ7rjhpJV5yxzq1Yy9jbE0ZlI9098tKOTLJR53aMSEa6u6cuf+aWrVSCfiCn8+4ceMD2mfJPa9Myhn0HG+//Xbzv/8+iKKbvn0fM2edfY78Kv58L12GekUbSxYC/5AACZAACZAACURGoCyOq8OO0xgueNwdhsuXX35hju9+nK1nPXr0NC+9/LL8zj7+22+/VcbO/7Xx9O37uIydzwoVT0mMt93yhZ2n2oIG/MlOYykgAl5KTWD9+vXm448/iml0idf27dubVq1apw6U4d1xjmCpQ4cO5uuRozIMmejNFSxdedXVpk+fOxM98Cw0gbANNv4CdL+shM5GJAFV2BITLBWOMt39wiGKdmX48GFm0aKYZs0WW2xhOnbsVLQIndBaFlyaMXO2qVcPWjvZuajaZ3apFt337bff5giW8HI8u+iRZhBD2LaSQdT0QgIkQAIkQAIkkMcESnpcPWfOHDN6dPC8rFKlSqb5Fs3NNttuaxra1SZ5/GBKuehffvmlCJaOtbmICZZeCZWj0ho7h8qsEyjqsXfGgiV3ouXkhz/TEPj6669NtyMP93yh0r740sveeVF+YOLaee+ONopdIFj6+ptQ0UGwdM3VV9mwV155lbmDgqVQHIMCqRAm252u9AVYltqdtbMmhdROyF/edPf9/otyvmLFctNMlm2qa9KkiZn0x5+mcuXKeqlIRy0LIpk+Y1ZowVIU7bNIBQkR+A4Ilv4X++ryKDSWzioZwVLYthKiiAxCAiRAAiRAAiSQRwRKelw9dMgQc9xxx6QlXLt2bXPIIYea+x940Gy++eZp/eeKh7Fjx5h169aZJk02M9tvv32obP/+++9m/vx5pkqVKpF+PHYzMxiCpePjGkth5+ilNXZ2yxLmd9Rj7ywFSwWqYWpFS1XFeC6aa85SEYfHNddcZZ595umEZz0bS2tgx6iI/LDUpvPesaVwMcESJOOSDyf9TM6ffe5Zc03BUjgrWLrzrqTlySS+bNMvz/6XLQ9nkNh9AVaQ5wkbZvpY9TxefUrmvgpb0AnFbKppdYuln+5+lPl///33zBmnn5bQrj797DOzzz77Cie1+ZaYv2zSdwV60FiqW7du1vzHjRfBb6e44HfkyG9sNxFF/oL4Z1O+VOHvuCO+FA6CpbNlKVxJ1L+oX24JlYMnJEACJEACJEACeUvAHVeXxPh56ODMBEv6QCBgevHFl83hRxzhTA9LZnwf1fjRHd/WLTCfcfIpp5hnnnk21Pi3d++e5tNBg0Q41cT89feUSMb3/vHvl1/IUji/YMkTd2TO//bbCn+UVR7FwTc23c88fzHTyYXnR6oskK0ChNZb/zFjwVJtx+aIPxKeBxPAMritt2puli9fnuDh1df6mWOP655wLcwJbCy5GhEjQmosPedoLF1BjaUwjyJpmOXWHlH2dmP0BVi7Vg2vI413UNqRlOyxXt3atpzohGKChsT0092PMv+nnnqyGThgQAL38y+40Dz44H8j4aVCMiQAjaWYYCmxvOnKM348BL8FgqVdsFQVgiUICLOLp6T994FgSTWWHu1rbSyVRL5jRuGzbysJlYAnJEACJEACJEACJOAjUNLj6iFDBpvux8WWWO2///6m72OP2/Hfxo2bzLJly6wmzrfffmuel4/78+bN83I7eMhQs9deHXNivJhsfLp61Soxgt3Elunkk08xT1vBUvbj38MOPcSMGTPaCpb+/OufYhk/w8bSCcfH5uRYVfTCiy+FSgdL4R7SsbN8lD3zzLNCxVMS4233uUX9UTcrwVKBAE8FvTxKk3H0lArxGD5smDn2mKNsw8LysttuvcX+7t79ePPyq68V8p8tX79gCUvhUuUnWfx+wRJsLIWJJ1n8+Xw9bIP1XoAi0HX52QqEeqcCCvldUvfriQF/uATBkpN+uvvIp7qi5H/p0qVmy+bNbFSnn36GGTVqlPnzz8kGX3umTZ9pl8MVJX5EXEiwJDaWss1/gmDJt1S1qPkrzvBB6rzaH0Tx/BBHUP7DCmE1TzySAAmQAAmQAAmQQBABb1ytH2zFU3GOn4fIUrjuBUvhunU7yrz5Vn+bLf/4Z4mMaQ856ACDZV9wJ/ToYV566ZVC8zB7U/74w5fE+Czb8S/sS23fJmZPGBpLTz/9rGY/q/zvsvNOZsqUfzyNJUQSdflhY+kER2PJEyxJWtnUD//Y+UwxI5FNeAUUdfnS1Y+w81TNr/+YsWCpFhqihNYM8phY4YJ4XHXlFebFF563zH+fNNn07tXT/PLLz/Z8OpbX1KmTEc+NGzbIhHmamTFtusEWhm3atDGVxJbM7xMnmk4d97Tx7SIaESO+HpkyvjWrV5t//vnH/Dt3rmm57TamxVYtpBAVzMsvvmCuuOJyG4/VWLqjT8p40tUDxD958mTToH5902q77Uz1atUKxbdK8jJ92jQza9YsU79+PdNi65amYYMGhfwFcU2Xflm6H1YLw30B2gdTBv6oRpJuTenPUrr7fv9hz997911ZnnWmDf7KK6+Zn37+yTzy8EP2fODAj83+Xbva35n8mT17tpk6daoIoyqZdu3amRo1YrvBNd9ic0/TEMKqVMa7N0j7nC7tc7rTPmHraWJA+8wkT0F+VsnXn+nTp5s5kt+msga/VatWGdmTmittcdq0qWbN6jVmi+bNTYsWLdKGw1I476uLaCzh5VgSLmxbKYm8MQ0SIAESIAESIIHcJVDS4+qhQyFYimksQbD0xptvJYXn+m3durX54cfYXDEowKpVK83ff/9j5ouW0zYyl9tK5nLQQEnnsIpm9uxZMiacLjsd17R2j3TMm0nYaTJnmyHj0MayLG07mdvB7lEyN2HCBG9XZGgsPfX0M8m8pryuY3EshYPGUqYOY/s/ZR7asFEjA57VZB6azA0eDMFSTGOpZ89e5vkXXvS8/v3332bWzJmmjdiI2myzzbzrQT+yHTvjeWTDNCjNKK5FPfbOWLCEJTlxp1N3vRLtuU5QNfbiOsYnyNHmHyKntWvXmG1atrCT03Y77SRaFWPM/ffda+65525bHKyjhVQ65oLTh9Ty9df7mQcfeMBKbF0OJ554kjnv/PPNQQceYC+rYCkovhUrVphHH33EPPH4Y95kGf6g4XHFFVfKRLWZufSSi23QmGAJu8JBpKMuOH8jvvrKnHRSb+vp/Q8GGOxMd91115qXX4o3yv/85xJzz733i59YfPPnzzd9JS8viMDNv0TwsMMON1dfc22BgbZ4+nPmzDW777aLTadGjRpm/IRJ0klU1czJMZa/E3v3EgPmI+z1J598WpYbxoyx6X3cgMrjmWecbv3ceNP/mUsuuVR+B5fPerJ/wt8P22BL+gUYL2vyX9ou4+0m0W+6+4m+w5+dfNKJ5pNPPrYRYM01BKzdusmadHFnn3OuefjhR+zvVH+g5XT33XeakWJc33WdO3eW5XT/Mz179bAvE9xLJlgK3z7dFFP/njp1iunb91FRlX6ukEcMVO65917TsuU2he599tmn5uGH/icqxGMS7uHlfOGFF5n/XHKJJ0RL8CAn2b4c/eHDnodtK2HTYzgSIAESIAESIIH8IFDS42pXWJROsISPkzu129F7EEHj7AULFtiPfo/LXM51mMtBeNPnzjsDx3Vr1641L7/8koFGjX/ehfnpdddeb+dLQcIpCD8wX3vwgfsTlush/YMOOtg8Jsv7mm+5pZedB+6/z7z33rtmxowZCWkhj+p2kjQ//2KwnhY6fv75Z+buu+4y88RoN4Q66tw4cO3nX36zmkz4vXHjRvPRwIF2zvzNNyMT0sb9o48+xjz+xJOiyFAfpwnOFSydcsqp5r77HzD3ylz9nXfeTigzxs/YOR3z2iCX6dg5W6ZBaUV5Leqxd8aCpVo1HcGSzrP9Ry2p/7qeZ3i/fr14BdQgxXFcvFRsH0F+kWX+PP8aTo+aSTnHbgC6feENN95kbrjhJvOzaFZ03X9f6+tIlV4nSX/tmrUi9LnMvCGCpUwcBEtfjRgZ86r5keOcWbNN795xTal0cV1xxVXm9j59ErlofBq44HzwkC9NjwIpb79+b5jPpDPo99qr6ssen33uBdOrtwifpJy//vqLgfBn1qx4R5HgueDk3vvuNxdd9J/4c5H0OrTf2ROuff7lENNR1h+7z2H5suWyPCq+m8LJ0jk8+ZQYTffxvfnmm8zjj/W1Kb3yqti6OlaET0nK510vwv0VK1bZtLI1iqYvwFo1q0v4ZBkoAFZC9+vXq2MTXLwENsMAVl0sf+nuq++ilGfx4sWm5dZb2ag6deokde5LEeKuM9tuExPi4sXzz5Tp8iWlcjw5H58XXnjBXH3VFc791D+nToPGUl3HU0xwHGufrzvXk/+MtU8VYmX2PD8TY+TnnnNWoRekP5VBgz43nffpbC/jhXWrLLl98onH/d4Sztu128n0f/tts+WWYJmYnz533GEeeui/1v8j0Fg6ExpLhZ93PMLE8P74Mj1fsXK1jTLbthLPB3+RAAmQAAmQAAmQQGECieNqvR/N+EVjc8c7ECwd313mGOKO7NbNvPEGNJaC08Nqlv33i80Pt9iiuZkwMbYsTv1PFA2gE044PuX8CeO69977wGzeLD4XQvjzzj3bCklsRpL8CcofxttnnXmGGTZsaJJQMQWFd955z+wtH2XhLrzgfPPWW28m9Y8b0CD6/oefCvwU5vF6v9dEeHNRyjhwEztBN226uRk96htz5ZWXe0sJkwUE11Gjx9pVMnE/FczgwV+YHsIWDsIjONfmlb3g/Dn1tNPkA/ajBRpb8fzDPulD8kEXLjZ2Pkt+xe/j+uLFS4Tp6VkwTQzvjy+K8xUrw81TUZ4gl51gScvnHjVWdwLP+6IB9B/z2quvWDrDvhphdu2wm9m4aaPZfrtWXoWd6i6x8fG7WyTPDz4ITZ+YQ4OAgGaHHXaUxjPRwC6SK3m2E9evRbDkxLNh4wbT7YjDErQW4K9Hz56yTK2BGfvtWC+Pmk4hwZLecOLVduIKlqA1gXWwcBCaderYSSTW082ll19u1TT/lZ3w9unc0Ss7BAAXiOZEhw67mpkzZ5i3+/c3P/74g6ZmXpT1xcefcIJ3ftONN3iT5Vtuvc1cffW1sfZU4APbRfY4IW4QHZ3DH3/+HVcPLcj/Pnt3MuNlty64P0XbpbEsLbQuoHy2nLG7CVy1/JncL7pgSQS6tj1JBqHq6uWz5M89wZEVyBZOP939KPLf/623zAXnn2ufyj333mcuvli+HAiWC88/z3uZvf/hAHPgAQcG8nIFvogE9fA4sXm277772i8s77zdv9DLybZT2RXOzf/dd/aR9vmA1g6TffsszM+N/4fvvxdtxK5e/PgBDcdDDj7UrFq9ymA54MiRX9t0R42RF6XYgEJ4fC265+67vHAHCIdjjj3WLuX77rvvzFNPPuHdw5eqIUOGm+o1RHgp2pGafp8+8aVw9uWIpXDO/eKqjxQseY+GP0iABEiABEiABCIkkCBYKoHxtDvetMoEECwlGc/fe+89dlULigtNoPc++NAb7y9auNDstefu3vwJgplrr7/BtG7V2ppIgDaRzmvsR/Unn/LGc+48DXFfdPF/zGGHHSZCkapm7NgxVgMKc8nnxWB1jxN6evmTEaE5Ucy3QHsIDmPlm2662ey+555m6ZLFIiR73Xzw/vv2XsuWLc13IiiqUrmKaCJ9Zr4aPtyMGT3am9Mhv4fKihR1qvmTbD7zx6RJVsNqgaxw6d8fwriYu9inKXTjjf9n6tStYwZ8+IG3SzTihnYSdkqvVau2+eqr4Qnz3Nj88RqPD57HYFnJooIlTQvl7dGjl9lbPtrOE5MS70tZ3Tnq088+J4oSJ3m8MH7uczsES76Pss7z3iRG208URY8Epv8nTHffQ2zXLjVv9OtnPvhAmW5jvvv+R1OlapViH3+HnacqK/8xY8FSTas54Q/O8yACsGXUutU2VvCDSv67SFUrVqxovd5w/XXmmael0Yt7Ripmr94n2t/unwmym9Q+nTt5l9DJ9H/nXVOpUiXvGuwYXX31lebjjz6y1yAwGj5CNSJi3l6SJWlXFdhOwhU0qKuulgblOEjJL5BJ+aQCo3FYGneb2FjKxA2Rdan+xtjv9TdNt6OOKhT8LFl+9qE0fjgwGSC2cHbYMa72iR0ELr7oQq9RoVH/8tt407BhQxsGDb9nj5igab/99jcDPvrYXtc/t992i3n0kUf01B4hmXbTgBpp621b2ntBvBICR3SyMqQWRsILUPKCTh79k7rSOG/gaSwtC8xPuvtR5L+3LFH7/PPPLQasQYetIbiBHw00p596iv192umny+4bTxTihXa58047ei9n1MNvZIkq1k0rzzVr1tglZPfJslV1U6fNMHUd491on50D2mdlp33CtpG/fX7ltE9NT9Nwz9etW2d2EQ091exDWxg99luzldUuioXYIGq/0A7cY489xDbUTjb/E0Rguk/nvTVKc5kIdW+/vY/tezR+CKOgNahC6RtuuNFAo1LvI3DQVxf3PvwUx3nYtoL80JEACZAACZAACZBAMgI6rsZ8NorxqKaTbDwUrLGUOH6CjU4suYKmj7qHRVP8LNlRTN1FMjd6UwQ5cIcfcYR8eH/Z1CywB4prK8Xm0vFiy0lNH4wZ+51p27Ytbokw6EbvozyESvfKB1k3vzBPAuHLCSf0sP7xB/fffP11+XB7ob2GD6dfDh5smjePLXnT8Dff/H/eCpC+fR83p59xhvWP+xD2qNmRk2BjCStICpyGT3cOm6Jt27ax3jBenyzKAnD+8Bvlw+dJvXuaPfbcS/L8H1OzVq2E5/uw2GDFMkA4jKenyU7PFSFYLHBYCufOZbt02dc899zzptkWW1gfSA/zh7PPPtMM+uQTew3Csm+/+yFhfB00doZnze8bSZjqffgNYured+PDb7ii3o/6o24owRIeBwqijueJPL6QiS8mwHDYAv2BBx70eA0fPsx0P/YYe+9QkRr3f/td2wBcnrc4jRUNGtuUwwCZOuUNCXWXgomkKyjR+7inUmx0Rq+LtBwCLr2v8WGry2uvudqeQrB0uwiW3Pz4/eu5X7B05113m0suvaxQ/HNld4C222+nyYlmydvmMMmPOo0PBunatG7lTXr/99DD1mYO7i8TifpWzZtpEDNL7C6p0Tnc7yhGzCEcO+OMM80rr7xs/T0gW8+fd/4FXn7QIZxyckyQh3Wyt952u/Wn6dsT+RPledjJsr4AY0vhNGele/Q0kpYsC8xIuvuBgbK4uFC+2my7zdY2RKIqrdQP2bp1qy1jLwG8OP76e0ohY32fffqpOfHEXl6KWOPdsWNH79z9oWXBNQiWXOPdbsev7bOR0z41HrQ9FfSgfbqCJfUTdPTn87PPvjCd9o4LjILC4BqE1k8XCK0hbBr5zSj5iILanOiwTA6DDTiw+mfKtAQjjMlejomxRH8W9cst+hwyRhIgARIgARIggVwkUNLjalewhDGZa5tn0aKFZobYD/ryi89lV+M/PZwQCI38ZrS3yQoEP1BUgMN47aeff/WWa3mB5Afsyx59VDd76bbb75ClYVfZ31dcfpnV/sHJg//9nznvvLgAy3pI8gdjV50/fvzJIANhi9+5pimgHf+BrBZQB0WCZIIl9ZPumEywlC6c/z4+1jZpHFNSwD0YAfdWq8i5K1iC4sL7oi2GDXj8Dqtr2u24g3fZPzZPN3YuKlMv4Yh/RD32zliwVEOWSxSeosRLB0EE78d4QPPmzTdj0uUPPhxounY9wJMoQiOidauWnvDk73+mmQbObmiIoc1223paFQ899Ig56+xzvPCxFGJ/rWBpn9iE0wqWvoprLMGSvRq8hu9vRHtnR1lGF+SsYOnauGDpNtFy8Lug52sFSz3i61J/FQ2j6tVl6ZbPWc0pWf8Kt710mqNGjfU0uNSrxv/IIw+LZPlWe3nvvTubQZ9+bn/j/nHHHGVGjPjKnn/0cbyjs4KrtjHB1ZsitLpdwkPIZAV3/d/1wt8Myf2Tj9vzDwd8ZPbfv6v9jT+avnfB9yPs/ZWrVtuYsrUboy/AmjWq+XJSeqcN6styMHGLFi8NzES6+4GBsrgI1dv/XHyRDXGdqAHfKJo2rustXywg1IXDmu+DDznEvW3DIg647rL8DV99kjktC+5PmTo9QbDUxlnO+pAIP9E+g1ysfXa2t3bZZRcz3GmfQf712nnnnWPefecde4plq8+JnbJMHARry0UAC/fqa/2sOnBQOPjZQb4Cqd+Bov237777eV779LnDam3hwsOPPCo2ls7y7hXnj5Wr1tjos20rxZknxk0CJEACJEACJJD7BEp6XD106FBvG/tM6O22227WDhN2/lX3qphUufwybDJkrDbO3ffEtenVD46wr6nCE3xghxkDuIEDByQsE3vqqWfMQQcfbO8l+zP5jz/MXnvtYW9jzjZmzLfJvJpjjznazsvwkXX8hImePwiWYJ8J7qSTTo7ZvPXuZvZjzpzZMlbd3nqGxtIfk//KLKDjCxphc+fOETMSB3urADAWx5hc3RDRxupRMJc9XjS3XnB2hVM/eoTJlSFiQxnuCVlyCKPp6lKNnaNgqulEfYx67J2xYKmmCJY8BwkSZtrqeO7xWC32T5ptHt+ScM7c+aZadREOOLwuuOA8sSkUWzf6hOxedvIpUjEL7kNrZ4tmTZWs7GI21Oyx157efXujgHds4hogWJL7w4eJZtRxMc0ohJk3f1FcAut7Xs8/n6ixZJfCOflNpsLjCpZijfGlWL598UNQBIERHOwqweK+ltdedPx/O3asrP+NdXqxjkRUHwvuP/54XwNtLjgYQ7/+hhvt7/fff9ecc/ZZ9jcEdffff6+33HDOnHmmGuqulKdTp5hWEzzOmh3XeNL4bQT44+THXivCeTSCJc1A6R5V2LJoMTSWUEES85Puvt9/tudQVR0yZLB9JIOHDLPrkt18vPbaa+ayS8Xouzh09mhb7v3DDz/UjC3YJe2OPneayy6DAe/C5UC+GtSPGSpHXFOmQmMJQrUKpnD7HGLVb4PiGS9L5rp4gl8IlkYmTc8Nj50edS037EhZQ/ZJ8qnhli5dYrZusSWyax2MGm62GfqR4PId3/0YMR44zPq1fdDJJ8vv2PMs/HI8O2k8yeIPcz3ql5stHP+QAAmQAAmQAAnkPYFEwVLi+FXHP1EeobF0wvEx492p4EN4c88994kSQlf56F5JvMbHbVjCpfOnY445VnZALmxqROPG3BIO2kX4+I54li5dZvbYvYOnrID7HWXjmwsvvNgceeSRpmpVfLyOp4fyW9MjPU+AV9OyZUv5iBubd9kLvj/PPPO0N16dM1fmW9UgK9gkpk8+FMHS6dZ3TLD0jL2eDd85c2YFCJZSP7c1svHVV7IyCDaER8vuz6NHj/Ll2JgPBwwUxYIDvPwUnsu+KPeC07nl5psN5qJwN8nO4tded4P8ivGDfVLsxgz38CPY+OZM+RWLB3aAe2bM9Clh+iOiMVaGYHdBD86Pxl+UY9h5qs1gwJ+MBUs1IBxRp+XjeYyAw+PTTwd5y61wE8IRv3OtzR940EHmXbHib+uleJw2bZrpsMtOXpDpM2abWrVrefftjYL0IFjat0tcI2LY8AKNJbkPY9gXFnQye4ixtS++iElY3fCaCARL1117jT29HDaWRI1S8xPkX9sbJvk9Vcp7fA/zvEp5HR4If+GFEKT1t1HdLZ3nRRdfnDR+qBrCDo66f+ctNJWriEqitNtx434z++27j73VUYyDfypLhOAuu+wSa28GEmgwGDjwQ08FE53rPl26mHn/zjPbt2ll/Xc94AAxxBZX2dTy2Jv448t/Uc5XrQ6nhaEvQNvuND+lfGzYIKaxtBAaS4nvIXue7r7HMUQ53OeHRwSV4Bo1ErXj3HYFP1guWb2a+ClIb6d2O3hfLN5770NzwEEHBpYD/hsWaGchnn+misZS3Xo2nmlTU7RPX7nGT5D2uY/TPqGxFMBN86fHFlvFNY8GfvSJ6SKGxdOF+/OPyfKFaXdk17oFC5eYChUlQ0nSu/rKK81LL71g/f7fzbfEjeGL/zvvdDSWZOeLM846K2k8yeIPcz1sWykoMg8kQAIkQAIkQAIkEEigpMfVw4aIxtIJMcES5h19+z7hjUfxARy7n8FhmRw2eapcSeY6vnGkO38KLFTARcT3tZhC0HHY7FmzxEzIaeZ72cDFdZifwu4SPl56ChCSfr9XX7XzKtdvJr///GuKmG1paNMdMCBRY+kJ/y7dvnL6y41zLIXbcYe4xtKkP/4qxEfDLV+x3NqSeuH55xKEaEH5xkqi/UWIp3ygseTNZUVj6fnnRbCUJH8QKt16y8022tNVM6xgnH2n7Kj88MMqWJKx8xlnefH06ydML70kKDspr2GTqYYNhGmS/ERxfVXEqwWyEywVY8H0AeOoE9SUtCO4mWyCXJQHdf65sozl3dgylkyziN3LGjdqbCvO1ClTZQe5nb2gqSaIqSaurmAJS8LeekvylOT5JRUsJfGv8RQSLL0ojTFgInvuuWeb99+LLUm7/wHYPZI1vgH+EK/bkQACpLVVIa0V/9hVr6VoZegSHhhgq1Wzlthvam07Ehgmv/nmW+X3vyJEam0ZXifS5BtuuskaOT/9NNEME9fnzrvMJZdclpSHli+KY9gG670AZSmcfQxSfpjL8bCVwrm2SyyFC9okLN39ouT/1VdEHfjyS+3zy/TPm2/1N4cdfoTHzxUsDR4sGk977J6Up2pfIS0shasrgiXkf8pUaZ+7OO1z0RJrBDCIxwQRLHVxBEtQv83k+bVwlrQNkzAdRGAaFL/L83dZ+rl3p708NAsXLU1ZXyBIfk5sq8FhSSG+umh8dwYshUuXfhT3KVjyHh9/kAAJkAAJkAAJREjAG1eLooSOd4pzfO0uhTvyyG6m3xtveuPRef/ONds7tmexdA2CCn9+zj0nPn8CCtgX9caRcm79+47t23cwL8h8zPMnPzZsWG8GDfrEPPZY30ICpj322NO8IsKkZrKcDfG9/NJLYqPpcvkVc60kzaB0vPjFG+5/PXKUmEOpbserfsHSkyJY8vzLj0z4z5alcDs6S+EmyVI4mw9f+FkiODtWTKW4tqqgUNGrV2/Tfuf2ps32ba2Cg5rKiJmo6erlZ3CAYClZ/h6QjX10c5/zL7hAVsiIDeWC/Pi1/c8QMxKa31deEabOZlqZPEfw+kaYVhUtsGT50fiLcj/q1QIZC5aqV5fJfWDVksvWAYEtou8Yu+tMidPeb9RAtANKwC2QyVfcFT3/q8SezpZbxJexXXiRaOYkcV/KLmd/FRhse1Ss6Z962mnis4JZu3aNadY0ruU0abIInRqL0MlrAvF8YqnNfgUaS+0LtHXU36hRI83R3Y60qW8vjQpbkid7Pi8kaCxdIUat+zjp2Sic83j6WGfay9NYOsE898JLAf6MSHf/zzzx+GM2ImwXeedd9zj+7GXv/IfvvzOHHnKQvQitlKnTZxV4iKV7yX8u8nZHQOeAdb0dCzQ13v9gQEwKLRz36wLDc+PNrrJmefCQ4bKE7iZvZwRoNbXfpb3Ei/qqLl6uRE5Fu7+6iBpLaHdBrSpZbovzurbLhSJMCUon3f2ilOPYY482X48YYR9Gjx49TWP50hIU38TfJ9ploPCIl8pTzzzr+Tv26G5m5EgsRzPmtX6vW5XioHIg3oZOHwTj1ror3Jq1a33t8y9Z1944kAd2j1ONQrTP4cNHBPrzlwNtGnUXDraSjjrq6LThFi5a5O14iHCTxThhI9lRMVn5evXsYQ0Wwu+jMqA59fQzPE53QbAku2jAPSQaS1DnTRZPlNdXr15r06SNJYuBf0iABEiABEiABCIioIKlkhpXQ7AEmzxwECy99vob3jgL476+fR81t992q72P+Q52wm5Qv37CeAvaMTp/uv+BB63x7aKOu3755Rfz3LPPiD2nmM1RZACrZ955932bv08/+9ScctKJNl8Yf74i41D/ODXd+UAshTvrDBvHibCxJPaIss03BEvtdmhr44B2FXZYD0oXOx1/IUbQ4Vq2bCn5fV1WvsR2S1b/Jzl+rMbS/vt7+Rksq296Few6fvzxmMu+GJgO8n+J2Hl98803bFo333KruUo2gtJyQbD0SMHY+WEZO58uY2dN/3NhenIB027C9DVhquFK+7gq4rF3FoKlAs0JwamgeFQxTuz48UcDxUjaqbbCHXqoaAn1fydpxXlVDLJdUaCBASv0H4gxaeW5s7NkZ8DAmGHdoIqH7cUTJ65xjQhoVuzmaD5BQFNHOq6geBIFS7IU7rY7Av1p/vQ4NGApXLr4IegZIoKeIH+I19WeghT98y+HeFxw/z2xp3SeSPDh0KibNNlMDNvF1AtnzJxjatSsaf3DOv8jj8Qmx7C71EvWtn4vQit03v9MmW4qVqqUEG+y/BT1elgtDH0B1kgi0N0kBCukKEFx3FdhC7RhguJPd9/tOYLCJ7s/d+5ca2wazxzPb/Kf/1gttqDyT548SQSNe8KrdTNnSZ2w27JuEtXeS+2SSdy4QbR0oM2W2IK1ZldI0JpEfVEbS/C/U7sdvSV12j798aB8rmBJl2mqv1TlP/WUk+2XJeQTgti7EgSxsRrpD79JtPkaNayPINa9/a4YLz/oEPlduAZjA4HtWm/raf7ZZYEHHiB+Y+W/s0+fuDovlsJZ492J8fjT96cT5n7UL7cYCf4lARIgARIgARLIdwI6ro4JluLjvSjGLzp+wlHHP8NgY8kRLPUTwZJ7f82aVbLJ0m7eePIiUUaAuRANj3w9L0u71FTJcd27mxdffCXhvpuulsMNn+q+mz/UDdXOHydzS1VawJj773+mio3eKuIjePyp1/WI9F3BUu/eJ5qnnoaGfObhMb6HjaUdHcESbIe6/BDfihUrZUfoZnI95ib+/ofZrGlTCZ34fF3hU0yw1FUCxPIzZIjYP/IESz1EsPRCofBId/36dWavPXc3U6ZMsYnB/MvxYgZG47mzj9hYcgRLZ4hgSfnjY7HO12NMpwnTSt599ecvn3td08n0+ap//9EfPuw8VTIf6DIWLFWT5UiJjymouP7s59f5uWefKQbLxF6SuEcfEy2kU04rqLaFOUASu9OOMUks/E+QxtBUjO2imkMLCEbf4CDZfPXVYMnmqG9GmmNECwPOaiwNi2tErJXtFZs1haZTzGEJ2rnnnheYn/89+IC59967rcfLLr8iK8ESBDZw3UXKi3WpsWaaWN4Z06cn2I368MOPTJf99itUn9bKhLd9+3Zm/rx5Ns677r7HXChrf916968sc9uhQH0Uwrt6It1/5+3+1o7SwIGfeOkP/2q4OaH7sTaeF196xZxdIDk/7rjuoiL6sucvKL9uekW9v1oMycFlq4XhvQCt0TYbRan/adQwpkmI5ZlBLt39oDCZXMOugtdcfaX12gsvKNnVIpVDx//XX3gBicaPtB20Ibi+fR8xMIQIB42nX38dV2Bo0F7y/qxYscLAzpE6CCbr1YtrUWIttr99ql/3+E1A+3TvJ/v9pnxFuuSSuLbjuPETTbNm8fwkC3eVqC6/8srL9jZskOmOin7/EGpfeYUsBRWHFxx22ogZXIz5vPPO+FcXaCxhh5GScGHbSknkjWmQAAmQAAmQAAnkLoGSHlcPGxbXWDoCS+H6xTRdXIIff/SRjLFiCgm4PvKb0WYHZwfv6b7509ChX5ldOnRwoyjS7yOPOMyMHTvGxvHBBwPNftDkkbVdMPitApT77ntATJhckFU60CA66cReNsyuu2LlyLCswsPz4sWLTattt/bC+cfiuIGNbg45+EDrB/Z0MQ8McjCiPlyMesNpOdUfzLroXNZqLMHGUoB7//33zHli2kXdX39PNfVlDqou1dg5CqaaTtTHqMfeGQuWqpehCW7UUKOID3Z/tm7R3IvKSk3trkzepUI/Dj7oAPPTTz/a6/976BFZcnKW/e02SFyAYOTYY2MG4KwH+TPy66/NKaec6GkdqGBJ7+OISTQm03CYSH8oS8fcDgvXn3rqCXPz/92En9ZdLoKlW0VjKROXaWNEXOhgVFWxVavWonn0odlqq628ZLBV5k03Xi/bPD7vXZswcZJp2nRz71x/HHDAfuZXUeXEpLi6GHCGIOqWW24zV1x5lXqR3btWmS2bx8KCDfzD9RWB3yki8CspF7bBJrwAVdKlmS6lc09wJEvhrGTOl59099W7JynUC2nKc1S3I7ydHV55RZaGyfamQelrdHfdJRo3BTszWEHiSy9b///KmvYd2rZRb+b8Cy602kCV8NVgU+wyXuKnnNzbW4qGq3/LUrh6deOCpS++lBemqNWqK9Q+pTwjR6Ron2nKu3iJvEy3ib9M9xUh7EsvvWoaNGgQS7IgPAYDnw4aZG4XDSPk333BwiOM8Nud75z0fv31V3P0UUd4/call17uhdfyuC/HB//7kDn7nHM8PtaPE1+U52HbiuabRxIgARIgARIgARIIIpAwrlYPxTSeQfSBgiVfetAegdkS3b0M4z18fPec+HeXccG0Sf+3343Pn5z4Zs+eZTU+mm0e/xCJOeCkSZNkPtjHzgPd8feyZctEA7+tNx5UbR+MJ5944jHPSDXy8vEnn5q99+4c1ygpyOBK2cl8qmjweHPLgvxgrHlA1329YkydNtPO2dz07U0n/0HnOq/APWx0dcCBIkQqGK/j2uQ//zCdClYpbLHFFuaHn34xVatUxS3rVslO7bfKbuIvvviCXkoULEn6MN6tgiXMlZ944ilz8MHQ+BdXkL+JEyeY42SndVV8gEmOZ56V+aqT/0Jj57Nl7OzcD2TaWZg65YH/laKFNXVqAVMnvJsf+9vJX1HOozZDkbFgqVpVUYODdShLQI5qrYrnwqSCGSCaSuecfaZ9ttAW+GTQZ2l5PfbYo54GxT77dDEDZAco8AXaQ0UCq0InRHruuefL7lD7mXXr1shWil+J5PtVm5b+ad9+FzN0+Ag5RQ2NPZ/58+dbw9bqB4IYaCS136WDmSkT6E8++djTvFA/uG8FSxk83yGiVdXb0Vh6zkp54+m79QVaS1326eR1YI0bN7GCoFatthWp9BLT/603PWky8oKtGk8Tuy9ueTS++8V42oMP3K9ZtsfPPv8ycdt3yT/WNquEWj1//8NPpuU225ZY/cXWl3BhNZZi7U4iKMCacLQxyx+nWRbn/caNYpL5+QsXx/LjSz/d/UL59IUPuj9bdoXYeacd1KeZMnWGqV2ndmD6Gv77H74zhx9a8FKQkFOnz7RG3nH/LhHC6BJJRIqXB7TtsK59jAhqXhTBphqH10T/EjVgK1gq4IyBwKEHHxTQPvc168QG01eiLdevYLcPjSPWPr9KfI56M+D5vSO7KF50UfwLEV6Yl152udlxx3YGArLhw4aZ11/vZ2N47vkXTPfuojko8WC9/uNinFEdynb0MceYKpWrGLwY77n7Lr1ltm7Z0owY8U1818mCfLz99lvm4osutP4OEa3AO++6y7RutV3heqYxBeTf1sMs769Zu86GyLataDI8kgAJkAAJkAAJkEAQARUs2XG1eoho/KLjT+8o8UOwpLuNHXHkkWJX5434OMpJ/7dfRAgjH8zVvQJN+25HxU4lfzNnzDT7dO6YMDa94447ze6772Fq1qppZs+abYYMHWzHrxjTwgwL3JjRo8VG5xH2N+Z/l1x6mdlzr71EI7+FNeDdv/9b3hwJH+ChDaX5XyerXo4+6khrQsRGIH/OP/9Cc6CMfZs2aWoWLV5k7/V9NKa88Jto1tepXccLD81/V9kCqw2wamb16tV2LHrOOefFok3Dv3v3Yzz7qhhH33nX3aammDz59ttvDZbYYdd01y7xgQceZE4Sm05btZAyfv+9eUkESrqCQcsBe7wwQWOdpA/BUu9eWNIWd+Df7aijrEYShGQYV+vcACzHjP3ebL65KC84+X9beCaMnWWjqNbbydi5YP62Tsa4hZjKB27kuaks31sktlJhssVjOk6Y1hWmxTz/W7Mm2rF35oIlaizFa1zAL9hW+uTjmJT5rrvvlSVc8aUsAd7tpUmTfjf77N3Ruz1uwu9SUWNrRTEJhNAG1u6TOUi21aCx7RRkKZzfDRjwoTmnYBmY/56eQ0Xz00Ex9UFPsKQ3UxyhsVRYsJQ8wOhR31jNJW2cyXxefc215sabbk52WzrLUQZaLK6bLbvHValSxb0kBu/6mttuvcW7hsn5r9JQS9IVq2DJ6dACO56I7xcSHPniT3ff7YAzzS+2Dr3+umvtIzvs8MNFmPJWQkceFM+GjRusxo/Wsxdeell2jDjOhlsiQsxzzj7Te5kG1QXUE2gHqQFtv2AJ5Zg4YaK8iLJon1bw+1XwC8LHUTk9+OD9BkLUdA4GHe1LWuJZK8bir5AlcXjBpXIQKr3V/22xtdSmEM+p8qVk9906eMHh94cffi7kT/MZ1ZGCJQ85f5AACZAACZAACURIIEGwlGTcFdV4BvEME+PdSQVLvvRhc1c/SGIMOva7H0yN6jW8cdfYb8fIfKuHJ9xIhQXjta23aWkgsLr8iku9FRvJwkBQ8uGAj0yHDrt66SH/c2bPMaedenLCR9RkcTz19DOmZ8/eCeFhePzJJx4PDAJ7SY0KdkMPGsfrc/j8889kFcGJgXG8+trr5shu3czTTz0lK29uDPSDi1Bk2FO0mqDhD2cFS7LkT9N1BUsY70IDK5XDipv9u3b1wms8U/+RsbMsIVRnx84/ytjZEQzNmStMxY6qqzii/v1HmP3o2VuYOuGVS5THUhMsVYXGEl0gASzjcu0Zffv9j2YbaMVk4LCOVSvxk6hEspOVOkgvr5TOBppFrkMjgeAK0mfYWPpWNC0gyR0y7CvXm/cbRoQvuuh8a0zYuyg/oFJ5y6232wayVcGyMQiWcC0TBxsyxx0Tk6qffMqpBrvbpXMzZsyQyfI95q0Cq/quf6zDvfa66w20JFK5taIV0rzZZp4XCBz6QeDgc7/++os56ADpPArc2eeca2BrqiTd2pBaGAkvQMmw9iua99I4b6IaSwsWB+Yn3X28R9Vlmv8Te/f0di977PEn7ZcIxJEu/DXXXCVbpsbWSZ966mnm4Ucfs/0wwqK9PiAabw/970Gceg4vVyw5vaPPXebZZ582D9x/n72HddS6K5x6RvqLpX1iMJCsfV5a0D6xZM1qLDntM13+9T6+eP1P8okvT37XtesB5p577zNt2mxfiAd2rcDuFP4vNYgDBiKvuuY6q6WlcWp6eu7X9ps2Y7apKctO1fn9R3Eetq1onngkARIgARIgARIggSACOq7GfDbMeFTjzHS8M3rUKHP00bHduY84QjSWCmwsBYX/VwQO7Ry7u/8VMwRnnnW2TVL9z5kzx/z3vw94Y1vNjx4x1r38iivtqgwt34YNG8xbsiIEAh4oM/gdVstg7obd1NRpejhfs2a17Oj2hHnm6afN/Pkx+7fqD0eMQ6+6+lrTGUu6CpyGh3bSVVdeYaAF73cff/KZ6dSpk72s/tWP/xwmUq6/7hq97R2x0RQ0+ddLGZ98/DHTp8/t3j38wJgemlJQVMCO45hPwL2HHcRVY0nORzpz2c+/GGw1h66//lpvbm4DyR9og2F+vGO7dknrj3/sPF3GzjDZos8Dca0Wpk+lYXq1MN27gKmfR9TnUX/UzVhjKZVgCcBQ0GSO94vGZ400zgmiwYTlZDvtvHMhoVWmfGEIbdy438yK5SvM7nvsbqW4eGaZho/y+SIvk/+YZLDUqW7dunZZTjJhXGnkzy1rUdIPO1nWF2CCyq6bqVL47WkkiWApyKW7HxSmNK9BwPT333/Z9ectRG22XbudIMQ2WQAAKdZJREFUZJeGyllnSVV7YZ9p54D2mXWEAQEQNzSJFixYYLbeemvTtu0Opnr16gE+45dgLPAPaWMIC5tjzZs3t8LkWrVqxT0l+QU2sNk0c+ZM07BhQ9Oly76mkuykWJwu6pdbceaVcZMACZAACZAACeQOgbI4rg5DD9r4kyf/YVe0VKtWTTTPtzNbis3adGM0jAOxGgYf+GHrtk2bNoVWeiTLD8aEsNU0a+YMg82htt22lfzfJmHjl2Rh54rQbNy4cVbbCsvHYNKhTh1Z4pWFW7Jkifnzz8k271hRgA+qdimaEwfmlRjzQgC3ww47mNbCpYI14eN4yuInOEFBoYYIhsAL84R0Lpuxc1GYpstHNvejHntnLFiqUqWyCCB0ih3fTtGKTOTBYRLD++SjuiSwQ+PVhzyuH+iA4bK1G6MvwKrS7sqKa9I4Zjx63vxFgVlKdz8wEC+SQAGBtevW21/ZthUCJAESIAESIAESIIFUBMriuDpVfnmPBEqCQNRj74wFS1VhvyYuN1H5AY+qk8Yj60dA+yiqxlKgYEnTSdbj8H6sXyKfYAJltH5E/XILLjyvkgAJkAAJkAAJ5BuBjARLZXR85D0r5o/j+4iXiEU99s5YsFQFS0RQodWpIIXnMQLkwfoR0D7WhdTC0BcgNAUDK5i3a1+SBsj7Uh8DHoiHSxos7ysNOfo6sFKoP+vWbbD5ocaS81j4kwRIgARIgARIoMgEvHF1ZVnWz/Gfw7P0x38JE8hSGH/mc/ph56lOBUr4mblgyZvgJoTnCQmQQAoCYRus9wK0S1Dj037t/nmMvQbIofxwCNtWUjQ/3iIBEiABEiABEiABw3F1+RkvquIWj0WfH5aaxlJlSHi5Fk4YcCrLepB5VwbjbHDZamHoCxDtLvPUWDvZOnO3da5fT40l21nwDwmQAAmQAAmQQKQEOK7O3fEh50HFN79bF/HYO63G0px/F5iNGzfJbkmY4MJod7KKGTPWzPvkE9wB5Gf9WCeCpYoVK5jNN2uU1QtS210VK9AtHFTbWeE7sSu8H2uH5BNMoCzWD7zcwrSV4BLyKgmQAAmQAAmQAAnECOi4Wj/YJuNSFsdHbl6ZP47vMc9O5rKtH1GPvdMKlubJ1uJYolCxYkVTEbt7SUmCBQe8Ti7FJ1HNxXonWyWaDRs3ynaelU2TRvWT9QGB17XdVZJ2V0EEU4jLa2FYG85z8tCeuBzUh03y8SJsWwlsQLxIAiRAAiRAAiRAAgUEEsbV1saSjKvLwfiJ8wHOj8LOD0Fuw4Zw89RkHUtawdLiJcvNylWrY4IlO8GVqChBoQTFacesD9ImAnhsFOHPRhEs1axR3dSvVztZGwy8znbHfiaf2hW0YsO2lcAGxIskQAIkQAIkQAIkUECA42oBwfl74HwtX7kUZZ6arGNJK1hatWqNWbRkmQh1K9hlCski4nUSIIFEApgsbxLhUoN6dUyNGtUSb6Y5K9TuVHCl4Xgee0GSR4xAjteHorQVrQI8kgAJkAAJkAAJkEAQgULjavWU4+Mn78M2yxMjwOeZ8fyoOMbeaQVLmBjPnrvAPqxKlWDAW58YjxT9UvSdqj1AvRCuWdNGVjBrTzL8k9juKiaEUup6keexp0AeMQK5Vh+Q66K0FX3uPJIACZAACZAACZBAEIGgcXWujZeYX473IX1RV9T6UBxj77SCJWRe1QehtYT/dCRAAqkJ4AWG/2GWwWnMbrvDKlQKMrUL5TGVQDPX6oko9hW5rWib4ZEESIAESIAESIAEgghwXM3xc3kaPxdlvL9x00Zrnqso89SgNpaRYAk7W82bv9iGhxFvrZYaIc8pQY1Sgprr9QntAvZi4Jo0rm+qVK5sf2f7J6jdZRsH/ZNAWSaAfiOKtlKWy8i8kQAJkAAJkAAJlD4BjqtL/xkwB6VPoDjH3hkJloBg6bIVZvmKVZYGtoT2r4gT5QxrXN9/Xc95n3ysshtqs0qOnGN5qh8whgZXu1YNU7dOLfs77J+EdkdtwbAYGa6MEoiyrZTRIjJbJEACJEACJEACZYQAx9Vl5EEwG6VGoDjH3hkLllB63aoxtiQOVxzJgEqQeCSXPK4XmwpUC6tUqWyaNKqPRlJkF293aHHS5tjsCgm22e1INcuxeiGLRa0abpRtpciNjRGQAAmQAAmQAAmUawIcV8vjTfKhn9eFTY6Np7PJ7yZsLCVFLK6xd1aCJagQLli4RJYuxDQyEu0taQ3VvojnsZpJHjEC5b8+FCgq2d0TGzWsF3oJnNYYPRZud3qHRxLITQLF1VZykwZzTQIkQAIkQAIkUFIEOK4uKdJMpywRKImxd1aCJcBZu3adWbh4aRLhUlnCx7yQQMkRgKFuOCwTbVi/rqlatUqkiRdudxBbVoDOB4/kkFP1wH2xFUdbibThMTISIAESIAESIIFyR4Djas4f8mkepcvfimueqh1E1oIlBISkF5b1161br/HwSAJ5TwBqhfXr1Y5MU8kPNFm7K8cam1Zdk+UrHxrLbn0u7rbipsXfJEACJEACJEACJOAnwHF1+Rhfcp6Q+jlqvS+JsXcowZJm0DWAptdwxBI5aHDwSA7luR64dT4KQ91ufKl+B7U7dKp0JFAWCcR0+eI5K8m2Ek+Vv0iABEiABEiABEigMAGOqwsz4ZXcJlBaY+8iCZaAHNLeFStWm5WrVuf2E2DuSSAEgZo1qptataoXm5ZSsiyx3SUjw+tllUBptZWyyoP5IgESIAESIAESKBsEOK4uG8+BuYiWQEmPvYssWNLiQzNl9eq1Zo3YYELj3LBhg2eHSf3wSAK5TADrUitVqmSFSNXEhlL16lWtVl5plontrjTpM+1kBMpiW0mWV14nARIgARIgARIgARDguJr1IFcJlIWxd2SCpVx9CMw3CZAACZAACZAACZAACZAACZAACZAACZBAOAIULIXjxlAkQAIkQAIkQAIkQAIkQAIkQAIkQAIkkPcEKFjK+ypAACRAAiRAAiRAAiRAAiRAAiRAAiRAAiQQjgAFS+G4MRQJkAAJkAAJkAAJkAAJkAAJkAAJkAAJ5D0BCpbyvgoQAAmQAAmQAAmQAAmQAAmQAAmQAAmQAAmEI0DBUjhuDEUCJEACJEACJEACJEACJEACJEACJEACeU+AgqW8rwIEQAIkQAIkQAIkQAIkQAIkQAIkQAIkQALhCFCwFI4bQ5EACZAACZAACZAACZAACZAACZAACZBA3hOgYCnvqwABkAAJkAAJkAAJkAAJkAAJkAAJkAAJkEA4AhQshePGUCRAAiRAAiRAAiRAAiRAAiRAAiRAAiSQ9wQoWMr7KkAAJEACJEACJEACJEACJEACJEACJEACJBCOAAVL4bgxFAmQAAmQAAmQAAmQAAmQAAmQAAmQAAnkPQEKlvK+ChAACZAACZAACZAACZAACZAACZAACZAACYQjQMFSOG4MRQIkQAIkQAIkQAIkQAIkQAIkQAIkQAJ5T4CCpbyvAgRAAiRAAiRAAiRAAiRAAiRAAiRAAiRAAuEIULAUjhtDkQAJkAAJkAAJkAAJkAAJkAAJkAAJkEDeE6BgKe+rAAGQAAmQAAmQAAmQAAmQAAmQAAmQAAmQQDgCFCyF48ZQJEACJEACJEACJEACJEACJEACJEACJJD3BChYyvsqQAAkQAIkQAIkQAIkQAIkQAIkQAIkQAIkEI4ABUvhuDEUCZAACZAACZAACZAACZAACZAACZAACeQ9AQqW8r4KEAAJkAAJkAAJkAAJkAAJkAAJkAAJkAAJhCNAwVI4bgxFAiRAAiRAAiRAAiRAAiRAAiRAAiRAAnlPgIKlvK8CBEACJEACJEACJEACJEACJEACJEACJEAC4QhQsBSOG0ORAAmQAAmQAAmQAAmQAAmQAAmQAAmQQN4ToGAp76sAAZAACZAACZAACZAACZAACZAACZAACZBAOAIULIXjxlAkQAIkQAIkQAIkQAIkQAIkQAIkQAIkkPcEKFjK+ypAACRAAiRAAiRAAiRAAiRAAiRAAiRAAiQQjgAFS+G4MRQJkAAJkAAJkAAJkAAJkAAJkAAJkAAJ5D0BCpbyvgoQAAmQAAmQAAmQAAmQAAmQAAmQAAmQAAmEI0DBUjhuDEUCJEACJEACJEACJEACJEACJEACJEACeU+g2ARLS5ctN1OnzTbVqlU1bVpvnfegkwFYvXqNmfzXNHt753bbJfOW9np54z1r9r9mwcIlpmHDeqZ5s83Slj8qD6WVbrr8L1i42MyaPc/UqlXDbNtyy3TeQ92Pqi6GSjzCQOWpLaxcucr8/Nsks3DxElOlcmXTskVzs/12LSOkxahIIE6gJPqZeGq586u89I25Q5w5JQESIAESIAESyDUCaQVLmzZtMvifqatYsaL1+v1P482v4/8wVatUMaf2Piqj4IsWLzWDvvzaVKhQwRx9eFdTp3bNjMLlsqe//pluvvrme1uEs0/tHrooYXiHTqwEAn74yVCzcNESs+UWTc2hB3YugRRjSZRWuukKOOzrb80/U2ea2rVqml7dD0vnPdT9qOpiqMQjDFRabcHrK6X/qij/i+qWL19p3h3whdno9L+NG9Y3xxx5QFGjzqvwGzdujJU3zXPx/Dl09H3mXEr4GfUzT4i8FE5Kop8phWIVOcny0jcWGQQjIAESIAESIAESIIEkBNIKlkZ9+7P5/Y9/kgQvfHnvPXcxO2y/rQkzufv2h9/MuIl/2kh3bb+D2bV928IJlLMrUQ1Yw/AuyyhLS8BTWummexYlMeGLqi6mK0sU92fPmWcF0Js3bVwoutJqC9+M+clM+nOKqVmzhjnx+MML5SvbC0NHjDVTps2y5dxu2xairVbTNGlU32zZfPNso8pb//MWLDIffTrclr9unVqmx7GHJmXxYr8PCt3DRw5o3eIjx16772yaNmmU4CfqZ54QeSmclEQ/UwrFKnKSudQ3FrmwjIAESIAESIAESIAEQhBIK1gaK8KeCb//lRC1q8GEgbfr9t9nD7tUJ8zkDhpLnw4eaaM76rD9DSYC5d1FNWANw7sssy0tAU9ppZvuWZTEhC+qupiuLEW9v3btOtPv7Y+twOWsU44rFF1ptQUVMlSvXs2c3OPIQvnK9sLbH3xulq9YaRo3amCOOaJrtsHpXwiMGPWD+fPv2FJjADnxhCNMzRrVA9moYAnaZhUrVTQbN26S/wXaTgUh2rVtZTru0d4LH/Uz9yIupR8l0c+UUtGKlGyu9I1FKiQDkwAJkAAJkAAJkEARCKQVLAXFjeUZS5etSLlMqbQmd0H5LcvXohqwljfepSXgKa1009XRkpjwRVUX05WlqPcXL1lm3v9ocLkXLL3W/yOzbt16026H1qajaMvQZU/gtbeE4fr1pkqVypZlh53bmt122SEwIhUs7dt5dwMNMXVz/p1vvhnzs1mydJm9dMIxh5h6dWvb3xQsKaXyfcyVvrF8PwWWjgRIgARIgARIoCwTKFHB0vr1G8y8+QtNvXp1kn41TgUL4RctWWo2yZfkxrIkJJ39i2RxrVy12qxYsco0adygkJc1a9eKbZ+lBrZMMBlJ56BlBdegft10Xr37c+ctMLVkuQzs5fw9ZYYZPvI7ey+VjaW169ZZY9bJ8lUUwRImr/NlyUgjKXPVqlW8fPp/bNiwQfwttn6yKS94L1m6PGOmSNcT8Miyn0MP2NtmBayRB+TTrynnzyvOl4mNmlWrV9t0M60rXrppbDtl+9xtvRJj5HVECw/PPZ2zbcU+k3rWThnqCOpKOhtL2ZY5TF0MyvsqMUK/TITNaFOZPBuNI0yfMHvufPNpgS22TDWWsk0nW44oTzZChkzyo4KlXXba3uzeYUdFVugYJq/uc/dHGCa+bNt4pn0ONIb+nbfQaq9iiWE2DmX85PMRplKlSmbnHbcTI+i/m9qypK3XccE2ypIJlpAm+p1+b39ij+4y7WyeuT/v2fYhGj5b1hou6Bi2n8H7AlyzeQ+gvOiHVSjn5gcfqtBHom9PZ58s275U08mWm9tGMn1Pa1o8kgAJkAAJkAAJkEC+ESh2wRLsUxx+0D4GGhcYPKrDMjcsd8OyEXUYrH702Vf2FEsWahTcw+B3+MhvzbQZc9SrPdYXAVXXLnuahg3qJVx3T36bMNnae2q1zVZm+9YtbT4wwITDALZtm21MJ7ELhUHvkK/GSh6Xe8G32bq5jd8/UcakaJhM9OfMnWeQN7jKlSuZzTdrbA7Yd69AgRQm3sNGfCuTpAWeMV7s8rR1iy28pRpBgiV8Kf3xl4kiJImzw1KOww/uYlB+dWEES7+Mm2Qmiv0s7DylDs8LyxlhNBsOE6qffv3dTJr8jwz816k3KzzAZLd9uzbeNfz4bMg3BvZvEAfCwm6WGw67Wh2w755phQ8q4Gmx5eYyqaxtJkz6O2FZSoutmpkD9+sYOAlBmpNl+cuaNWu9vDXdrJEIqDoHPhvPk/zQdIOMhmf73FcI1zHf/Wpmzp7r1ROkhbpySNe9TbPNm7hJ298QmowWu2bQylGHyXCtGjUMJjrJBEvZlDlsXdT8uEcslUUdxa5JcGgraI9dOu1qJ4muX7ctYknRUGkPbr0O6hPc8FgC99b7n0q92uhtKOC2zd5i1whtQ9tCNn2PppMNRw2jx2RChmzLDTtzKIO7DAvlRL05rffRmpxtW5nUc22T6CuxtA79Cdom3JmylFAn8pmWXeML08Yz6XOQLxjuHzn6R7NAjrr0GoKM/USbCP1yJk6FsVvIrpKd9+pgDaEjHOoJBPt+l0qwBL8DBg0T4f5iKzzF5hJwyZ65vRnwJ9s+pCisA5L3LoXpZzTv6N+1/qBe7rg9lgcmatS5+V4l71vUOWiOweGDTeeOHUyrllvZvmPM9796fTXi6yRLDWGn0XXZ9qVu+tm8h6LsG9388zcJkAAJkAAJkAAJlHcCxS5YAkAMFjE5wATG3eEIA34IndTNmw/B0nB76trC+FyEFTNl+3m4aqJRU716dSsAQpz4+omlCcmcTjIhxNGBrT8fGBj//ocILgLyiAFzu7atvegxSH3/oyHehBiD5AryDxpFcBACnHD0wfZrrgaC8AnLB12BViWZJGKg7jq/YAm7gEEgB4f8Y6t5COcw4QTTnscd6mm/aDkz3YVv7Pe/mfG/xwylI34I+CCIAVNMYE8/8Rhclon8Z57gCdyqiuBJhQi4DyHRNltviZ/WqWAG8ak/fKV2J8l+phrWPWo87jU8+7XCTCeamzVpaIWTrp+RY340f/w51V6CkKGycIPwAmFwjnqVymm6fsFSts8dLN94d5CXVzCtJBxUyIbnd5LkxRWsQrg5QHbD0zaCMJJtbxKHfAcJlrIpc9i6GMTMtV+DZwxtN/eZH9ftwEDhJ9oM8oFn4m+L/j7BTdfPFPfAUZ1fsKT3M00nG46apntMJmTQtplpuVUQpfVcy+EKlrLJq9ZpCL6xrAsO3KujPRQYGQ8TX7ZtPNM+B33cBx8PsfUe+awrffzKlau9PhYCLXwoSOdefWugrWcQRrWWpW2vv/OJ7eN22amNaIC1KxQ8nWDp7Q/F5pVoQUIrL4xgKds+BBnUZ5ct60KFcy6E6WfQf2P5qX4cghAYAl4IfOC2bbml/QijyWi+IdxVAb/b1vF7u9ZbyweLKTaIew8Xehx7iP2ggN/+dp9JX6rpZ8Mtyr4R+aYjARIgARIgARIggXwiUCKCJUw6oV0C7RMsl/li2GjPXgWWsujkMEiwhAHty28MsM9kR9FywNdMOAhyxsqXTixLSLW0SCd1CIMv3ti6vpnsJAVB1eDhY7xJOwa2No+iCTP33wXmi6GjrCDKv3QCOwxhpyHkuWuXPTyhCnZvghAIk0G/sV0Iy1A2uD12bWd2kmUZSA9fv8ECX3ThXMGSam8hPkyKMDmCgzBqwKChdoCP3aF0mZiWMxPB0m/jJ5vvfhpn4wOLA/fvKAK7qpbFiFE/mrbbtfS0aaA9MWHSX6ZLx10NJv1wqjmCgTgmGO5OSzqghz9oBRx+8D4i/KtjtZi+HD7aTvT8YeDX79x4MCE+qGssjxC6DPpihF0egzAwagzecG659pdngy/icND+QXyoS/hS3na7bez1oD+arl+wFOa5QyCKNLt02s0ugUN6mNgP+uJrmzS05aBJAQeh55siiAJT1C0IXFWjCcaHR8qOY4jLL1jKtsxh6qLNoO8PtNh++nWiveqWAxp/AwcNt+0TE8CTxIg1hKJwWkfxO9M+AX79DvURmmDglGopHMJlmk62HP15wnk6wRL8ZJof+E22FC7bvGqdRpwQbkGrUjUSca0o8WXaxt00UvU5EL5AIIt+DpqKaN+6PPerb763Gi4QMJ/S6yhkPalzl0uefuLRtu//evQPZvJf02y/BCGk36USLOGd8In0O3DQ0kQ/Dpfsmdubvj9h+hD32WXK2pdswmnYfgZ9FvouvEPxTHQJnLtErKcsMcTueXBuvuvUrmWOOKSL5T5RNE+hoaQOgp9uh+5r3xGT/5pqvhYtNbg2ol0MrUd12fSlCOOmnym3qPpGzTOPJEACJEACJEACJJBPBIpdsAQBSg9HswZwIdTBQBHOHYwGCZYw0caXZ7hOe7a3avf2JMM/OpkNyoercXG8aBm5S8sgtBovu+FhIH3GSTHtHVfIFWRQV9NC1hAGYd0w0OyBho/rkhkFhSDhjz+n2IkoJkaYkKpTTrh25snH2suadiaCJTW+DpslveTZuHFrGumOP/w8wWBZC7hiOY06HdBDINdDNMncuEfJEq/fZekdBA6qEaXh/EeNJ0grCUv3oEkFh2UxmCjDqUYBlmJBW8Z1yqeJCKGOlolRMqfpuoIl9xlm+tyTxY/rA2VJzXwRKroCyGkzZltBJ+4HaWQkM96dTZndcmRTF5Env9Mdy9Bm0HZcB5s4H38eW9J60P6dzNYirIXTZxDUFpP1CW68+jtTwVI26WTDUfPhPyYTMoQtdzLBUrZ51TqN/HY/6iBPKKD5DxtfNm080z5n+sw55ksRtsNBK8i1g4f6+6oY48YR7TvVEmgss5wybab1o32B2lxC3LCzhPy7TgVL0GjCkt0Nkg60HWfO+tcKtFTzrVfBkkuETfbM3Xjx22172fQh+uyyYe1P2z0P08+4eQ/S9tI87tq+rf3Qg/T0WlC++0vfDU0nCJWgdauCZ4R7b+Bg+9EJS5e7HbofLqV0QX0pAqRKP+g95JaxqH1jygzzJgmQAAmQAAmQAAmUUwLFLlgKEnRgUInBJdyR8rUSGilwKjDBb3cp3LsDvrRL33C9TautzW5i2wfLmjJxOqkLygcEIxCQ+IUjiBcCEAxA4VSTyJ38wtYJvv67Dl+DsQsRHDSjIJyAPYpPB4+014ImdckES1pmCE6g8eK6TWaT6df/Y3vpNBE6YWCeqpwJYUXjBxpgmCThq7vfRpLr1/8b9idmzJpr5kiZZsvXaywLgYNwSwVIOqB3BTMazwQR1OFrdTJNE/WHY6p4cF+XucDY67FHHmCXj71SUC4IZlpsGRNmwC8cnt3QEWPtZCbVVvBB6YZ57rFU43+xo9SMmXPNv2K8HkfUFXdpHjRwIDBxBZnx0MZqw2FppKuxBO2tbMocti66+cDvhHQdzTDX31vvfWqXfm6/XUuzj2i7waWqo8n6BDdO/Z2pYCmozQelk1CeItSdZEKGsOUOEiyFyavW6SChalHiy7SNo6/JtM8Z890v1p5aDenfIZj2uw8+GWL7nSDhq+v3lTcHWg3MPXfbyRru1nt6Hca8cc91Klhyr7m/0d8fIhsJ6PsK95I9czccfoftQ/TZZcoaAhIsUfO7SpUq2j46TD8zS/pO2CyC69X9MKvd6sY/5vtfrCaYK+RPlW8InSF8xkYUx0jf7Tpo8M4Q4WKqJe7p+lLElyr9oPdQVH2jWxb+JgESIAESIAESIIF8IlAqgiUsper3dkwwcuQhIliS5VhwyQRLWF7zsezuo/Zb4Ldpk0ZWgwmChVQu1aQOGknQTAoSLGH5ETSa4FSwBEPF42VpWLLJP/yqwAPGiTvKsj1NP5kwJZlg6aXXP7TCH8SZyqmmlaYTNJl2w7tLsfwaAa4/9zdYwPgqDP8GOWgfQQsJLtWAHraPYMslGQs37lTxwJ9OTvDVG4Iit1xuPP7fqZ4d/AalG+a5Iy5M2n8UwSWWf0CQ5Head1zXdIM0gHA/SGMp2zJrHUnGP1ldRPquc9M94ZiD7TIW9z5+69IZLIOEHzhNP6iOJusTbEDfn6IIloLSccvjSyrhNF3dSSZkCFvuIMFSmLxq3QoSTkQdX1Abd9NI1+fAjo9ruD7hATgn2DgAu+UFOVeIg2VQupQOfhE3BF2uUFfjUMESBEhVqlSxl7HsDjs5gl3QEtpkz1zj1GPYPiTVswtijX4au9/5ne5kp/Fl089o3v1x+s9d7VJNJ6jOQUgFYVWQYEk1zbAMEnaW1GXTlyJMqvSDuGkbLWrfqPnlkQRIgARIgARIgATyjUBOCJbwUPAlFhP0X8b/kSBggjYEtCKSOR0wBk1msxUs6df0VEu5VLCkdmdGjZXlX7KjWrJJadBk3v3CD+FDnRTb00MzCgZSU5XTZeNOumD0PGjrZ9e/anXhGrQItm/d0jQXW0swRK6GxUtDsITt5mFHRQUX7ld1TFgwQQhyWP53kNiUSuaCJiRhnjviV+EKfsMmCepps6ZNzLiJk+0XflewpEuF3MkZwqkLEixlW+YwdVHTd49uurCvBZtZfvfplyPl+cxLsMGVqo4GCXz8cep51IIltzxFqTvJhAxhyx0kWAqT16A6rSyjji9o0p5Nn6OamugvG0qbSeZ23WWHBDtRrj/s7jl1+iz3UuBvf91VwdK+Ys9uO7Frl4lL9sz9YcP2IameXRBrXAsSLEE7FQa2w/Qzo0WLDO9eOGi9JXNbiZZoh51jwr5U+Q4jWMqmL0X+UqUfxC2qvjEZG14nARIgARIgARIggfJOIGcES+6DwERlmNjQgAHvVEIehEk1qctWsDRtxhyxgxOz/6E2lNx8uXYaDhbbMi3Etgx2XsNuSHDukjENFyRYwj21exK0ZEPDusdU5XT9wTguloPA+Xd0c/3hN3YPwu5McH67IK6tjtIQLKmdDiyN7LL3bgk2TI46bH8DAU0YFzQhCfPcfxn3hyyzHG+zgOUzW4mhdXXYRv0PMVTrCpZ0sgUNiyDDwkGCJbe+ZVLmsHVR861HN10YvG/ZYgu95R3VBtN2rVqYffeOGZ5PVUdLU7DklicTjl4hfT+SCRnCljtIsBQmr0F1WrMedXxBk/Zs+hzdnQ6CWCwdDuOw7A7lws5x6B/8Dm0Nwnvs9okdKtUVp2ApTB+CfKV6dkGstSzJjmH6Gc17Mm2eoLRS5VvzkKnGUrZ9KfKTKv0gblH1jUEseI0ESIAESIAESIAE8oFATgqW8GDmiLbKINFagQuyXWRvyJ9Uk7psBUuuIfEOO7c1u8lXc9fhSzGWIsCp7SPXdkPH3Xe2Aho3DLSZ8LUUTpfc4be7AxJ21lIbRrgX5FKV0+8fuy5hWWGy5RDqX/kETSiwCx5sFsGVtGAJu/JhhyU419YKDHrDsDc0qg6TXdXCuKAJSZjnrpMn1ahy86JG413Bkto+gT93q20Np7ZHXBtLuJdNmcPWRc2De9R0gyaH2O1wgBgoh4NhddhegUtVR7MRLLnLVINsnYVJR8tTlLpTEoIlcMw2r0F1GvGoizK+oEk70sm0z4EdMdWE1GW+ms9MjrDPg7YC11O06bCMze/8y2j1fnEKlsL0IchXqmeXjLWWJ+gYpp9x857pBhqp8q19Y1DfEbQUTv1n2peG4RZl3xjEnddIgARIgARIgARIoLwTKPOCpSVLxb7SZ8PN7qLK79q4+Pm3SSLEmWCfT5D2kD64VJNMFZxkamMJcUKDB5o8CHOwaKLAhgQclpR8MXSUtavj/9r++jufmDVr1trlcNhaGbuBwf0zdYYZPvJ7z5aSK1hyB7owFgutFzUWjq/x4yf+ZZdWqf0Qta2RToML6bpLG7C0bR9nW2e1pbSfLAdxt38+4uAuptnmTRDcYOcmTACgiQBXnIIlCNSw3BGaL3AwGD5g0FCzRux04d5JJxxhlwLinj5r/Ib9FdhhUQfD4yhPOmPlussQtkQ/Qux/qcv2uetyHAjlIPxQG1T6nBCvK1iC/Spo+cBhJ6XjjjzQsw3jTgb9gqVsyxymLtpM+f589+M489uEyfaqK2SFYO9DESpBcInnc0rPbl691bwGLUvNRrCEtoRywEEbSuuGvSB/wqSjYRBH2LpTUoKlbPOaapKP8kYZXzJhR6Z9zrp1660QCn0L2gd2BnOX66LPrCVLgzdrHKyRiB3l0D+5bQtldJ0rzHdthBWnYAnpZ9uHIEyqZ5eMNcIlc2H7Gc0H3nsHylJid3MECJLxTmztLB9U/1HYWMq2L0XZU6WfjFuYvhGaTt/9MM5giTU+CKT7AJTsufA6CZAACZAACZAACeQ6gTIvWFJNDYDG7mfQslkuk9dVYuMHDjZrjjiki/0d9EcnTUGT2TCCJUx83hv4pbUxhPQwgYFTw+K6m5EKgXDv7ykQIH2Hn9YhzIb1GwoZdHYFS/CoA2D8xoC+npQdSziWirANxkxhBwT2QOBcWynpmMA/dqqD8AoO9kywBAuTDgit4DDhggFbLDlDmnAQeKwTgQ6EOhCY6PXiFCzZhOUPnn1lMaoLzkgX6eO5uzs0wa9+8cZvPIN6YgQW+UXZEO4gWaK4tSxRTObUFgrihxBKhVPZPnf3mePZ1a5dy26xrcI4pO+f/KomE+4h/RpST1BePGt1fsESrmdTZjdfCJtpXYRfvxs8fIzBkkg4tC/whu0tcEaZjz6iq3GN66dqi9kIlpCeasDgN+rl2jXrzOEH72OFtmHTyYYj0vW7khIsId1s8ppqkq1liCo+7bNQf8865TiN3h4z6XOglbJw0RIDAS/qPeJBnYcR7SWyiQPaYbLloqh3WOaLPgz2zHQ3woRMyAniwDJDuB2331Y2gdjF/i5uwVK2fQgylerZpWJtC5TkT5h+BpsPvD9wsO3DEC3ec7Xxzih4F+M5YRMF2PuDS5Vv1UDKVGPJ7bMy7UtTpZ+Mm5sOypBJ3/im7H6pY5F07xbESUcCJEACJEACJEAC5ZVAkQRLLbbc3Bzcde9ANqkmd+7A3t0Vzl1CA00HDFIxWYCNhV/HTzJQyVeHgSy+hh7ctZOdfOh1/zFVPn7/Q5ahffuznQSf6ZsE4cv4sK+/s3H7J0hr1q41+DI+f/4ib9KPAW/jxg0MbCthQOp3U6fPtks8VHCD+5ggQRMJg2A4v2AJ1yb9OcX89OvvdokXztU1bFDPdO7Ywftyj0kYtnhXAVcqLS7EAa4QduHrvssVwoEunXbzli/BBtTXsjueK9xA2hhEwxAs4nHTSjWgV3tSQZNOLZceNR5sCY6lT/girg47Ou0lywphjDbIfTP2J/PPlJnWBpfeR5r4yr73nu3t12W97j/Ol2V2n3zxtdXG8u8cle1zV4OwmgbyAHtE24ndF2i3+eOHP62vGgbHpps1stp6WB4JQ9kwOux32ZQ5bF30p4nzr0f/YKZMnZUgJEUeoUmEfLtOyxYk5E3WJ7jh3d+oS5ggo/6p063li5JONhw1XT2qUNIvMAybnyAbS5oWjpnmVdtSkPZI1PGlauOZ9jnIE9ohni80Vt1nDLZ77rpTIS01hHGF68eIUFM1Q3HP794TIQm2rXfbYBjBUrJn7k9Pz7PtQ1I9u1SsNb1kR62T7v10/QxsGg4RYfLceQu9DxAIjw8T2AV11/Zt7W9cS5Vv/VgUJFjCOwkCHv8y7Wz70lTpp+KWbd+oAln07dCeDXr3gwcdCZAACZAACZAACZR3AqEES6UFBUITTDiqyeQCg1IM5krbIT8bN27K2Fg0JjPLV6wyjUQ4k80gFBNvpIVBfKOG9bwBvL/8/85faJfdYRKZKZ+ly1aYZctXmAaiEQWVfr/D12oI0SpUrGB3BUIeStrh2cO2EjRgMBnMxGFZ1kIRSEGAh4lKpjwgRJs1a66pKoLNZEtuMn3uWIK3WPIAZpkaFEf6Nv4NG00TEVZmwzubMoeti0HsEdfKVWuEV3b5DYor02uol3P/XWAnuXi+2KI8KpcNx6jSDBtP1HmNOr6gcqXrczQM2sKCBYutkBg7kunSX72fy8dM+5DiKmNR+hlolaFvwzJFaJSVhAvTl4bNVzZ949x5C6xmbDbv87D5YjgSIAESIAESIAESKKsEckqwVFYhMl8kQAIkQAIkQAIkQAIkQAIkQAIkQAIkkI8E/h/VFNzNlmnIagAAAABJRU5ErkJggg==;" vertex="1" parent="1">
          <mxGeometry y="2.842170943040401e-14" width="694" height="462.27" as="geometry" />
        </mxCell>
        <mxCell id="LyHkT1nH7egu0SJi4p9X-2" value="" style="ellipse;whiteSpace=wrap;html=1;fillColor=none;fontColor=#ffffff;strokeColor=#FF0000;" vertex="1" parent="1">
          <mxGeometry x="40" y="30" width="340" height="50" as="geometry" />
        </mxCell>
      </root>
    </mxGraphModel>
  </diagram>
</mxfile>
